<svg width="366" height="248" viewBox="0 0 366 248" fill="none" xmlns="http://www.w3.org/2000/svg">
<g filter="url(#filter0_d_964_18503)">
<rect width="328" height="210" transform="translate(19 6)" fill="white"/>
<g clip-path="url(#clip0_964_18503)">
<path d="M71.1214 57.9828C70.7862 57.6477 70.2414 57.6477 69.9063 57.9828C69.5703 58.3188 69.5703 58.8628 69.9063 59.198C70.2415 59.534 70.7863 59.534 71.1214 59.198C71.4573 58.8628 71.4573 58.3188 71.1214 57.9828Z" fill="#295C7A"/>
<path d="M82.7593 81.4759C83.1382 80.9627 83.343 80.3444 83.343 79.6942C83.343 78.0358 81.9938 76.6865 80.3353 76.6865H65.7264C64.9226 76.6865 64.1673 76.9993 63.5995 77.5673C63.0315 78.1352 62.7187 78.8905 62.7187 79.6942C62.7187 80.3602 62.9366 80.976 63.3043 81.4749C61.9359 82.1943 61 83.6295 61 85.2799V86.1393C61 86.6139 61.3848 86.9987 61.8594 86.9987H84.2023C84.6768 86.9987 85.0616 86.6139 85.0616 86.1393V85.2799C85.0616 83.6303 84.1266 82.1957 82.7593 81.4759ZM64.8148 78.7825C65.0581 78.5391 65.3819 78.4051 65.7264 78.4051H80.3353C81.046 78.4051 81.6242 78.9834 81.6242 79.6941C81.6242 80.0387 81.4902 80.3624 81.2468 80.6058C81.0035 80.8492 80.6797 80.9831 80.3352 80.9831H65.7264C65.0156 80.9831 64.4374 80.4049 64.4374 79.6942C64.4374 79.3496 64.5714 79.0258 64.8148 78.7825ZM62.7187 85.2799C62.7187 83.8584 63.8752 82.7019 65.2967 82.7019H65.7264H80.3353H80.7649C82.1864 82.7019 83.343 83.8584 83.343 85.2799H62.7187Z" fill="#295C7A"/>
<path d="M104.2 79.1043C103.908 78.652 103.56 78.2521 103.165 77.9155L99.1498 74.4133C99.1185 74.3662 99.0822 74.3216 99.0407 74.28C98.9709 74.2104 98.8919 74.156 98.8078 74.1152L96.3795 71.9973L85.1397 62.1926C85.5998 61.7116 85.8532 61.0826 85.8532 60.4138C85.8532 59.7247 85.585 59.0772 85.0975 58.5897C84.8848 58.3774 84.6432 58.2104 84.3849 58.0881L85.4248 57.0483C85.7154 57.1255 86.0141 57.1651 86.313 57.1651C87.193 57.165 88.0732 56.83 88.7432 56.16C89.3927 55.5106 89.7504 54.6474 89.7504 53.7293C89.7504 52.8112 89.3927 51.948 88.7433 51.2986L81.4516 44.0071C80.8022 43.3577 79.9389 43 79.0206 43C78.1027 43 77.2396 43.3577 76.5902 44.0071C75.6927 44.9046 75.3973 46.179 75.702 47.3256L65.3272 57.7003C65.0405 57.6241 64.7422 57.5839 64.4375 57.5839C63.519 57.5839 62.6561 57.9413 62.0072 58.5901C60.6669 59.9304 60.6669 62.1112 62.0072 63.4516L69.2987 70.7432C69.9689 71.4133 70.8492 71.7484 71.7294 71.7484C72.6098 71.7484 73.49 71.4133 74.1603 70.7432C75.0578 69.8456 75.3533 68.5713 75.0485 67.4247L76.0862 66.3869C76.2109 66.6473 76.3801 66.8876 76.5903 67.0977C77.0772 67.5847 77.7246 67.8529 78.4135 67.8529C79.0817 67.8529 79.7104 67.6 80.1921 67.1404L92.1637 80.895C92.1967 80.9466 92.2352 80.9956 92.2802 81.0407C92.2956 81.056 92.3119 81.0701 92.3281 81.084L95.8955 85.1827C95.9842 85.2874 96.079 85.3903 96.1774 85.4887C97.1571 86.4681 98.4513 86.9997 99.81 86.9997C100.049 86.9997 100.291 86.9832 100.533 86.9496C102.151 86.7257 103.55 85.7577 104.37 84.2935C105.268 82.6888 105.201 80.6515 104.2 79.1043ZM77.8057 45.2224C78.1304 44.8977 78.562 44.7188 79.0206 44.7188C79.4799 44.7188 79.9117 44.8977 80.2364 45.2224L87.528 52.514C87.8528 52.8387 88.0316 53.2704 88.0316 53.7294C88.0316 54.1884 87.8528 54.62 87.5279 54.9448C86.8581 55.6149 85.7679 55.6149 85.098 54.9448L77.8061 47.6529C77.8059 47.6527 77.8058 47.6527 77.8057 47.6525C77.1356 46.9825 77.1356 45.8924 77.8057 45.2224ZM72.9449 69.5279C72.2748 70.198 71.1842 70.1981 70.514 69.5279L63.2225 62.2363C62.5523 61.5661 62.5523 60.4757 63.2225 59.8054C63.5466 59.4812 63.9782 59.3026 64.4375 59.3026C64.8966 59.3026 65.328 59.4811 65.652 59.8051L72.9449 67.0979C73.615 67.7678 73.615 68.858 72.9449 69.5279ZM76.5631 63.4796L74.1602 65.8826L66.8679 58.5903L76.5902 48.8677L83.8825 56.16L81.4752 58.5674C81.4674 58.5748 81.4597 58.582 81.4515 58.5902L76.5927 63.449C76.5827 63.4589 76.573 63.4692 76.5631 63.4796ZM79.6316 65.2723C79.6299 65.2741 79.6282 65.2757 79.6265 65.2774L79.0213 65.8826C78.859 66.0448 78.6432 66.1342 78.4134 66.1342C78.1837 66.1342 77.9678 66.0448 77.8056 65.8825C77.6431 65.7201 77.5536 65.504 77.5536 65.2741C77.5536 65.0492 77.6395 64.8375 77.7953 64.6778L82.6766 59.7965C83.0111 59.4711 83.552 59.4752 83.8826 59.8054C84.0451 59.9678 84.1345 60.1839 84.1345 60.4138C84.1345 60.6435 84.0453 60.8589 83.8826 61.0213L83.2809 61.6229C83.2768 61.627 83.2727 61.6311 83.2686 61.6352L79.6316 65.2723ZM81.4112 65.9233L83.9228 63.4117L94.5569 72.6874L90.6764 76.5679L81.4112 65.9233ZM91.8075 77.8674L95.855 73.8198L97.1533 74.9522L92.9385 79.1671L91.8075 77.8674ZM102.87 83.4539C102.316 84.4441 101.378 85.0977 100.298 85.2472C99.2199 85.3964 98.1609 85.0414 97.3924 84.2733C97.3264 84.2073 97.2631 84.1385 97.2042 84.0687C97.2014 84.0654 97.1987 84.0621 97.1958 84.059L94.0694 80.4666L98.4515 76.0845L102.039 79.2141C102.042 79.2165 102.045 79.2188 102.048 79.2212C102.316 79.4495 102.554 79.7238 102.757 80.0371C103.407 81.0413 103.452 82.4145 102.87 83.4539Z" fill="#295C7A"/>
<path d="M77.1981 51.906C76.8625 51.5704 76.3185 51.5704 75.9828 51.906L72.3367 55.5521C72.0011 55.8877 72.0011 56.4319 72.3367 56.7674C72.5045 56.9352 72.7244 57.0191 72.9443 57.0191C73.1642 57.0191 73.3841 56.9351 73.552 56.7674L77.1981 53.1212C77.5337 52.7857 77.5337 52.2417 77.1981 51.906Z" fill="#295C7A"/>
</g>
<path d="M62.048 120.416V105.464L60.176 105.248V103.808H73.064L73.328 107.408L71.84 107.432L71.192 105.56L65.024 105.368V112.04L69.536 111.92L70.112 110.192H71.48V115.472H69.944L69.56 113.672L65.024 113.6V120.344L68.528 120.608V122H60.152V120.752L62.048 120.416ZM80.8474 108.608C82.3994 108.608 83.5994 108.952 84.4474 109.64C85.2954 110.328 85.7194 111.48 85.7194 113.096V120.776H87.2074V121.736C86.9194 121.912 86.5434 122.048 86.0794 122.144C85.6154 122.256 85.1594 122.312 84.7114 122.312C84.1354 122.312 83.7194 122.2 83.4634 121.976C83.2074 121.736 83.0714 121.352 83.0554 120.824C82.1754 121.816 80.9354 122.312 79.3354 122.312C78.5194 122.312 77.7914 122.16 77.1514 121.856C76.5114 121.536 76.0154 121.096 75.6634 120.536C75.3114 119.976 75.1354 119.344 75.1354 118.64C75.1354 117.584 75.5274 116.712 76.3114 116.024C77.0954 115.336 78.0714 114.84 79.2394 114.536C80.4074 114.216 81.5834 114.056 82.7674 114.056V113.336C82.7674 112.248 82.5194 111.488 82.0234 111.056C81.5274 110.624 80.7914 110.408 79.8154 110.408C79.2874 110.408 78.6874 110.496 78.0154 110.672C77.3434 110.848 76.7594 111.072 76.2634 111.344L75.7114 110.024C76.2554 109.576 77.0314 109.232 78.0394 108.992C79.0634 108.736 79.9994 108.608 80.8474 108.608ZM82.7674 115.496C81.5674 115.496 80.4874 115.712 79.5274 116.144C78.5834 116.576 78.1114 117.264 78.1114 118.208C78.1114 119.76 78.9354 120.536 80.5834 120.536C80.9674 120.536 81.3594 120.456 81.7594 120.296C82.1754 120.136 82.5034 119.944 82.7434 119.72L82.7674 115.496ZM90.7932 120.512V111.656L89.1612 110.672V109.664L92.7372 108.608L93.3852 108.824V110.528C93.9132 110.016 94.6092 109.576 95.4732 109.208C96.3372 108.824 97.1452 108.624 97.8972 108.608C98.7932 108.56 99.5292 108.672 100.105 108.944C100.697 109.2 101.137 109.656 101.425 110.312C102.033 109.816 102.777 109.408 103.657 109.088C104.537 108.768 105.369 108.608 106.153 108.608C107.561 108.608 108.561 109.064 109.153 109.976C109.761 110.872 110.065 112.28 110.065 114.2V120.512L111.913 120.776V122H105.601V120.776L107.113 120.512V114.656C107.113 113.664 107.049 112.888 106.921 112.328C106.793 111.768 106.545 111.352 106.177 111.08C105.825 110.808 105.305 110.672 104.617 110.672C104.153 110.672 103.681 110.752 103.201 110.912C102.721 111.056 102.265 111.264 101.833 111.536C101.977 112.128 102.049 112.944 102.049 113.984V120.512L103.801 120.776V122H97.3692V120.776L99.0972 120.488V114.512C99.0972 113.584 99.0252 112.848 98.8812 112.304C98.7532 111.744 98.5132 111.336 98.1612 111.08C97.8092 110.808 97.3052 110.672 96.6492 110.672C96.2012 110.672 95.7212 110.752 95.2092 110.912C94.6972 111.072 94.2172 111.32 93.7692 111.656V120.512L95.4252 120.776V122H89.2572V120.776L90.7932 120.512ZM116.941 102.344C117.533 102.344 117.981 102.504 118.285 102.824C118.605 103.128 118.765 103.544 118.765 104.072C118.765 104.664 118.549 105.152 118.117 105.536C117.685 105.92 117.181 106.112 116.605 106.112C116.109 106.112 115.677 105.952 115.309 105.632C114.957 105.312 114.781 104.896 114.781 104.384C114.781 103.824 115.005 103.344 115.453 102.944C115.901 102.544 116.397 102.344 116.941 102.344ZM118.501 108.848V120.512L120.325 120.776V122H113.773V120.776L115.621 120.512V111.752L114.037 110.6V109.736L117.805 108.608L118.501 108.848ZM123.827 120.512V105.224L122.075 104.72V103.448L126.227 102.944L126.779 103.184V120.488L128.867 120.776V122H122.051V120.776L123.827 120.512ZM131.095 125.624C131.479 125.736 131.887 125.784 132.319 125.768C133.023 125.768 133.679 125.472 134.287 124.88C134.895 124.288 135.391 123.32 135.775 121.976H135.199L130.543 110.696L129.391 110.432V108.896H135.343V110.432L133.783 110.696L136.351 117.992L136.927 119.912L137.503 117.968L139.687 110.672L137.935 110.432V108.896H143.311V110.432L142.087 110.648C141.223 113.16 140.359 115.568 139.495 117.872C138.631 120.176 138.039 121.728 137.719 122.528C137.143 123.968 136.583 125.088 136.039 125.888C135.495 126.688 134.863 127.24 134.143 127.544C133.647 127.944 133.055 128.144 132.367 128.144C132.127 128.144 131.871 128.128 131.599 128.096C131.343 128.064 131.175 128.024 131.095 127.976V125.624ZM151.787 120.392V105.608L149.987 105.416V103.808H156.875V105.416L154.811 105.632L154.787 120.464L160.283 120.128L161.915 117.32L163.235 117.896L162.443 122H149.939V120.752L151.787 120.392ZM170.493 108.608C172.045 108.608 173.245 108.952 174.093 109.64C174.941 110.328 175.365 111.48 175.365 113.096V120.776H176.853V121.736C176.565 121.912 176.189 122.048 175.725 122.144C175.261 122.256 174.805 122.312 174.357 122.312C173.781 122.312 173.365 122.2 173.109 121.976C172.853 121.736 172.717 121.352 172.701 120.824C171.821 121.816 170.581 122.312 168.981 122.312C168.165 122.312 167.437 122.16 166.797 121.856C166.157 121.536 165.661 121.096 165.309 120.536C164.957 119.976 164.781 119.344 164.781 118.64C164.781 117.584 165.173 116.712 165.957 116.024C166.741 115.336 167.717 114.84 168.885 114.536C170.053 114.216 171.229 114.056 172.413 114.056V113.336C172.413 112.248 172.165 111.488 171.669 111.056C171.173 110.624 170.437 110.408 169.461 110.408C168.933 110.408 168.333 110.496 167.661 110.672C166.989 110.848 166.405 111.072 165.909 111.344L165.357 110.024C165.901 109.576 166.677 109.232 167.685 108.992C168.709 108.736 169.645 108.608 170.493 108.608ZM172.413 115.496C171.213 115.496 170.133 115.712 169.173 116.144C168.229 116.576 167.757 117.264 167.757 118.208C167.757 119.76 168.581 120.536 170.229 120.536C170.613 120.536 171.005 120.456 171.405 120.296C171.821 120.136 172.149 119.944 172.389 119.72L172.413 115.496ZM177.299 110.432V108.896H182.963V110.432L181.523 110.72L183.395 117.2L183.971 119.504L184.403 117.32L186.587 108.896H189.131L191.339 117.296L191.891 119.552L194.027 110.72L192.563 110.432V108.896H197.699V110.432L196.163 110.744L192.851 122.192H190.115L187.859 114.344L187.427 112.328L186.995 114.344L184.907 122.192H182.315L178.547 110.696L177.299 110.432Z" fill="#252B42"/>
<path d="M69.0967 156H67.9482L65.9316 149.308C65.8359 149.011 65.7288 148.638 65.6104 148.187C65.4919 147.735 65.4303 147.464 65.4258 147.373C65.3255 147.975 65.166 148.633 64.9473 149.349L62.9922 156H61.8438L59.1846 146.006H60.415L61.9941 152.179C62.2129 153.045 62.3724 153.828 62.4727 154.53C62.5957 153.696 62.778 152.881 63.0195 152.083L64.8105 146.006H66.041L67.9209 152.138C68.1396 152.844 68.3242 153.642 68.4746 154.53C68.5612 153.883 68.7253 153.095 68.9668 152.165L70.5391 146.006H71.7695L69.0967 156ZM76.5291 156.137C75.4217 156.137 74.5467 155.799 73.9041 155.125C73.2661 154.451 72.9471 153.514 72.9471 152.315C72.9471 151.108 73.2433 150.148 73.8357 149.438C74.4327 148.727 75.2326 148.371 76.2352 148.371C77.174 148.371 77.9168 148.681 78.4637 149.301C79.0105 149.916 79.284 150.729 79.284 151.741V152.459H74.1229C74.1456 153.339 74.3667 154.006 74.7859 154.462C75.2098 154.918 75.8045 155.146 76.5701 155.146C77.3768 155.146 78.1743 154.977 78.9627 154.64V155.651C78.5617 155.825 78.1811 155.948 77.8211 156.021C77.4656 156.098 77.035 156.137 76.5291 156.137ZM76.2215 149.321C75.6199 149.321 75.1391 149.517 74.7791 149.909C74.4236 150.301 74.214 150.843 74.1502 151.536H78.0672C78.0672 150.821 77.9077 150.274 77.5887 149.896C77.2697 149.513 76.8139 149.321 76.2215 149.321ZM88.6391 149.39H86.7318V156H85.5971V149.39H84.2572V148.877L85.5971 148.467V148.05C85.5971 146.209 86.4014 145.288 88.0102 145.288C88.4066 145.288 88.8715 145.368 89.4047 145.527L89.1107 146.437C88.6732 146.295 88.2995 146.225 87.9896 146.225C87.5613 146.225 87.2445 146.368 87.0395 146.655C86.8344 146.938 86.7318 147.394 86.7318 148.022V148.508H88.6391V149.39ZM96.673 152.247C96.673 153.468 96.3654 154.423 95.7502 155.111C95.135 155.795 94.285 156.137 93.2004 156.137C92.5305 156.137 91.9357 155.979 91.4162 155.665C90.8967 155.351 90.4956 154.899 90.2131 154.312C89.9305 153.724 89.7893 153.035 89.7893 152.247C89.7893 151.026 90.0946 150.076 90.7053 149.396C91.3159 148.713 92.1636 148.371 93.2482 148.371C94.2964 148.371 95.1281 148.72 95.7434 149.417C96.3632 150.114 96.673 151.058 96.673 152.247ZM90.965 152.247C90.965 153.204 91.1564 153.933 91.5393 154.435C91.9221 154.936 92.4849 155.187 93.2277 155.187C93.9706 155.187 94.5334 154.938 94.9162 154.441C95.3036 153.94 95.4973 153.209 95.4973 152.247C95.4973 151.295 95.3036 150.572 94.9162 150.08C94.5334 149.583 93.966 149.335 93.2141 149.335C92.4712 149.335 91.9107 149.579 91.5324 150.066C91.1542 150.554 90.965 151.281 90.965 152.247ZM101.863 156.137C100.779 156.137 99.9378 155.804 99.3408 155.139C98.7484 154.469 98.4521 153.523 98.4521 152.302C98.4521 151.049 98.7529 150.08 99.3545 149.396C99.9606 148.713 100.822 148.371 101.938 148.371C102.299 148.371 102.659 148.41 103.019 148.487C103.379 148.565 103.661 148.656 103.866 148.761L103.518 149.725C103.267 149.624 102.993 149.542 102.697 149.479C102.401 149.41 102.139 149.376 101.911 149.376C100.389 149.376 99.6279 150.347 99.6279 152.288C99.6279 153.209 99.8125 153.915 100.182 154.407C100.555 154.899 101.107 155.146 101.836 155.146C102.46 155.146 103.101 155.011 103.757 154.742V155.747C103.256 156.007 102.624 156.137 101.863 156.137ZM106.807 148.508V153.368C106.807 153.979 106.946 154.435 107.224 154.735C107.502 155.036 107.938 155.187 108.53 155.187C109.314 155.187 109.886 154.972 110.246 154.544C110.61 154.116 110.793 153.416 110.793 152.445V148.508H111.928V156H110.991L110.827 154.995H110.765C110.533 155.364 110.209 155.647 109.795 155.843C109.385 156.039 108.915 156.137 108.387 156.137C107.475 156.137 106.791 155.92 106.336 155.487C105.885 155.054 105.659 154.362 105.659 153.409V148.508H106.807ZM119.374 153.956C119.374 154.653 119.114 155.191 118.594 155.569C118.075 155.948 117.346 156.137 116.407 156.137C115.413 156.137 114.639 155.979 114.083 155.665V154.612C114.443 154.795 114.828 154.938 115.238 155.043C115.653 155.148 116.051 155.2 116.434 155.2C117.027 155.2 117.482 155.107 117.801 154.92C118.12 154.729 118.28 154.439 118.28 154.052C118.28 153.76 118.152 153.512 117.897 153.307C117.646 153.097 117.154 152.851 116.421 152.568C115.723 152.309 115.226 152.083 114.93 151.892C114.639 151.696 114.42 151.475 114.274 151.229C114.133 150.982 114.062 150.688 114.062 150.347C114.062 149.736 114.31 149.255 114.807 148.904C115.304 148.549 115.985 148.371 116.851 148.371C117.658 148.371 118.446 148.535 119.216 148.863L118.813 149.786C118.061 149.476 117.38 149.321 116.769 149.321C116.231 149.321 115.826 149.406 115.552 149.574C115.279 149.743 115.142 149.975 115.142 150.271C115.142 150.472 115.192 150.643 115.293 150.784C115.397 150.925 115.564 151.06 115.792 151.188C116.019 151.315 116.457 151.5 117.104 151.741C117.993 152.065 118.592 152.391 118.902 152.719C119.216 153.047 119.374 153.459 119.374 153.956ZM131.73 152.247C131.73 153.468 131.422 154.423 130.807 155.111C130.192 155.795 129.342 156.137 128.257 156.137C127.587 156.137 126.992 155.979 126.473 155.665C125.953 155.351 125.552 154.899 125.27 154.312C124.987 153.724 124.846 153.035 124.846 152.247C124.846 151.026 125.151 150.076 125.762 149.396C126.373 148.713 127.22 148.371 128.305 148.371C129.353 148.371 130.185 148.72 130.8 149.417C131.42 150.114 131.73 151.058 131.73 152.247ZM126.022 152.247C126.022 153.204 126.213 153.933 126.596 154.435C126.979 154.936 127.542 155.187 128.284 155.187C129.027 155.187 129.59 154.938 129.973 154.441C130.36 153.94 130.554 153.209 130.554 152.247C130.554 151.295 130.36 150.572 129.973 150.08C129.59 149.583 129.023 149.335 128.271 149.335C127.528 149.335 126.967 149.579 126.589 150.066C126.211 150.554 126.022 151.281 126.022 152.247ZM139.053 156V151.153C139.053 150.543 138.914 150.087 138.636 149.786C138.358 149.485 137.923 149.335 137.33 149.335C136.546 149.335 135.972 149.547 135.607 149.971C135.243 150.395 135.061 151.094 135.061 152.069V156H133.926V148.508H134.849L135.033 149.533H135.088C135.32 149.164 135.646 148.879 136.065 148.679C136.485 148.474 136.952 148.371 137.467 148.371C138.369 148.371 139.048 148.59 139.504 149.027C139.96 149.46 140.188 150.155 140.188 151.112V156H139.053ZM149.727 156.137C148.62 156.137 147.745 155.799 147.102 155.125C146.464 154.451 146.145 153.514 146.145 152.315C146.145 151.108 146.441 150.148 147.034 149.438C147.631 148.727 148.431 148.371 149.433 148.371C150.372 148.371 151.115 148.681 151.662 149.301C152.209 149.916 152.482 150.729 152.482 151.741V152.459H147.321C147.344 153.339 147.565 154.006 147.984 154.462C148.408 154.918 149.003 155.146 149.768 155.146C150.575 155.146 151.372 154.977 152.161 154.64V155.651C151.76 155.825 151.379 155.948 151.019 156.021C150.664 156.098 150.233 156.137 149.727 156.137ZM149.42 149.321C148.818 149.321 148.337 149.517 147.977 149.909C147.622 150.301 147.412 150.843 147.348 151.536H151.265C151.265 150.821 151.106 150.274 150.787 149.896C150.468 149.513 150.012 149.321 149.42 149.321ZM158.041 148.371C158.374 148.371 158.673 148.398 158.937 148.453L158.78 149.506C158.47 149.438 158.196 149.403 157.959 149.403C157.353 149.403 156.834 149.649 156.401 150.142C155.972 150.634 155.758 151.247 155.758 151.98V156H154.623V148.508H155.56L155.69 149.896H155.745C156.023 149.408 156.357 149.032 156.749 148.768C157.141 148.503 157.572 148.371 158.041 148.371ZM166.67 148.508V149.226L165.282 149.39C165.41 149.549 165.524 149.759 165.624 150.019C165.724 150.274 165.775 150.563 165.775 150.887C165.775 151.62 165.524 152.206 165.023 152.644C164.521 153.081 163.833 153.3 162.958 153.3C162.735 153.3 162.525 153.282 162.329 153.245C161.846 153.5 161.605 153.822 161.605 154.209C161.605 154.414 161.689 154.567 161.858 154.667C162.026 154.763 162.316 154.811 162.726 154.811H164.052C164.863 154.811 165.485 154.981 165.918 155.323C166.356 155.665 166.574 156.162 166.574 156.813C166.574 157.643 166.242 158.274 165.576 158.707C164.911 159.145 163.94 159.363 162.664 159.363C161.684 159.363 160.928 159.181 160.395 158.816C159.866 158.452 159.602 157.937 159.602 157.271C159.602 156.816 159.748 156.422 160.039 156.089C160.331 155.756 160.741 155.531 161.27 155.412C161.078 155.326 160.917 155.191 160.784 155.009C160.657 154.826 160.593 154.615 160.593 154.373C160.593 154.1 160.666 153.86 160.812 153.655C160.958 153.45 161.188 153.252 161.502 153.061C161.115 152.901 160.798 152.63 160.552 152.247C160.31 151.864 160.19 151.427 160.19 150.935C160.19 150.114 160.436 149.483 160.928 149.041C161.42 148.594 162.117 148.371 163.02 148.371C163.412 148.371 163.765 148.417 164.079 148.508H166.67ZM160.696 157.258C160.696 157.663 160.866 157.971 161.208 158.181C161.55 158.39 162.04 158.495 162.678 158.495C163.63 158.495 164.335 158.352 164.79 158.064C165.251 157.782 165.481 157.397 165.481 156.909C165.481 156.504 165.355 156.221 165.105 156.062C164.854 155.907 164.382 155.829 163.69 155.829H162.329C161.814 155.829 161.413 155.952 161.126 156.198C160.839 156.444 160.696 156.798 160.696 157.258ZM161.311 150.907C161.311 151.431 161.459 151.828 161.755 152.097C162.051 152.366 162.464 152.5 162.992 152.5C164.1 152.5 164.654 151.962 164.654 150.887C164.654 149.761 164.093 149.198 162.972 149.198C162.439 149.198 162.029 149.342 161.741 149.629C161.454 149.916 161.311 150.342 161.311 150.907ZM174.875 152.247C174.875 153.468 174.567 154.423 173.952 155.111C173.337 155.795 172.487 156.137 171.402 156.137C170.732 156.137 170.138 155.979 169.618 155.665C169.099 155.351 168.698 154.899 168.415 154.312C168.132 153.724 167.991 153.035 167.991 152.247C167.991 151.026 168.297 150.076 168.907 149.396C169.518 148.713 170.366 148.371 171.45 148.371C172.498 148.371 173.33 148.72 173.945 149.417C174.565 150.114 174.875 151.058 174.875 152.247ZM169.167 152.247C169.167 153.204 169.358 153.933 169.741 154.435C170.124 154.936 170.687 155.187 171.43 155.187C172.173 155.187 172.735 154.938 173.118 154.441C173.506 153.94 173.699 153.209 173.699 152.247C173.699 151.295 173.506 150.572 173.118 150.08C172.735 149.583 172.168 149.335 171.416 149.335C170.673 149.335 170.113 149.579 169.734 150.066C169.356 150.554 169.167 151.281 169.167 152.247ZM182.198 156V151.153C182.198 150.543 182.059 150.087 181.781 149.786C181.503 149.485 181.068 149.335 180.475 149.335C179.692 149.335 179.117 149.547 178.753 149.971C178.388 150.395 178.206 151.094 178.206 152.069V156H177.071V148.508H177.994L178.179 149.533H178.233C178.466 149.164 178.791 148.879 179.211 148.679C179.63 148.474 180.097 148.371 180.612 148.371C181.514 148.371 182.193 148.59 182.649 149.027C183.105 149.46 183.333 150.155 183.333 151.112V156H182.198ZM192.338 152.247C192.338 153.468 192.03 154.423 191.415 155.111C190.799 155.795 189.949 156.137 188.865 156.137C188.195 156.137 187.6 155.979 187.081 155.665C186.561 155.351 186.16 154.899 185.878 154.312C185.595 153.724 185.454 153.035 185.454 152.247C185.454 151.026 185.759 150.076 186.37 149.396C186.98 148.713 187.828 148.371 188.913 148.371C189.961 148.371 190.793 148.72 191.408 149.417C192.028 150.114 192.338 151.058 192.338 152.247ZM186.629 152.247C186.629 153.204 186.821 153.933 187.204 154.435C187.587 154.936 188.149 155.187 188.892 155.187C189.635 155.187 190.198 154.938 190.581 154.441C190.968 153.94 191.162 153.209 191.162 152.247C191.162 151.295 190.968 150.572 190.581 150.08C190.198 149.583 189.63 149.335 188.879 149.335C188.136 149.335 187.575 149.579 187.197 150.066C186.819 150.554 186.629 151.281 186.629 152.247ZM204.083 156V151.126C204.083 150.529 203.956 150.082 203.701 149.786C203.445 149.485 203.049 149.335 202.511 149.335C201.805 149.335 201.283 149.538 200.946 149.943C200.608 150.349 200.44 150.973 200.44 151.816V156H199.305V151.126C199.305 150.529 199.177 150.082 198.922 149.786C198.667 149.485 198.268 149.335 197.726 149.335C197.015 149.335 196.493 149.549 196.161 149.978C195.832 150.401 195.668 151.099 195.668 152.069V156H194.534V148.508H195.456L195.641 149.533H195.696C195.91 149.169 196.211 148.884 196.598 148.679C196.99 148.474 197.427 148.371 197.911 148.371C199.082 148.371 199.847 148.795 200.207 149.643H200.262C200.485 149.251 200.809 148.941 201.233 148.713C201.657 148.485 202.14 148.371 202.682 148.371C203.53 148.371 204.163 148.59 204.582 149.027C205.006 149.46 205.218 150.155 205.218 151.112V156H204.083ZM208.898 156H207.763V148.508H208.898V156ZM207.667 146.478C207.667 146.218 207.731 146.029 207.859 145.91C207.986 145.787 208.146 145.726 208.337 145.726C208.519 145.726 208.677 145.787 208.809 145.91C208.941 146.033 209.007 146.222 209.007 146.478C209.007 146.733 208.941 146.924 208.809 147.052C208.677 147.175 208.519 147.236 208.337 147.236C208.146 147.236 207.986 147.175 207.859 147.052C207.731 146.924 207.667 146.733 207.667 146.478ZM214.498 156.137C213.413 156.137 212.573 155.804 211.976 155.139C211.383 154.469 211.087 153.523 211.087 152.302C211.087 151.049 211.388 150.08 211.989 149.396C212.595 148.713 213.457 148.371 214.573 148.371C214.933 148.371 215.293 148.41 215.653 148.487C216.013 148.565 216.296 148.656 216.501 148.761L216.152 149.725C215.902 149.624 215.628 149.542 215.332 149.479C215.036 149.41 214.774 149.376 214.546 149.376C213.024 149.376 212.263 150.347 212.263 152.288C212.263 153.209 212.447 153.915 212.816 154.407C213.19 154.899 213.742 155.146 214.471 155.146C215.095 155.146 215.735 155.011 216.392 154.742V155.747C215.89 156.007 215.259 156.137 214.498 156.137ZM223.209 153.956C223.209 154.653 222.949 155.191 222.429 155.569C221.91 155.948 221.181 156.137 220.242 156.137C219.248 156.137 218.474 155.979 217.918 155.665V154.612C218.278 154.795 218.663 154.938 219.073 155.043C219.488 155.148 219.887 155.2 220.269 155.2C220.862 155.2 221.318 155.107 221.637 154.92C221.956 154.729 222.115 154.439 222.115 154.052C222.115 153.76 221.987 153.512 221.732 153.307C221.482 153.097 220.989 152.851 220.256 152.568C219.558 152.309 219.062 152.083 218.765 151.892C218.474 151.696 218.255 151.475 218.109 151.229C217.968 150.982 217.897 150.688 217.897 150.347C217.897 149.736 218.146 149.255 218.642 148.904C219.139 148.549 219.82 148.371 220.686 148.371C221.493 148.371 222.281 148.535 223.052 148.863L222.648 149.786C221.896 149.476 221.215 149.321 220.604 149.321C220.067 149.321 219.661 149.406 219.387 149.574C219.114 149.743 218.977 149.975 218.977 150.271C218.977 150.472 219.027 150.643 219.128 150.784C219.233 150.925 219.399 151.06 219.627 151.188C219.855 151.315 220.292 151.5 220.939 151.741C221.828 152.065 222.427 152.391 222.737 152.719C223.052 153.047 223.209 153.459 223.209 153.956ZM233.705 156L233.48 154.934H233.425C233.052 155.403 232.678 155.722 232.304 155.891C231.935 156.055 231.472 156.137 230.916 156.137C230.174 156.137 229.59 155.945 229.166 155.562C228.747 155.18 228.538 154.635 228.538 153.929C228.538 152.416 229.747 151.623 232.167 151.55L233.439 151.509V151.044C233.439 150.456 233.311 150.023 233.056 149.745C232.805 149.463 232.402 149.321 231.846 149.321C231.222 149.321 230.515 149.513 229.727 149.896L229.378 149.027C229.747 148.827 230.151 148.67 230.588 148.556C231.03 148.442 231.472 148.385 231.914 148.385C232.808 148.385 233.468 148.583 233.897 148.979C234.33 149.376 234.546 150.012 234.546 150.887V156H233.705ZM231.142 155.2C231.848 155.2 232.402 155.007 232.803 154.619C233.209 154.232 233.412 153.689 233.412 152.992V152.315L232.277 152.363C231.374 152.395 230.723 152.536 230.322 152.787C229.925 153.033 229.727 153.418 229.727 153.942C229.727 154.353 229.85 154.665 230.096 154.879C230.347 155.093 230.695 155.2 231.142 155.2ZM242.218 156V151.153C242.218 150.543 242.079 150.087 241.801 149.786C241.523 149.485 241.088 149.335 240.495 149.335C239.711 149.335 239.137 149.547 238.773 149.971C238.408 150.395 238.226 151.094 238.226 152.069V156H237.091V148.508H238.014L238.198 149.533H238.253C238.486 149.164 238.811 148.879 239.231 148.679C239.65 148.474 240.117 148.371 240.632 148.371C241.534 148.371 242.213 148.59 242.669 149.027C243.125 149.46 243.353 150.155 243.353 151.112V156H242.218ZM250.99 154.995H250.929C250.405 155.756 249.621 156.137 248.577 156.137C247.597 156.137 246.834 155.802 246.287 155.132C245.745 154.462 245.474 153.509 245.474 152.274C245.474 151.039 245.747 150.08 246.294 149.396C246.841 148.713 247.602 148.371 248.577 148.371C249.593 148.371 250.373 148.74 250.915 149.479H251.004L250.956 148.938L250.929 148.412V145.363H252.063V156H251.141L250.99 154.995ZM248.721 155.187C249.495 155.187 250.056 154.977 250.402 154.558C250.753 154.134 250.929 153.452 250.929 152.514V152.274C250.929 151.213 250.751 150.456 250.396 150.005C250.045 149.549 249.482 149.321 248.707 149.321C248.042 149.321 247.531 149.581 247.176 150.101C246.825 150.616 246.649 151.345 246.649 152.288C246.649 153.245 246.825 153.967 247.176 154.455C247.527 154.943 248.042 155.187 248.721 155.187ZM69.7529 176V171.126C69.7529 170.529 69.6253 170.082 69.3701 169.786C69.1149 169.485 68.7184 169.335 68.1807 169.335C67.4743 169.335 66.9525 169.538 66.6152 169.943C66.278 170.349 66.1094 170.973 66.1094 171.816V176H64.9746V171.126C64.9746 170.529 64.847 170.082 64.5918 169.786C64.3366 169.485 63.9378 169.335 63.3955 169.335C62.6846 169.335 62.1628 169.549 61.8301 169.978C61.502 170.401 61.3379 171.099 61.3379 172.069V176H60.2031V168.508H61.126L61.3105 169.533H61.3652C61.5794 169.169 61.8802 168.884 62.2676 168.679C62.6595 168.474 63.097 168.371 63.5801 168.371C64.7513 168.371 65.5169 168.795 65.877 169.643H65.9316C66.1549 169.251 66.4785 168.941 66.9023 168.713C67.3262 168.485 67.8092 168.371 68.3516 168.371C69.1992 168.371 69.8327 168.59 70.252 169.027C70.6758 169.46 70.8877 170.155 70.8877 171.112V176H69.7529ZM76.5975 176.137C75.49 176.137 74.615 175.799 73.9725 175.125C73.3344 174.451 73.0154 173.514 73.0154 172.315C73.0154 171.108 73.3117 170.148 73.9041 169.438C74.5011 168.727 75.3009 168.371 76.3035 168.371C77.2423 168.371 77.9852 168.681 78.532 169.301C79.0789 169.916 79.3523 170.729 79.3523 171.741V172.459H74.1912C74.214 173.339 74.435 174.006 74.8543 174.462C75.2781 174.918 75.8729 175.146 76.6385 175.146C77.4451 175.146 78.2426 174.977 79.0311 174.64V175.651C78.63 175.825 78.2495 175.948 77.8895 176.021C77.534 176.098 77.1033 176.137 76.5975 176.137ZM76.2898 169.321C75.6883 169.321 75.2075 169.517 74.8475 169.909C74.492 170.301 74.2824 170.843 74.2186 171.536H78.1355C78.1355 170.821 77.976 170.274 77.657 169.896C77.338 169.513 76.8823 169.321 76.2898 169.321ZM84.6588 176.137C83.5514 176.137 82.6764 175.799 82.0338 175.125C81.3958 174.451 81.0768 173.514 81.0768 172.315C81.0768 171.108 81.373 170.148 81.9654 169.438C82.5624 168.727 83.3622 168.371 84.3648 168.371C85.3036 168.371 86.0465 168.681 86.5934 169.301C87.1402 169.916 87.4137 170.729 87.4137 171.741V172.459H82.2525C82.2753 173.339 82.4964 174.006 82.9156 174.462C83.3395 174.918 83.9342 175.146 84.6998 175.146C85.5064 175.146 86.304 174.977 87.0924 174.64V175.651C86.6913 175.825 86.3108 175.948 85.9508 176.021C85.5953 176.098 85.1646 176.137 84.6588 176.137ZM84.3512 169.321C83.7496 169.321 83.2688 169.517 82.9088 169.909C82.5533 170.301 82.3437 170.843 82.2799 171.536H86.1969C86.1969 170.821 86.0374 170.274 85.7184 169.896C85.3993 169.513 84.9436 169.321 84.3512 169.321ZM91.975 175.2C92.1755 175.2 92.3692 175.187 92.5561 175.159C92.7429 175.127 92.891 175.095 93.0004 175.063V175.932C92.8773 175.991 92.6951 176.039 92.4535 176.075C92.2165 176.116 92.0023 176.137 91.8109 176.137C90.3617 176.137 89.6371 175.373 89.6371 173.847V169.39H88.5639V168.843L89.6371 168.371L90.1156 166.771H90.7719V168.508H92.9457V169.39H90.7719V173.799C90.7719 174.25 90.879 174.596 91.0932 174.838C91.3074 175.079 91.6013 175.2 91.975 175.2ZM95.8391 176H94.7043V168.508H95.8391V176ZM94.6086 166.478C94.6086 166.218 94.6724 166.029 94.8 165.91C94.9276 165.787 95.0871 165.726 95.2785 165.726C95.4608 165.726 95.618 165.787 95.7502 165.91C95.8824 166.033 95.9484 166.222 95.9484 166.478C95.9484 166.733 95.8824 166.924 95.7502 167.052C95.618 167.175 95.4608 167.236 95.2785 167.236C95.0871 167.236 94.9276 167.175 94.8 167.052C94.6724 166.924 94.6086 166.733 94.6086 166.478ZM103.572 176V171.153C103.572 170.543 103.433 170.087 103.155 169.786C102.877 169.485 102.442 169.335 101.85 169.335C101.066 169.335 100.492 169.547 100.127 169.971C99.7624 170.395 99.5801 171.094 99.5801 172.069V176H98.4453V168.508H99.3682L99.5527 169.533H99.6074C99.8398 169.164 100.166 168.879 100.585 168.679C101.004 168.474 101.471 168.371 101.986 168.371C102.889 168.371 103.568 168.59 104.023 169.027C104.479 169.46 104.707 170.155 104.707 171.112V176H103.572ZM113.377 168.508V169.226L111.989 169.39C112.117 169.549 112.231 169.759 112.331 170.019C112.431 170.274 112.481 170.563 112.481 170.887C112.481 171.62 112.231 172.206 111.729 172.644C111.228 173.081 110.54 173.3 109.665 173.3C109.442 173.3 109.232 173.282 109.036 173.245C108.553 173.5 108.311 173.822 108.311 174.209C108.311 174.414 108.396 174.567 108.564 174.667C108.733 174.763 109.022 174.811 109.432 174.811H110.759C111.57 174.811 112.192 174.981 112.625 175.323C113.062 175.665 113.281 176.162 113.281 176.813C113.281 177.643 112.948 178.274 112.283 178.707C111.618 179.145 110.647 179.363 109.371 179.363C108.391 179.363 107.635 179.181 107.101 178.816C106.573 178.452 106.308 177.937 106.308 177.271C106.308 176.816 106.454 176.422 106.746 176.089C107.038 175.756 107.448 175.531 107.976 175.412C107.785 175.326 107.623 175.191 107.491 175.009C107.363 174.826 107.3 174.615 107.3 174.373C107.3 174.1 107.373 173.86 107.518 173.655C107.664 173.45 107.894 173.252 108.209 173.061C107.821 172.901 107.505 172.63 107.259 172.247C107.017 171.864 106.896 171.427 106.896 170.935C106.896 170.114 107.142 169.483 107.635 169.041C108.127 168.594 108.824 168.371 109.726 168.371C110.118 168.371 110.471 168.417 110.786 168.508H113.377ZM107.402 177.258C107.402 177.663 107.573 177.971 107.915 178.181C108.257 178.39 108.747 178.495 109.385 178.495C110.337 178.495 111.041 178.352 111.497 178.064C111.957 177.782 112.187 177.397 112.187 176.909C112.187 176.504 112.062 176.221 111.811 176.062C111.561 175.907 111.089 175.829 110.396 175.829H109.036C108.521 175.829 108.12 175.952 107.833 176.198C107.546 176.444 107.402 176.798 107.402 177.258ZM108.017 170.907C108.017 171.431 108.165 171.828 108.462 172.097C108.758 172.366 109.17 172.5 109.699 172.5C110.806 172.5 111.36 171.962 111.36 170.887C111.36 169.761 110.8 169.198 109.679 169.198C109.145 169.198 108.735 169.342 108.448 169.629C108.161 169.916 108.017 170.342 108.017 170.907ZM117.762 168.508H118.979L120.62 172.78C120.98 173.756 121.203 174.46 121.289 174.893H121.344C121.403 174.66 121.526 174.264 121.713 173.703C121.905 173.138 122.524 171.406 123.573 168.508H124.789L121.57 177.039C121.251 177.882 120.877 178.479 120.449 178.83C120.025 179.186 119.503 179.363 118.883 179.363C118.537 179.363 118.195 179.325 117.858 179.247V178.338C118.108 178.393 118.389 178.42 118.699 178.42C119.478 178.42 120.034 177.982 120.367 177.107L120.784 176.041L117.762 168.508ZM132.673 172.247C132.673 173.468 132.365 174.423 131.75 175.111C131.135 175.795 130.285 176.137 129.2 176.137C128.53 176.137 127.936 175.979 127.416 175.665C126.897 175.351 126.496 174.899 126.213 174.312C125.931 173.724 125.789 173.035 125.789 172.247C125.789 171.026 126.095 170.076 126.705 169.396C127.316 168.713 128.164 168.371 129.248 168.371C130.296 168.371 131.128 168.72 131.743 169.417C132.363 170.114 132.673 171.058 132.673 172.247ZM126.965 172.247C126.965 173.204 127.156 173.933 127.539 174.435C127.922 174.936 128.485 175.187 129.228 175.187C129.971 175.187 130.533 174.938 130.916 174.441C131.304 173.94 131.497 173.209 131.497 172.247C131.497 171.295 131.304 170.572 130.916 170.08C130.533 169.583 129.966 169.335 129.214 169.335C128.471 169.335 127.911 169.579 127.532 170.066C127.154 170.554 126.965 171.281 126.965 172.247ZM135.936 168.508V173.368C135.936 173.979 136.075 174.435 136.353 174.735C136.631 175.036 137.066 175.187 137.658 175.187C138.442 175.187 139.014 174.972 139.374 174.544C139.739 174.116 139.921 173.416 139.921 172.445V168.508H141.056V176H140.119L139.955 174.995H139.894C139.661 175.364 139.338 175.647 138.923 175.843C138.513 176.039 138.043 176.137 137.515 176.137C136.603 176.137 135.92 175.92 135.464 175.487C135.013 175.054 134.787 174.362 134.787 173.409V168.508H135.936ZM153.624 176L152.25 171.604C152.163 171.336 152.001 170.725 151.764 169.772H151.71C151.527 170.57 151.368 171.185 151.231 171.618L149.816 176H148.504L146.46 168.508H147.649C148.132 170.39 148.499 171.823 148.75 172.808C149.005 173.792 149.151 174.455 149.187 174.797H149.242C149.292 174.537 149.372 174.202 149.481 173.792C149.595 173.377 149.693 173.049 149.775 172.808L151.149 168.508H152.379L153.719 172.808C153.975 173.591 154.148 174.25 154.239 174.783H154.294C154.312 174.619 154.36 174.366 154.437 174.024C154.519 173.683 154.995 171.844 155.866 168.508H157.042L154.97 176H153.624ZM163.729 176V171.153C163.729 170.543 163.59 170.087 163.312 169.786C163.034 169.485 162.599 169.335 162.006 169.335C161.218 169.335 160.641 169.549 160.277 169.978C159.917 170.406 159.737 171.108 159.737 172.083V176H158.602V165.363H159.737V168.583C159.737 168.97 159.718 169.292 159.682 169.547H159.75C159.974 169.187 160.29 168.904 160.701 168.699C161.115 168.49 161.587 168.385 162.116 168.385C163.032 168.385 163.718 168.604 164.173 169.041C164.634 169.474 164.864 170.164 164.864 171.112V176H163.729ZM170.567 176.137C169.459 176.137 168.584 175.799 167.942 175.125C167.304 174.451 166.985 173.514 166.985 172.315C166.985 171.108 167.281 170.148 167.873 169.438C168.47 168.727 169.27 168.371 170.273 168.371C171.211 168.371 171.954 168.681 172.501 169.301C173.048 169.916 173.321 170.729 173.321 171.741V172.459H168.16C168.183 173.339 168.404 174.006 168.823 174.462C169.247 174.918 169.842 175.146 170.608 175.146C171.414 175.146 172.212 174.977 173 174.64V175.651C172.599 175.825 172.219 175.948 171.859 176.021C171.503 176.098 171.072 176.137 170.567 176.137ZM170.259 169.321C169.657 169.321 169.177 169.517 168.817 169.909C168.461 170.301 168.252 170.843 168.188 171.536H172.105C172.105 170.821 171.945 170.274 171.626 169.896C171.307 169.513 170.851 169.321 170.259 169.321ZM178.881 168.371C179.214 168.371 179.512 168.398 179.776 168.453L179.619 169.506C179.309 169.438 179.036 169.403 178.799 169.403C178.193 169.403 177.673 169.649 177.24 170.142C176.812 170.634 176.598 171.247 176.598 171.98V176H175.463V168.508H176.399L176.529 169.896H176.584C176.862 169.408 177.197 169.032 177.589 168.768C177.981 168.503 178.411 168.371 178.881 168.371ZM184.543 176.137C183.435 176.137 182.56 175.799 181.918 175.125C181.28 174.451 180.961 173.514 180.961 172.315C180.961 171.108 181.257 170.148 181.849 169.438C182.446 168.727 183.246 168.371 184.249 168.371C185.188 168.371 185.93 168.681 186.477 169.301C187.024 169.916 187.298 170.729 187.298 171.741V172.459H182.137C182.159 173.339 182.38 174.006 182.8 174.462C183.223 174.918 183.818 175.146 184.584 175.146C185.39 175.146 186.188 174.977 186.976 174.64V175.651C186.575 175.825 186.195 175.948 185.835 176.021C185.479 176.098 185.049 176.137 184.543 176.137ZM184.235 169.321C183.634 169.321 183.153 169.517 182.793 169.909C182.437 170.301 182.228 170.843 182.164 171.536H186.081C186.081 170.821 185.921 170.274 185.602 169.896C185.283 169.513 184.828 169.321 184.235 169.321ZM192.086 168.508H193.303L194.944 172.78C195.304 173.756 195.527 174.46 195.614 174.893H195.668C195.728 174.66 195.851 174.264 196.038 173.703C196.229 173.138 196.849 171.406 197.897 168.508H199.114L195.894 177.039C195.575 177.882 195.201 178.479 194.773 178.83C194.349 179.186 193.827 179.363 193.207 179.363C192.861 179.363 192.519 179.325 192.182 179.247V178.338C192.433 178.393 192.713 178.42 193.023 178.42C193.802 178.42 194.358 177.982 194.691 177.107L195.108 176.041L192.086 168.508ZM206.997 172.247C206.997 173.468 206.69 174.423 206.074 175.111C205.459 175.795 204.609 176.137 203.525 176.137C202.855 176.137 202.26 175.979 201.74 175.665C201.221 175.351 200.82 174.899 200.537 174.312C200.255 173.724 200.113 173.035 200.113 172.247C200.113 171.026 200.419 170.076 201.029 169.396C201.64 168.713 202.488 168.371 203.572 168.371C204.621 168.371 205.452 168.72 206.068 169.417C206.687 170.114 206.997 171.058 206.997 172.247ZM201.289 172.247C201.289 173.204 201.481 173.933 201.863 174.435C202.246 174.936 202.809 175.187 203.552 175.187C204.295 175.187 204.858 174.938 205.24 174.441C205.628 173.94 205.821 173.209 205.821 172.247C205.821 171.295 205.628 170.572 205.24 170.08C204.858 169.583 204.29 169.335 203.538 169.335C202.795 169.335 202.235 169.579 201.857 170.066C201.478 170.554 201.289 171.281 201.289 172.247ZM210.26 168.508V173.368C210.26 173.979 210.399 174.435 210.677 174.735C210.955 175.036 211.39 175.187 211.982 175.187C212.766 175.187 213.338 174.972 213.698 174.544C214.063 174.116 214.245 173.416 214.245 172.445V168.508H215.38V176H214.443L214.279 174.995H214.218C213.985 175.364 213.662 175.647 213.247 175.843C212.837 176.039 212.368 176.137 211.839 176.137C210.927 176.137 210.244 175.92 209.788 175.487C209.337 175.054 209.111 174.362 209.111 173.409V168.508H210.26ZM227.948 176L226.574 171.604C226.487 171.336 226.325 170.725 226.088 169.772H226.034C225.851 170.57 225.692 171.185 225.555 171.618L224.14 176H222.828L220.784 168.508H221.973C222.456 170.39 222.823 171.823 223.074 172.808C223.329 173.792 223.475 174.455 223.511 174.797H223.566C223.616 174.537 223.696 174.202 223.805 173.792C223.919 173.377 224.017 173.049 224.099 172.808L225.473 168.508H226.704L228.044 172.808C228.299 173.591 228.472 174.25 228.563 174.783H228.618C228.636 174.619 228.684 174.366 228.761 174.024C228.843 173.683 229.32 171.844 230.19 168.508H231.366L229.295 176H227.948ZM239.393 172.247C239.393 173.468 239.085 174.423 238.47 175.111C237.855 175.795 237.005 176.137 235.92 176.137C235.25 176.137 234.656 175.979 234.136 175.665C233.617 175.351 233.216 174.899 232.933 174.312C232.65 173.724 232.509 173.035 232.509 172.247C232.509 171.026 232.815 170.076 233.425 169.396C234.036 168.713 234.884 168.371 235.968 168.371C237.016 168.371 237.848 168.72 238.463 169.417C239.083 170.114 239.393 171.058 239.393 172.247ZM233.685 172.247C233.685 173.204 233.876 173.933 234.259 174.435C234.642 174.936 235.205 175.187 235.948 175.187C236.691 175.187 237.253 174.938 237.636 174.441C238.024 173.94 238.217 173.209 238.217 172.247C238.217 171.295 238.024 170.572 237.636 170.08C237.253 169.583 236.686 169.335 235.934 169.335C235.191 169.335 234.631 169.579 234.252 170.066C233.874 170.554 233.685 171.281 233.685 172.247ZM245.007 168.371C245.34 168.371 245.638 168.398 245.903 168.453L245.745 169.506C245.435 169.438 245.162 169.403 244.925 169.403C244.319 169.403 243.799 169.649 243.366 170.142C242.938 170.634 242.724 171.247 242.724 171.98V176H241.589V168.508H242.526L242.655 169.896H242.71C242.988 169.408 243.323 169.032 243.715 168.768C244.107 168.503 244.538 168.371 245.007 168.371ZM248.625 172.165C248.821 171.887 249.119 171.522 249.521 171.071L251.94 168.508H253.287L250.252 171.7L253.499 176H252.125L249.479 172.459L248.625 173.197V176H247.504V165.363H248.625V171.003C248.625 171.254 248.607 171.641 248.57 172.165H248.625ZM254.895 175.275C254.895 174.97 254.964 174.74 255.1 174.585C255.242 174.425 255.442 174.346 255.702 174.346C255.966 174.346 256.171 174.425 256.317 174.585C256.468 174.74 256.543 174.97 256.543 175.275C256.543 175.572 256.468 175.799 256.317 175.959C256.167 176.118 255.962 176.198 255.702 176.198C255.47 176.198 255.276 176.128 255.121 175.986C254.971 175.84 254.895 175.604 254.895 175.275Z" fill="#737373"/>
</g>
<defs>
<filter id="filter0_d_964_18503" x="0" y="0" width="366" height="248" filterUnits="userSpaceOnUse" color-interpolation-filters="sRGB">
<feFlood flood-opacity="0" result="BackgroundImageFix"/>
<feColorMatrix in="SourceAlpha" type="matrix" values="0 0 0 0 0 0 0 0 0 0 0 0 0 0 0 0 0 0 127 0" result="hardAlpha"/>
<feOffset dy="13"/>
<feGaussianBlur stdDeviation="9.5"/>
<feColorMatrix type="matrix" values="0 0 0 0 0 0 0 0 0 0 0 0 0 0 0 0 0 0 0.07 0"/>
<feBlend mode="normal" in2="BackgroundImageFix" result="effect1_dropShadow_964_18503"/>
<feBlend mode="normal" in="SourceGraphic" in2="effect1_dropShadow_964_18503" result="shape"/>
</filter>
<clipPath id="clip0_964_18503">
<rect width="44" height="44" fill="white" transform="translate(61 43)"/>
</clipPath>
</defs>
</svg>
