<svg width="366" height="248" viewBox="0 0 366 248" fill="none" xmlns="http://www.w3.org/2000/svg">
<g filter="url(#filter0_d_964_18510)">
<rect width="328" height="210" transform="translate(19 6)" fill="white"/>
<g clip-path="url(#clip0_964_18510)">
<path d="M85.3222 79.0898H81.6786C81.5162 79.0898 81.3605 79.0264 81.2457 78.9135C81.1309 78.8007 81.0664 78.6477 81.0664 78.4881V49.4293C81.0664 48.7948 81.3228 48.1864 81.7793 47.7378C82.2358 47.2891 82.8549 47.0371 83.5004 47.0371C84.1459 47.0371 84.765 47.2891 85.2215 47.7378C85.6779 48.1864 85.9344 48.7948 85.9344 49.4293V78.4887C85.9342 78.6482 85.8696 78.8011 85.7549 78.9138C85.6401 79.0265 85.4845 79.0898 85.3222 79.0898V79.0898ZM82.2907 77.8865H84.71V49.4293C84.71 49.1139 84.5826 48.8116 84.3557 48.5886C84.1289 48.3657 83.8212 48.2404 83.5004 48.2404C83.1796 48.2404 82.8719 48.3657 82.645 48.5886C82.4182 48.8116 82.2907 49.1139 82.2907 49.4293V77.8865Z" fill="#295C7A"/>
<path d="M68.7464 55.103H66.6449C66.1462 55.0942 65.6711 54.8934 65.3216 54.5437C64.9722 54.194 64.7764 53.7235 64.7764 53.2334C64.7764 52.7433 64.9722 52.2727 65.3216 51.9231C65.6711 51.5734 66.1462 51.3726 66.6449 51.3638H68.4483C68.6107 51.3638 68.7664 51.4272 68.8812 51.54C68.996 51.6528 69.0605 51.8058 69.0605 51.9654C69.0605 52.125 68.996 52.278 68.8812 52.3908C68.7664 52.5037 68.6107 52.5671 68.4483 52.5671H66.6449C66.4686 52.5723 66.3013 52.6448 66.1785 52.7691C66.0556 52.8935 65.987 53.06 65.987 53.2334C65.987 53.4067 66.0556 53.5732 66.1785 53.6976C66.3013 53.822 66.4686 53.8945 66.6449 53.8997H68.7464C68.9088 53.8997 69.0645 53.9631 69.1793 54.0759C69.2941 54.1888 69.3586 54.3418 69.3586 54.5013C69.3586 54.6609 69.2941 54.8139 69.1793 54.9268C69.0645 55.0396 68.9088 55.103 68.7464 55.103Z" fill="#295C7A"/>
<path d="M81.6785 55.103H72.4501C72.2877 55.103 72.132 55.0396 72.0172 54.9268C71.9024 54.8139 71.8379 54.6609 71.8379 54.5013C71.8379 54.3418 71.9024 54.1888 72.0172 54.0759C72.132 53.9631 72.2877 53.8997 72.4501 53.8997H81.0663V52.5671H72.7476C72.5852 52.5671 72.4295 52.5037 72.3147 52.3908C72.1999 52.278 72.1354 52.125 72.1354 51.9654C72.1354 51.8058 72.1999 51.6528 72.3147 51.54C72.4295 51.4272 72.5852 51.3638 72.7476 51.3638H81.6785C81.8408 51.3638 81.9966 51.4272 82.1114 51.54C82.2262 51.6528 82.2907 51.8058 82.2907 51.9654V54.5013C82.2907 54.6609 82.2262 54.8139 82.1114 54.9268C81.9966 55.0396 81.8408 55.103 81.6785 55.103Z" fill="#295C7A"/>
<path d="M94.4171 55.103H85.3221C85.1598 55.103 85.0041 55.0396 84.8893 54.9268C84.7745 54.8139 84.71 54.6609 84.71 54.5013V51.9654C84.71 51.8058 84.7745 51.6528 84.8893 51.54C85.0041 51.4272 85.1598 51.3638 85.3221 51.3638H94.1196C94.282 51.3638 94.4377 51.4272 94.5525 51.54C94.6673 51.6528 94.7318 51.8058 94.7318 51.9654C94.7318 52.125 94.6673 52.278 94.5525 52.3908C94.4377 52.5037 94.282 52.5671 94.1196 52.5671H85.9343V53.8997H94.4171C94.5795 53.8997 94.7352 53.9631 94.85 54.0759C94.9648 54.1888 95.0293 54.3418 95.0293 54.5013C95.0293 54.6609 94.9648 54.8139 94.85 54.9268C94.7352 55.0396 94.5795 55.103 94.4171 55.103Z" fill="#295C7A"/>
<path d="M100.349 55.103H98.2538C98.0914 55.103 97.9357 55.0396 97.8209 54.9268C97.7061 54.8139 97.6416 54.6609 97.6416 54.5013C97.6416 54.3418 97.7061 54.1888 97.8209 54.0759C97.9357 53.9631 98.0914 53.8997 98.2538 53.8997H100.349C100.526 53.8945 100.693 53.822 100.816 53.6976C100.938 53.5732 101.007 53.4067 101.007 53.2334C101.007 53.06 100.938 52.8935 100.816 52.7691C100.693 52.6448 100.526 52.5723 100.349 52.5671H98.5556C98.3932 52.5671 98.2375 52.5037 98.1227 52.3908C98.0079 52.278 97.9434 52.125 97.9434 51.9654C97.9434 51.8058 98.0079 51.6528 98.1227 51.54C98.2375 51.4272 98.3932 51.3638 98.5556 51.3638H100.349C100.848 51.3726 101.323 51.5734 101.672 51.9231C102.022 52.2727 102.218 52.7433 102.218 53.2334C102.218 53.7235 102.022 54.194 101.672 54.5437C101.323 54.8934 100.848 55.0942 100.349 55.103Z" fill="#295C7A"/>
<path d="M91.2528 82.9618H75.7466C75.6537 82.9617 75.562 82.9409 75.4785 82.9008C75.395 82.8608 75.3218 82.8026 75.2646 82.7306C75.2074 82.6587 75.1676 82.5749 75.1482 82.4856C75.1288 82.3962 75.1304 82.3038 75.1528 82.2151C75.4052 81.0253 76.0552 79.9526 76.9994 79.1676C77.9437 78.3827 79.1278 77.9306 80.3636 77.8833H86.6359C87.8716 77.9306 89.0558 78.3827 90 79.1676C90.9442 79.9526 91.5942 81.0253 91.8466 82.2151C91.869 82.3038 91.8706 82.3962 91.8512 82.4856C91.8318 82.5749 91.792 82.6587 91.7348 82.7306C91.6776 82.8026 91.6045 82.8608 91.5209 82.9008C91.4374 82.9409 91.3457 82.9617 91.2528 82.9618V82.9618ZM76.5932 81.7585H90.4062C90.1148 80.9983 89.6016 80.3395 88.9309 79.8648C88.2602 79.39 87.4618 79.1203 86.6359 79.0896H80.3636C79.5376 79.1203 78.7393 79.39 78.0685 79.8648C77.3978 80.3395 76.8846 80.9983 76.5932 81.7585Z" fill="#295C7A"/>
<path d="M92.9114 82.9621H74.0897C73.9273 82.9621 73.7716 82.8987 73.6568 82.7859C73.542 82.673 73.4775 82.52 73.4775 82.3604C73.4775 82.2009 73.542 82.0478 73.6568 81.935C73.7716 81.8222 73.9273 81.7588 74.0897 81.7588H92.9114C93.0738 81.7588 93.2295 81.8222 93.3443 81.935C93.4591 82.0478 93.5236 82.2009 93.5236 82.3604C93.5236 82.52 93.4591 82.673 93.3443 82.7859C93.2295 82.8987 93.0738 82.9621 92.9114 82.9621Z" fill="#295C7A"/>
<path d="M104.313 70.1882H88.4944C88.392 70.1883 88.2911 70.1631 88.2011 70.1149C88.1111 70.0667 88.0349 69.9971 87.9794 69.9124C87.9239 69.8277 87.8909 69.7307 87.8835 69.6303C87.876 69.5298 87.8943 69.4292 87.9368 69.3375L94.6584 54.7933C94.6915 54.7212 94.7387 54.6562 94.7974 54.602C94.8561 54.5478 94.9252 54.5055 95.0005 54.4776C95.0759 54.4497 95.1561 54.4367 95.2366 54.4393C95.3171 54.4419 95.3962 54.4601 95.4696 54.4928C95.5429 54.5255 95.6089 54.5722 95.6639 54.63C95.7188 54.6879 95.7617 54.7558 95.7899 54.8299C95.818 54.9041 95.8311 54.983 95.8282 55.0621C95.8253 55.1412 95.8066 55.2189 95.7731 55.2909L89.4445 68.9849H103.361L97.0379 55.2909C97.0047 55.2189 96.9862 55.1412 96.9836 55.0622C96.9809 54.9832 96.9941 54.9045 97.0224 54.8305C97.0507 54.7566 97.0936 54.6888 97.1486 54.6311C97.2035 54.5734 97.2695 54.5269 97.3427 54.4943C97.416 54.4617 97.495 54.4435 97.5754 54.4409C97.6558 54.4383 97.7359 54.4513 97.8111 54.4791C97.8864 54.507 97.9553 54.5491 98.014 54.6031C98.0727 54.6571 98.12 54.722 98.1532 54.7939L104.868 69.3381C104.91 69.4295 104.929 69.5299 104.921 69.63C104.914 69.7301 104.881 69.8268 104.826 69.9113C104.771 69.9958 104.695 70.0654 104.606 70.1138C104.516 70.1622 104.416 70.1877 104.313 70.1882V70.1882Z" fill="#295C7A"/>
<path d="M96.4668 77.8625H96.3394C91.4378 77.8625 87.8799 74.3826 87.8799 69.5875C87.8799 69.4279 87.9444 69.2749 88.0592 69.1621C88.174 69.0492 88.3297 68.9858 88.492 68.9858H104.314C104.476 68.9858 104.632 69.0492 104.746 69.1621C104.861 69.2749 104.926 69.4279 104.926 69.5875C104.926 74.3856 101.368 77.8625 96.4668 77.8625ZM89.1256 70.1891C89.3987 74.0288 92.2875 76.6592 96.3394 76.6592H96.4668C100.518 76.6592 103.408 74.0288 103.68 70.1891H89.1256Z" fill="#295C7A"/>
<path d="M96.4036 55.9608C95.8083 55.9609 95.2264 55.7875 94.7314 55.4626C94.2364 55.1376 93.8506 54.6757 93.6228 54.1352C93.3949 53.5948 93.3353 53 93.4514 52.4262C93.5674 51.8524 93.8541 51.3254 94.275 50.9117C94.6959 50.498 95.2322 50.2163 95.816 50.1022C96.3998 49.9881 97.005 50.0467 97.5549 50.2707C98.1048 50.4946 98.5748 50.8738 98.9055 51.3603C99.2361 51.8468 99.4125 52.4187 99.4124 53.0037C99.4114 53.7877 99.0941 54.5393 98.53 55.0936C97.966 55.648 97.2013 55.9598 96.4036 55.9608V55.9608ZM96.4036 51.2493C96.0505 51.2492 95.7053 51.352 95.4117 51.5447C95.118 51.7374 94.8891 52.0113 94.7539 52.3319C94.6187 52.6525 94.5833 53.0052 94.6521 53.3456C94.7209 53.686 94.8909 53.9986 95.1405 54.244C95.3901 54.4895 95.7082 54.6566 96.0545 54.7243C96.4008 54.7921 96.7597 54.7574 97.0859 54.6246C97.4122 54.4918 97.691 54.267 97.8872 53.9785C98.0833 53.6899 98.188 53.3507 98.188 53.0037C98.1876 52.5387 97.9994 52.0928 97.6649 51.7639C97.3304 51.435 96.8768 51.2499 96.4036 51.2493Z" fill="#295C7A"/>
<path d="M78.5046 70.1884H62.6862C62.5838 70.1883 62.483 70.1631 62.3931 70.1148C62.3032 70.0666 62.227 69.997 62.1716 69.9123C62.1162 69.8277 62.0832 69.7307 62.0758 69.6303C62.0684 69.5299 62.0867 69.4293 62.1291 69.3376L68.852 54.7935C68.9191 54.6481 69.0422 54.5349 69.1943 54.4788C69.3464 54.4227 69.5149 54.4282 69.6628 54.4942C69.8107 54.5602 69.9259 54.6812 69.983 54.8306C70.0401 54.9801 70.0345 55.1457 69.9673 55.2911L63.6387 68.9851H77.5552L71.2321 55.2911C71.1969 55.2188 71.1768 55.1405 71.1728 55.0605C71.1689 54.9806 71.1812 54.9006 71.2091 54.8254C71.2369 54.7502 71.2798 54.6812 71.3352 54.6225C71.3905 54.5638 71.4572 54.5165 71.5314 54.4834C71.6056 54.4504 71.6857 54.4322 71.7671 54.4299C71.8485 54.4277 71.9296 54.4414 72.0055 54.4704C72.0815 54.4993 72.1508 54.5428 72.2094 54.5984C72.268 54.654 72.3147 54.7205 72.3468 54.7941L79.0623 69.3382C79.1046 69.4299 79.1228 69.5305 79.1153 69.6309C79.1078 69.7312 79.0748 69.8282 79.0193 69.9127C78.9638 69.9973 78.8876 70.0669 78.7977 70.115C78.7078 70.1632 78.607 70.1884 78.5046 70.1884V70.1884Z" fill="#295C7A"/>
<path d="M70.6605 77.8625H70.5332C65.6321 77.8625 62.0742 74.3856 62.0742 69.5875C62.0742 69.4279 62.1387 69.2749 62.2535 69.1621C62.3683 69.0492 62.524 68.9858 62.6864 68.9858H78.5079C78.6702 68.9858 78.8259 69.0492 78.9407 69.1621C79.0555 69.2749 79.12 69.4279 79.12 69.5875C79.12 74.3856 75.5621 77.8625 70.6605 77.8625V77.8625ZM63.32 70.1891C63.5924 74.0288 66.4818 76.6592 70.5332 76.6592H70.6605C74.7124 76.6592 77.6012 74.0288 77.8743 70.1891H63.32Z" fill="#295C7A"/>
<path d="M70.5973 55.9608C70.0021 55.9608 69.4202 55.7873 68.9253 55.4623C68.4304 55.1373 68.0447 54.6753 67.8169 54.1348C67.5892 53.5943 67.5296 52.9996 67.6458 52.4259C67.7619 51.8521 68.0486 51.3251 68.4695 50.9115C68.8905 50.4979 69.4268 50.2162 70.0106 50.1022C70.5944 49.9881 71.1995 50.0468 71.7494 50.2707C72.2993 50.4947 72.7692 50.8739 73.0998 51.3603C73.4305 51.8468 73.6068 52.4187 73.6067 53.0037C73.6058 53.7878 73.2884 54.5395 72.7242 55.0938C72.16 55.6482 71.3951 55.96 70.5973 55.9608V55.9608ZM70.5973 51.2493C70.2443 51.2493 69.8991 51.3522 69.6056 51.545C69.312 51.7377 69.0832 52.0117 68.9481 52.3323C68.813 52.6529 68.7776 53.0056 68.8465 53.346C68.9154 53.6863 69.0854 53.9989 69.3351 54.2442C69.5847 54.4896 69.9028 54.6567 70.2491 54.7244C70.5953 54.7921 70.9542 54.7573 71.2804 54.6246C71.6066 54.4918 71.8854 54.2669 72.0815 53.9784C72.2777 53.6899 72.3824 53.3507 72.3824 53.0037C72.3819 52.5386 72.1937 52.0926 71.859 51.7637C71.5244 51.4348 71.0706 51.2498 70.5973 51.2493V51.2493Z" fill="#295C7A"/>
</g>
<path d="M62.048 120.368V105.464L60.176 105.248V103.808H63.392C63.648 103.808 63.888 103.8 64.112 103.784C64.336 103.768 64.536 103.752 64.712 103.736C65.768 103.672 66.632 103.64 67.304 103.64C69.336 103.64 70.904 103.992 72.008 104.696C73.112 105.4 73.664 106.448 73.664 107.84C73.664 108.944 73.384 109.888 72.824 110.672C72.264 111.44 71.448 111.944 70.376 112.184C71.208 112.2 71.968 112.408 72.656 112.808C73.344 113.192 73.88 113.72 74.264 114.392C74.664 115.048 74.864 115.792 74.864 116.624C74.864 118.416 74.192 119.784 72.848 120.728C71.504 121.672 69.56 122.144 67.016 122.144C66.648 122.144 66.216 122.136 65.72 122.12C65.24 122.104 64.872 122.088 64.616 122.072C64.408 122.056 64.168 122.04 63.896 122.024C63.624 122.008 63.32 122 62.984 122H60.128V120.752L62.048 120.368ZM65.024 111.68C65.28 111.728 65.712 111.752 66.32 111.752H67.352C68.52 111.752 69.392 111.456 69.968 110.864C70.56 110.256 70.856 109.376 70.856 108.224C70.856 107.2 70.52 106.424 69.848 105.896C69.192 105.368 68.28 105.104 67.112 105.104C66.808 105.104 66.44 105.112 66.008 105.128C65.576 105.144 65.256 105.192 65.048 105.272L65.024 111.68ZM65 120.272C65.192 120.384 65.56 120.48 66.104 120.56C66.664 120.64 67.216 120.68 67.76 120.68C68.976 120.68 69.944 120.368 70.664 119.744C71.384 119.104 71.744 118.184 71.744 116.984C71.744 115.768 71.408 114.856 70.736 114.248C70.064 113.64 69.096 113.336 67.832 113.336H66.536C65.816 113.336 65.304 113.36 65 113.408V120.272ZM76.9373 110.504V109.4L80.4893 108.608L80.9693 108.824V116.912C80.9693 118.16 81.1213 119.056 81.4253 119.6C81.7453 120.128 82.3453 120.392 83.2253 120.392C83.7373 120.392 84.2653 120.28 84.8093 120.056C85.3693 119.832 85.7773 119.6 86.0333 119.36V111.152L84.5693 110.624V109.424L88.4813 108.608L88.9133 108.8V120.776H90.3053V121.832C90.0653 121.976 89.6733 122.104 89.1293 122.216C88.5853 122.328 88.1133 122.384 87.7133 122.384C87.2813 122.384 86.9373 122.288 86.6813 122.096C86.4413 121.92 86.3213 121.648 86.3213 121.28V120.488C85.7613 121.032 85.1053 121.464 84.3533 121.784C83.6013 122.104 82.8813 122.264 82.1933 122.264C81.0413 122.264 80.1693 122.056 79.5773 121.64C79.0013 121.208 78.6173 120.616 78.4253 119.864C78.2333 119.112 78.1293 118.12 78.1133 116.888V111.032L76.9373 110.504ZM94.3099 118.424L94.9099 119.816C95.3419 120.2 95.7419 120.48 96.1099 120.656C96.4779 120.816 96.9339 120.896 97.4779 120.896C98.2619 120.896 98.8779 120.736 99.3259 120.416C99.7739 120.08 99.9979 119.592 99.9979 118.952C99.9819 118.472 99.7579 118.08 99.3259 117.776C98.9099 117.472 98.2539 117.12 97.3579 116.72L96.7579 116.456C95.5579 115.88 94.6219 115.264 93.9499 114.608C93.2779 113.952 92.9419 113.144 92.9419 112.184C92.9419 111.384 93.1979 110.704 93.7099 110.144C94.2219 109.584 94.8699 109.168 95.6539 108.896C96.4539 108.624 97.2699 108.488 98.1019 108.488C98.8059 108.488 99.5179 108.568 100.238 108.728C100.958 108.872 101.534 109.048 101.966 109.256V112.04H100.598L100.046 110.672C99.4859 110.08 98.8459 109.784 98.1259 109.784C97.4379 109.784 96.8779 109.928 96.4459 110.216C96.0299 110.488 95.8219 110.904 95.8219 111.464C95.8219 111.88 95.9579 112.248 96.2299 112.568C96.5179 112.872 96.8379 113.12 97.1899 113.312C97.5579 113.504 98.1899 113.816 99.0859 114.248C99.9179 114.632 100.574 114.976 101.054 115.28C101.55 115.584 101.966 115.976 102.302 116.456C102.638 116.92 102.806 117.496 102.806 118.184C102.806 119.528 102.286 120.552 101.246 121.256C100.206 121.944 98.8779 122.288 97.2619 122.288C96.5259 122.288 95.7659 122.192 94.9819 122C94.2139 121.824 93.5419 121.576 92.9659 121.256V118.424H94.3099ZM108.199 102.344C108.791 102.344 109.239 102.504 109.543 102.824C109.863 103.128 110.023 103.544 110.023 104.072C110.023 104.664 109.807 105.152 109.375 105.536C108.943 105.92 108.439 106.112 107.863 106.112C107.367 106.112 106.935 105.952 106.567 105.632C106.215 105.312 106.039 104.896 106.039 104.384C106.039 103.824 106.263 103.344 106.711 102.944C107.159 102.544 107.655 102.344 108.199 102.344ZM109.759 108.848V120.512L111.583 120.776V122H105.031V120.776L106.879 120.512V111.752L105.295 110.6V109.736L109.063 108.608L109.759 108.848ZM115.181 120.536V111.656L113.549 110.672V109.664L117.125 108.608L117.773 108.824V110.528C118.381 109.984 119.149 109.528 120.077 109.16C121.021 108.792 121.901 108.608 122.717 108.608C124.093 108.608 125.053 109.04 125.597 109.904C126.157 110.768 126.437 112.144 126.437 114.032V120.536L128.213 120.776V122H121.733V120.776L123.485 120.512V114.488C123.485 113.544 123.421 112.808 123.293 112.28C123.165 111.736 122.925 111.336 122.573 111.08C122.221 110.824 121.709 110.696 121.037 110.696C120.621 110.696 120.141 110.776 119.597 110.936C119.069 111.096 118.589 111.336 118.157 111.656V120.512L119.789 120.776V122H113.645V120.776L115.181 120.536ZM136.793 108.488C138.329 108.488 139.521 108.944 140.369 109.856C141.233 110.768 141.665 112.048 141.665 113.696C141.665 114.4 141.609 115.064 141.497 115.688H133.025C133.057 117.176 133.433 118.336 134.153 119.168C134.889 120 135.929 120.416 137.273 120.416C137.865 120.416 138.497 120.352 139.169 120.224C139.841 120.08 140.385 119.904 140.801 119.696L141.305 120.848C140.793 121.296 140.049 121.656 139.073 121.928C138.097 122.184 137.129 122.312 136.169 122.312C134.217 122.296 132.705 121.688 131.633 120.488C130.561 119.288 130.025 117.656 130.025 115.592C130.025 114.232 130.313 113.016 130.889 111.944C131.465 110.856 132.265 110.008 133.289 109.4C134.313 108.792 135.481 108.488 136.793 108.488ZM136.241 109.904C135.361 109.904 134.633 110.264 134.057 110.984C133.497 111.704 133.161 112.744 133.049 114.104H138.665C138.681 113.928 138.689 113.664 138.689 113.312C138.689 112.128 138.433 111.296 137.921 110.816C137.601 110.208 137.041 109.904 136.241 109.904ZM145.897 118.424L146.497 119.816C146.929 120.2 147.329 120.48 147.697 120.656C148.065 120.816 148.521 120.896 149.065 120.896C149.849 120.896 150.465 120.736 150.913 120.416C151.361 120.08 151.585 119.592 151.585 118.952C151.569 118.472 151.345 118.08 150.913 117.776C150.497 117.472 149.841 117.12 148.945 116.72L148.345 116.456C147.145 115.88 146.209 115.264 145.537 114.608C144.865 113.952 144.529 113.144 144.529 112.184C144.529 111.384 144.785 110.704 145.297 110.144C145.809 109.584 146.457 109.168 147.241 108.896C148.041 108.624 148.857 108.488 149.689 108.488C150.393 108.488 151.105 108.568 151.825 108.728C152.545 108.872 153.121 109.048 153.553 109.256V112.04H152.185L151.633 110.672C151.073 110.08 150.433 109.784 149.713 109.784C149.025 109.784 148.465 109.928 148.033 110.216C147.617 110.488 147.409 110.904 147.409 111.464C147.409 111.88 147.545 112.248 147.817 112.568C148.105 112.872 148.425 113.12 148.777 113.312C149.145 113.504 149.777 113.816 150.673 114.248C151.505 114.632 152.161 114.976 152.641 115.28C153.137 115.584 153.553 115.976 153.889 116.456C154.225 116.92 154.393 117.496 154.393 118.184C154.393 119.528 153.873 120.552 152.833 121.256C151.793 121.944 150.465 122.288 148.849 122.288C148.113 122.288 147.353 122.192 146.569 122C145.801 121.824 145.129 121.576 144.553 121.256V118.424H145.897ZM158.466 118.424L159.066 119.816C159.498 120.2 159.898 120.48 160.266 120.656C160.634 120.816 161.09 120.896 161.634 120.896C162.418 120.896 163.034 120.736 163.482 120.416C163.93 120.08 164.154 119.592 164.154 118.952C164.138 118.472 163.914 118.08 163.482 117.776C163.066 117.472 162.41 117.12 161.514 116.72L160.914 116.456C159.714 115.88 158.778 115.264 158.106 114.608C157.434 113.952 157.098 113.144 157.098 112.184C157.098 111.384 157.354 110.704 157.866 110.144C158.378 109.584 159.026 109.168 159.81 108.896C160.61 108.624 161.426 108.488 162.258 108.488C162.962 108.488 163.674 108.568 164.394 108.728C165.114 108.872 165.69 109.048 166.122 109.256V112.04H164.754L164.202 110.672C163.642 110.08 163.002 109.784 162.282 109.784C161.594 109.784 161.034 109.928 160.602 110.216C160.186 110.488 159.978 110.904 159.978 111.464C159.978 111.88 160.114 112.248 160.386 112.568C160.674 112.872 160.994 113.12 161.346 113.312C161.714 113.504 162.346 113.816 163.242 114.248C164.074 114.632 164.73 114.976 165.21 115.28C165.706 115.584 166.122 115.976 166.458 116.456C166.794 116.92 166.962 117.496 166.962 118.184C166.962 119.528 166.442 120.552 165.402 121.256C164.362 121.944 163.034 122.288 161.418 122.288C160.682 122.288 159.922 122.192 159.138 122C158.37 121.824 157.698 121.576 157.122 121.256V118.424H158.466ZM176.503 120.392V105.608L174.703 105.416V103.808H181.591V105.416L179.527 105.632L179.503 120.464L184.999 120.128L186.631 117.32L187.951 117.896L187.159 122H174.655V120.752L176.503 120.392ZM195.208 108.608C196.76 108.608 197.96 108.952 198.808 109.64C199.656 110.328 200.08 111.48 200.08 113.096V120.776H201.568V121.736C201.28 121.912 200.904 122.048 200.44 122.144C199.976 122.256 199.52 122.312 199.072 122.312C198.496 122.312 198.08 122.2 197.824 121.976C197.568 121.736 197.432 121.352 197.416 120.824C196.536 121.816 195.296 122.312 193.696 122.312C192.88 122.312 192.152 122.16 191.512 121.856C190.872 121.536 190.376 121.096 190.024 120.536C189.672 119.976 189.496 119.344 189.496 118.64C189.496 117.584 189.888 116.712 190.672 116.024C191.456 115.336 192.432 114.84 193.6 114.536C194.768 114.216 195.944 114.056 197.128 114.056V113.336C197.128 112.248 196.88 111.488 196.384 111.056C195.888 110.624 195.152 110.408 194.176 110.408C193.648 110.408 193.048 110.496 192.376 110.672C191.704 110.848 191.12 111.072 190.624 111.344L190.072 110.024C190.616 109.576 191.392 109.232 192.4 108.992C193.424 108.736 194.36 108.608 195.208 108.608ZM197.128 115.496C195.928 115.496 194.848 115.712 193.888 116.144C192.944 116.576 192.472 117.264 192.472 118.208C192.472 119.76 193.296 120.536 194.944 120.536C195.328 120.536 195.72 120.456 196.12 120.296C196.536 120.136 196.864 119.944 197.104 119.72L197.128 115.496ZM202.015 110.432V108.896H207.679V110.432L206.239 110.72L208.111 117.2L208.687 119.504L209.119 117.32L211.303 108.896H213.847L216.055 117.296L216.607 119.552L218.743 110.72L217.279 110.432V108.896H222.415V110.432L220.879 110.744L217.567 122.192H214.831L212.575 114.344L212.143 112.328L211.711 114.344L209.623 122.192H207.031L203.263 110.696L202.015 110.432Z" fill="#252B42"/>
<path d="M58.918 158.632C58.4896 158.632 58.1523 158.57 57.9062 158.447V157.456C58.2298 157.547 58.5671 157.593 58.918 157.593C59.3691 157.593 59.7109 157.456 59.9434 157.183C60.1803 156.909 60.2988 156.515 60.2988 156V146.006H61.4609V155.904C61.4609 156.77 61.2422 157.44 60.8047 157.914C60.3672 158.393 59.7383 158.632 58.918 158.632ZM65.2156 148.508V153.368C65.2156 153.979 65.3546 154.435 65.6326 154.735C65.9106 155.036 66.3458 155.187 66.9383 155.187C67.7221 155.187 68.2941 154.972 68.6541 154.544C69.0187 154.116 69.201 153.416 69.201 152.445V148.508H70.3357V156H69.3992L69.2352 154.995H69.1736C68.9412 155.364 68.6176 155.647 68.2029 155.843C67.7928 156.039 67.3234 156.137 66.7947 156.137C65.8833 156.137 65.1997 155.92 64.7439 155.487C64.2928 155.054 64.0672 154.362 64.0672 153.409V148.508H65.2156ZM77.7818 153.956C77.7818 154.653 77.5221 155.191 77.0025 155.569C76.483 155.948 75.7538 156.137 74.815 156.137C73.8215 156.137 73.0468 155.979 72.4908 155.665V154.612C72.8508 154.795 73.2359 154.938 73.6461 155.043C74.0608 155.148 74.4596 155.2 74.8424 155.2C75.4348 155.2 75.8906 155.107 76.2096 154.92C76.5286 154.729 76.6881 154.439 76.6881 154.052C76.6881 153.76 76.5605 153.512 76.3053 153.307C76.0546 153.097 75.5624 152.851 74.8287 152.568C74.1314 152.309 73.6347 152.083 73.3385 151.892C73.0468 151.696 72.8281 151.475 72.6822 151.229C72.541 150.982 72.4703 150.688 72.4703 150.347C72.4703 149.736 72.7187 149.255 73.2154 148.904C73.7122 148.549 74.3935 148.371 75.2594 148.371C76.066 148.371 76.8544 148.535 77.6246 148.863L77.2213 149.786C76.4693 149.476 75.788 149.321 75.1773 149.321C74.6396 149.321 74.234 149.406 73.9605 149.574C73.6871 149.743 73.5504 149.975 73.5504 150.271C73.5504 150.472 73.6005 150.643 73.7008 150.784C73.8056 150.925 73.9719 151.06 74.1998 151.188C74.4277 151.315 74.8652 151.5 75.5123 151.741C76.401 152.065 77.0003 152.391 77.3102 152.719C77.6246 153.047 77.7818 153.459 77.7818 153.956ZM82.2543 155.2C82.4548 155.2 82.6485 155.187 82.8354 155.159C83.0222 155.127 83.1703 155.095 83.2797 155.063V155.932C83.1566 155.991 82.9743 156.039 82.7328 156.075C82.4958 156.116 82.2816 156.137 82.0902 156.137C80.641 156.137 79.9164 155.373 79.9164 153.847V149.39H78.8432V148.843L79.9164 148.371L80.3949 146.771H81.0512V148.508H83.225V149.39H81.0512V153.799C81.0512 154.25 81.1583 154.596 81.3725 154.838C81.5867 155.079 81.8806 155.2 82.2543 155.2ZM91.2402 155.2C91.4408 155.2 91.6344 155.187 91.8213 155.159C92.0081 155.127 92.1562 155.095 92.2656 155.063V155.932C92.1426 155.991 91.9603 156.039 91.7188 156.075C91.4818 156.116 91.2676 156.137 91.0762 156.137C89.627 156.137 88.9023 155.373 88.9023 153.847V149.39H87.8291V148.843L88.9023 148.371L89.3809 146.771H90.0371V148.508H92.2109V149.39H90.0371V153.799C90.0371 154.25 90.1442 154.596 90.3584 154.838C90.5726 155.079 90.8665 155.2 91.2402 155.2ZM92.7801 148.508H93.9969L95.6375 152.78C95.9975 153.756 96.2208 154.46 96.3074 154.893H96.3621C96.4214 154.66 96.5444 154.264 96.7313 153.703C96.9227 153.138 97.5424 151.406 98.5906 148.508H99.8074L96.5877 157.039C96.2687 157.882 95.895 158.479 95.4666 158.83C95.0428 159.186 94.521 159.363 93.9012 159.363C93.5548 159.363 93.213 159.325 92.8758 159.247V158.338C93.1264 158.393 93.4067 158.42 93.7166 158.42C94.4959 158.42 95.0519 157.982 95.3846 157.107L95.8016 156.041L92.7801 148.508ZM104.711 156.137C104.223 156.137 103.776 156.048 103.371 155.87C102.97 155.688 102.632 155.41 102.359 155.036H102.277C102.332 155.474 102.359 155.888 102.359 156.28V159.363H101.224V148.508H102.147L102.304 149.533H102.359C102.651 149.123 102.99 148.827 103.378 148.645C103.765 148.462 104.209 148.371 104.711 148.371C105.704 148.371 106.47 148.711 107.007 149.39C107.55 150.069 107.821 151.021 107.821 152.247C107.821 153.478 107.545 154.435 106.994 155.118C106.447 155.797 105.686 156.137 104.711 156.137ZM104.546 149.335C103.781 149.335 103.227 149.547 102.885 149.971C102.544 150.395 102.368 151.069 102.359 151.994V152.247C102.359 153.3 102.534 154.054 102.885 154.51C103.236 154.961 103.799 155.187 104.574 155.187C105.221 155.187 105.727 154.924 106.091 154.4C106.461 153.876 106.645 153.154 106.645 152.233C106.645 151.299 106.461 150.584 106.091 150.087C105.727 149.586 105.212 149.335 104.546 149.335ZM113.175 156.137C112.068 156.137 111.193 155.799 110.55 155.125C109.912 154.451 109.593 153.514 109.593 152.315C109.593 151.108 109.889 150.148 110.482 149.438C111.079 148.727 111.879 148.371 112.881 148.371C113.82 148.371 114.563 148.681 115.11 149.301C115.657 149.916 115.93 150.729 115.93 151.741V152.459H110.769C110.792 153.339 111.013 154.006 111.432 154.462C111.856 154.918 112.451 155.146 113.216 155.146C114.023 155.146 114.82 154.977 115.609 154.64V155.651C115.208 155.825 114.827 155.948 114.467 156.021C114.112 156.098 113.681 156.137 113.175 156.137ZM112.868 149.321C112.266 149.321 111.785 149.517 111.425 149.909C111.07 150.301 110.86 150.843 110.796 151.536H114.713C114.713 150.821 114.554 150.274 114.235 149.896C113.916 149.513 113.46 149.321 112.868 149.321ZM128.026 156L126.652 151.604C126.566 151.336 126.404 150.725 126.167 149.772H126.112C125.93 150.57 125.771 151.185 125.634 151.618L124.219 156H122.906L120.862 148.508H122.052C122.535 150.39 122.902 151.823 123.152 152.808C123.408 153.792 123.553 154.455 123.59 154.797H123.645C123.695 154.537 123.774 154.202 123.884 153.792C123.998 153.377 124.096 153.049 124.178 152.808L125.552 148.508H126.782L128.122 152.808C128.377 153.591 128.55 154.25 128.642 154.783H128.696C128.715 154.619 128.762 154.366 128.84 154.024C128.922 153.683 129.398 151.844 130.269 148.508H131.444L129.373 156H128.026ZM138.132 156V151.153C138.132 150.543 137.993 150.087 137.715 149.786C137.437 149.485 137.001 149.335 136.409 149.335C135.621 149.335 135.044 149.549 134.679 149.978C134.319 150.406 134.139 151.108 134.139 152.083V156H133.005V145.363H134.139V148.583C134.139 148.97 134.121 149.292 134.085 149.547H134.153C134.376 149.187 134.693 148.904 135.103 148.699C135.518 148.49 135.99 148.385 136.518 148.385C137.434 148.385 138.12 148.604 138.576 149.041C139.036 149.474 139.266 150.164 139.266 151.112V156H138.132ZM146.412 156L146.186 154.934H146.131C145.758 155.403 145.384 155.722 145.01 155.891C144.641 156.055 144.179 156.137 143.623 156.137C142.88 156.137 142.296 155.945 141.873 155.562C141.453 155.18 141.244 154.635 141.244 153.929C141.244 152.416 142.454 151.623 144.874 151.55L146.145 151.509V151.044C146.145 150.456 146.018 150.023 145.762 149.745C145.512 149.463 145.108 149.321 144.552 149.321C143.928 149.321 143.222 149.513 142.433 149.896L142.085 149.027C142.454 148.827 142.857 148.67 143.295 148.556C143.737 148.442 144.179 148.385 144.621 148.385C145.514 148.385 146.175 148.583 146.603 148.979C147.036 149.376 147.253 150.012 147.253 150.887V156H146.412ZM143.848 155.2C144.555 155.2 145.108 155.007 145.509 154.619C145.915 154.232 146.118 153.689 146.118 152.992V152.315L144.983 152.363C144.081 152.395 143.429 152.536 143.028 152.787C142.631 153.033 142.433 153.418 142.433 153.942C142.433 154.353 142.556 154.665 142.802 154.879C143.053 155.093 143.402 155.2 143.848 155.2ZM152.217 155.2C152.418 155.2 152.611 155.187 152.798 155.159C152.985 155.127 153.133 155.095 153.243 155.063V155.932C153.12 155.991 152.937 156.039 152.696 156.075C152.459 156.116 152.245 156.137 152.053 156.137C150.604 156.137 149.879 155.373 149.879 153.847V149.39H148.806V148.843L149.879 148.371L150.358 146.771H151.014V148.508H153.188V149.39H151.014V153.799C151.014 154.25 151.121 154.596 151.335 154.838C151.55 155.079 151.843 155.2 152.217 155.2ZM155.924 146.006L155.651 149.615H154.933L154.653 146.006H155.924ZM163.083 153.956C163.083 154.653 162.823 155.191 162.304 155.569C161.784 155.948 161.055 156.137 160.116 156.137C159.123 156.137 158.348 155.979 157.792 155.665V154.612C158.152 154.795 158.537 154.938 158.947 155.043C159.362 155.148 159.761 155.2 160.144 155.2C160.736 155.2 161.192 155.107 161.511 154.92C161.83 154.729 161.989 154.439 161.989 154.052C161.989 153.76 161.862 153.512 161.606 153.307C161.356 153.097 160.864 152.851 160.13 152.568C159.433 152.309 158.936 152.083 158.64 151.892C158.348 151.696 158.129 151.475 157.983 151.229C157.842 150.982 157.771 150.688 157.771 150.347C157.771 149.736 158.02 149.255 158.517 148.904C159.013 148.549 159.695 148.371 160.561 148.371C161.367 148.371 162.156 148.535 162.926 148.863L162.522 149.786C161.771 149.476 161.089 149.321 160.479 149.321C159.941 149.321 159.535 149.406 159.262 149.574C158.988 149.743 158.852 149.975 158.852 150.271C158.852 150.472 158.902 150.643 159.002 150.784C159.107 150.925 159.273 151.06 159.501 151.188C159.729 151.315 160.166 151.5 160.813 151.741C161.702 152.065 162.301 152.391 162.611 152.719C162.926 153.047 163.083 153.459 163.083 153.956ZM175.439 152.247C175.439 153.468 175.131 154.423 174.516 155.111C173.901 155.795 173.051 156.137 171.966 156.137C171.296 156.137 170.702 155.979 170.182 155.665C169.663 155.351 169.262 154.899 168.979 154.312C168.697 153.724 168.555 153.035 168.555 152.247C168.555 151.026 168.861 150.076 169.471 149.396C170.082 148.713 170.93 148.371 172.014 148.371C173.062 148.371 173.894 148.72 174.509 149.417C175.129 150.114 175.439 151.058 175.439 152.247ZM169.731 152.247C169.731 153.204 169.922 153.933 170.305 154.435C170.688 154.936 171.251 155.187 171.994 155.187C172.737 155.187 173.299 154.938 173.682 154.441C174.07 153.94 174.263 153.209 174.263 152.247C174.263 151.295 174.07 150.572 173.682 150.08C173.299 149.583 172.732 149.335 171.98 149.335C171.237 149.335 170.677 149.579 170.298 150.066C169.92 150.554 169.731 151.281 169.731 152.247ZM182.762 156V151.153C182.762 150.543 182.623 150.087 182.345 149.786C182.067 149.485 181.632 149.335 181.039 149.335C180.256 149.335 179.681 149.547 179.317 149.971C178.952 150.395 178.77 151.094 178.77 152.069V156H177.635V148.508H178.558L178.743 149.533H178.797C179.03 149.164 179.356 148.879 179.775 148.679C180.194 148.474 180.661 148.371 181.176 148.371C182.079 148.371 182.758 148.59 183.213 149.027C183.669 149.46 183.897 150.155 183.897 151.112V156H182.762ZM189.082 148.508H190.299L191.939 152.78C192.299 153.756 192.523 154.46 192.609 154.893H192.664C192.723 154.66 192.846 154.264 193.033 153.703C193.225 153.138 193.844 151.406 194.893 148.508H196.109L192.89 157.039C192.571 157.882 192.197 158.479 191.769 158.83C191.345 159.186 190.823 159.363 190.203 159.363C189.857 159.363 189.515 159.325 189.178 159.247V158.338C189.428 158.393 189.709 158.42 190.019 158.42C190.798 158.42 191.354 157.982 191.687 157.107L192.104 156.041L189.082 148.508ZM203.993 152.247C203.993 153.468 203.685 154.423 203.07 155.111C202.455 155.795 201.605 156.137 200.52 156.137C199.85 156.137 199.256 155.979 198.736 155.665C198.217 155.351 197.816 154.899 197.533 154.312C197.25 153.724 197.109 153.035 197.109 152.247C197.109 151.026 197.415 150.076 198.025 149.396C198.636 148.713 199.484 148.371 200.568 148.371C201.616 148.371 202.448 148.72 203.063 149.417C203.683 150.114 203.993 151.058 203.993 152.247ZM198.285 152.247C198.285 153.204 198.476 153.933 198.859 154.435C199.242 154.936 199.805 155.187 200.548 155.187C201.29 155.187 201.853 154.938 202.236 154.441C202.623 153.94 202.817 153.209 202.817 152.247C202.817 151.295 202.623 150.572 202.236 150.08C201.853 149.583 201.286 149.335 200.534 149.335C199.791 149.335 199.231 149.579 198.852 150.066C198.474 150.554 198.285 151.281 198.285 152.247ZM207.255 148.508V153.368C207.255 153.979 207.394 154.435 207.672 154.735C207.95 155.036 208.386 155.187 208.978 155.187C209.762 155.187 210.334 154.972 210.694 154.544C211.059 154.116 211.241 153.416 211.241 152.445V148.508H212.376V156H211.439L211.275 154.995H211.213C210.981 155.364 210.657 155.647 210.243 155.843C209.833 156.039 209.363 156.137 208.835 156.137C207.923 156.137 207.24 155.92 206.784 155.487C206.333 155.054 206.107 154.362 206.107 153.409V148.508H207.255ZM218.407 148.371C218.739 148.371 219.038 148.398 219.302 148.453L219.145 149.506C218.835 149.438 218.562 149.403 218.325 149.403C217.718 149.403 217.199 149.649 216.766 150.142C216.338 150.634 216.123 151.247 216.123 151.98V156H214.989V148.508H215.925L216.055 149.896H216.11C216.388 149.408 216.723 149.032 217.115 148.768C217.507 148.503 217.937 148.371 218.407 148.371ZM234.29 156V151.126C234.29 150.529 234.162 150.082 233.907 149.786C233.652 149.485 233.256 149.335 232.718 149.335C232.011 149.335 231.49 149.538 231.152 149.943C230.815 150.349 230.646 150.973 230.646 151.816V156H229.512V151.126C229.512 150.529 229.384 150.082 229.129 149.786C228.874 149.485 228.475 149.335 227.933 149.335C227.222 149.335 226.7 149.549 226.367 149.978C226.039 150.401 225.875 151.099 225.875 152.069V156H224.74V148.508H225.663L225.848 149.533H225.902C226.117 149.169 226.417 148.884 226.805 148.679C227.197 148.474 227.634 148.371 228.117 148.371C229.288 148.371 230.054 148.795 230.414 149.643H230.469C230.692 149.251 231.016 148.941 231.439 148.713C231.863 148.485 232.346 148.371 232.889 148.371C233.736 148.371 234.37 148.59 234.789 149.027C235.213 149.46 235.425 150.155 235.425 151.112V156H234.29ZM239.104 156H237.97V148.508H239.104V156ZM237.874 146.478C237.874 146.218 237.938 146.029 238.065 145.91C238.193 145.787 238.352 145.726 238.544 145.726C238.726 145.726 238.883 145.787 239.015 145.91C239.148 146.033 239.214 146.222 239.214 146.478C239.214 146.733 239.148 146.924 239.015 147.052C238.883 147.175 238.726 147.236 238.544 147.236C238.352 147.236 238.193 147.175 238.065 147.052C237.938 146.924 237.874 146.733 237.874 146.478ZM246.837 156V151.153C246.837 150.543 246.698 150.087 246.421 149.786C246.143 149.485 245.707 149.335 245.115 149.335C244.331 149.335 243.757 149.547 243.392 149.971C243.028 150.395 242.845 151.094 242.845 152.069V156H241.711V148.508H242.633L242.818 149.533H242.873C243.105 149.164 243.431 148.879 243.85 148.679C244.269 148.474 244.737 148.371 245.252 148.371C246.154 148.371 246.833 148.59 247.289 149.027C247.744 149.46 247.972 150.155 247.972 151.112V156H246.837ZM255.61 154.995H255.548C255.024 155.756 254.24 156.137 253.197 156.137C252.217 156.137 251.454 155.802 250.907 155.132C250.364 154.462 250.093 153.509 250.093 152.274C250.093 151.039 250.367 150.08 250.913 149.396C251.46 148.713 252.221 148.371 253.197 148.371C254.213 148.371 254.992 148.74 255.535 149.479H255.623L255.576 148.938L255.548 148.412V145.363H256.683V156H255.76L255.61 154.995ZM253.34 155.187C254.115 155.187 254.676 154.977 255.022 154.558C255.373 154.134 255.548 153.452 255.548 152.514V152.274C255.548 151.213 255.371 150.456 255.015 150.005C254.664 149.549 254.101 149.321 253.327 149.321C252.661 149.321 252.151 149.581 251.795 150.101C251.444 150.616 251.269 151.345 251.269 152.288C251.269 153.245 251.444 153.967 251.795 154.455C252.146 154.943 252.661 155.187 253.34 155.187ZM64.8105 176L64.585 174.934H64.5303C64.1566 175.403 63.7829 175.722 63.4092 175.891C63.04 176.055 62.5775 176.137 62.0215 176.137C61.2786 176.137 60.6953 175.945 60.2715 175.562C59.8522 175.18 59.6426 174.635 59.6426 173.929C59.6426 172.416 60.8525 171.623 63.2725 171.55L64.5439 171.509V171.044C64.5439 170.456 64.4163 170.023 64.1611 169.745C63.9105 169.463 63.5072 169.321 62.9512 169.321C62.3268 169.321 61.6204 169.513 60.832 169.896L60.4834 169.027C60.8525 168.827 61.2559 168.67 61.6934 168.556C62.1354 168.442 62.5775 168.385 63.0195 168.385C63.9128 168.385 64.5736 168.583 65.002 168.979C65.4349 169.376 65.6514 170.012 65.6514 170.887V176H64.8105ZM62.2471 175.2C62.9535 175.2 63.5072 175.007 63.9082 174.619C64.3138 174.232 64.5166 173.689 64.5166 172.992V172.315L63.3818 172.363C62.4795 172.395 61.8278 172.536 61.4268 172.787C61.0303 173.033 60.832 173.418 60.832 173.942C60.832 174.353 60.9551 174.665 61.2012 174.879C61.4518 175.093 61.8005 175.2 62.2471 175.2ZM73.323 176V171.153C73.323 170.543 73.184 170.087 72.9061 169.786C72.6281 169.485 72.1928 169.335 71.6004 169.335C70.8165 169.335 70.2423 169.547 69.8777 169.971C69.5132 170.395 69.3309 171.094 69.3309 172.069V176H68.1961V168.508H69.1189L69.3035 169.533H69.3582C69.5906 169.164 69.9165 168.879 70.3357 168.679C70.755 168.474 71.2221 168.371 71.7371 168.371C72.6395 168.371 73.3185 168.59 73.7742 169.027C74.2299 169.46 74.4578 170.155 74.4578 171.112V176H73.323ZM82.0953 174.995H82.0338C81.5097 175.756 80.7258 176.137 79.6822 176.137C78.7024 176.137 77.9391 175.802 77.3922 175.132C76.8499 174.462 76.5787 173.509 76.5787 172.274C76.5787 171.039 76.8521 170.08 77.399 169.396C77.9459 168.713 78.707 168.371 79.6822 168.371C80.6985 168.371 81.4778 168.74 82.0201 169.479H82.109L82.0611 168.938L82.0338 168.412V165.363H83.1686V176H82.2457L82.0953 174.995ZM79.8258 175.187C80.6005 175.187 81.1611 174.977 81.5074 174.558C81.8583 174.134 82.0338 173.452 82.0338 172.514V172.274C82.0338 171.213 81.8561 170.456 81.5006 170.005C81.1497 169.549 80.5868 169.321 79.8121 169.321C79.1467 169.321 78.6363 169.581 78.2809 170.101C77.9299 170.616 77.7545 171.345 77.7545 172.288C77.7545 173.245 77.9299 173.967 78.2809 174.455C78.6318 174.943 79.1467 175.187 79.8258 175.187ZM95.7365 176L94.3625 171.604C94.2759 171.336 94.1141 170.725 93.8771 169.772H93.8225C93.6402 170.57 93.4807 171.185 93.3439 171.618L91.9289 176H90.6164L88.5725 168.508H89.7619C90.245 170.39 90.6118 171.823 90.8625 172.808C91.1177 173.792 91.2635 174.455 91.3 174.797H91.3547C91.4048 174.537 91.4846 174.202 91.5939 173.792C91.7079 173.377 91.8059 173.049 91.8879 172.808L93.2619 168.508H94.4924L95.8322 172.808C96.0874 173.591 96.2606 174.25 96.3518 174.783H96.4064C96.4247 174.619 96.4725 174.366 96.55 174.024C96.632 173.683 97.1083 171.844 97.9787 168.508H99.1545L97.0832 176H95.7365ZM103.88 176.137C102.772 176.137 101.897 175.799 101.255 175.125C100.617 174.451 100.298 173.514 100.298 172.315C100.298 171.108 100.594 170.148 101.187 169.438C101.784 168.727 102.583 168.371 103.586 168.371C104.525 168.371 105.268 168.681 105.814 169.301C106.361 169.916 106.635 170.729 106.635 171.741V172.459H101.474C101.496 173.339 101.717 174.006 102.137 174.462C102.561 174.918 103.155 175.146 103.921 175.146C104.728 175.146 105.525 174.977 106.313 174.64V175.651C105.912 175.825 105.532 175.948 105.172 176.021C104.816 176.098 104.386 176.137 103.88 176.137ZM103.572 169.321C102.971 169.321 102.49 169.517 102.13 169.909C101.774 170.301 101.565 170.843 101.501 171.536H105.418C105.418 170.821 105.258 170.274 104.939 169.896C104.62 169.513 104.165 169.321 103.572 169.321ZM109.754 166.006L109.48 169.615H108.763L108.482 166.006H109.754ZM113.214 176H112.08V165.363H113.214V176ZM116.955 176H115.821V165.363H116.955V176ZM129.53 168.508V169.226L128.143 169.39C128.27 169.549 128.384 169.759 128.484 170.019C128.585 170.274 128.635 170.563 128.635 170.887C128.635 171.62 128.384 172.206 127.883 172.644C127.382 173.081 126.693 173.3 125.818 173.3C125.595 173.3 125.385 173.282 125.189 173.245C124.706 173.5 124.465 173.822 124.465 174.209C124.465 174.414 124.549 174.567 124.718 174.667C124.886 174.763 125.176 174.811 125.586 174.811H126.912C127.723 174.811 128.345 174.981 128.778 175.323C129.216 175.665 129.435 176.162 129.435 176.813C129.435 177.643 129.102 178.274 128.437 178.707C127.771 179.145 126.8 179.363 125.524 179.363C124.545 179.363 123.788 179.181 123.255 178.816C122.726 178.452 122.462 177.937 122.462 177.271C122.462 176.816 122.608 176.422 122.899 176.089C123.191 175.756 123.601 175.531 124.13 175.412C123.938 175.326 123.777 175.191 123.645 175.009C123.517 174.826 123.453 174.615 123.453 174.373C123.453 174.1 123.526 173.86 123.672 173.655C123.818 173.45 124.048 173.252 124.362 173.061C123.975 172.901 123.658 172.63 123.412 172.247C123.171 171.864 123.05 171.427 123.05 170.935C123.05 170.114 123.296 169.483 123.788 169.041C124.28 168.594 124.978 168.371 125.88 168.371C126.272 168.371 126.625 168.417 126.939 168.508H129.53ZM123.556 177.258C123.556 177.663 123.727 177.971 124.068 178.181C124.41 178.39 124.9 178.495 125.538 178.495C126.491 178.495 127.195 178.352 127.65 178.064C128.111 177.782 128.341 177.397 128.341 176.909C128.341 176.504 128.215 176.221 127.965 176.062C127.714 175.907 127.243 175.829 126.55 175.829H125.189C124.674 175.829 124.273 175.952 123.986 176.198C123.699 176.444 123.556 176.798 123.556 177.258ZM124.171 170.907C124.171 171.431 124.319 171.828 124.615 172.097C124.911 172.366 125.324 172.5 125.853 172.5C126.96 172.5 127.514 171.962 127.514 170.887C127.514 169.761 126.953 169.198 125.832 169.198C125.299 169.198 124.889 169.342 124.602 169.629C124.314 169.916 124.171 170.342 124.171 170.907ZM134.433 176.137C133.326 176.137 132.451 175.799 131.808 175.125C131.17 174.451 130.851 173.514 130.851 172.315C130.851 171.108 131.148 170.148 131.74 169.438C132.337 168.727 133.137 168.371 134.139 168.371C135.078 168.371 135.821 168.681 136.368 169.301C136.915 169.916 137.188 170.729 137.188 171.741V172.459H132.027C132.05 173.339 132.271 174.006 132.69 174.462C133.114 174.918 133.709 175.146 134.474 175.146C135.281 175.146 136.079 174.977 136.867 174.64V175.651C136.466 175.825 136.085 175.948 135.725 176.021C135.37 176.098 134.939 176.137 134.433 176.137ZM134.126 169.321C133.524 169.321 133.043 169.517 132.683 169.909C132.328 170.301 132.118 170.843 132.054 171.536H135.971C135.971 170.821 135.812 170.274 135.493 169.896C135.174 169.513 134.718 169.321 134.126 169.321ZM141.75 175.2C141.95 175.2 142.144 175.187 142.331 175.159C142.518 175.127 142.666 175.095 142.775 175.063V175.932C142.652 175.991 142.47 176.039 142.228 176.075C141.991 176.116 141.777 176.137 141.586 176.137C140.136 176.137 139.412 175.373 139.412 173.847V169.39H138.338V168.843L139.412 168.371L139.89 166.771H140.546V168.508H142.72V169.39H140.546V173.799C140.546 174.25 140.654 174.596 140.868 174.838C141.082 175.079 141.376 175.2 141.75 175.2ZM147.126 168.508H148.343L149.984 172.78C150.344 173.756 150.567 174.46 150.654 174.893H150.708C150.767 174.66 150.89 174.264 151.077 173.703C151.269 173.138 151.889 171.406 152.937 168.508H154.154L150.934 177.039C150.615 177.882 150.241 178.479 149.813 178.83C149.389 179.186 148.867 179.363 148.247 179.363C147.901 179.363 147.559 179.325 147.222 179.247V178.338C147.473 178.393 147.753 178.42 148.063 178.42C148.842 178.42 149.398 177.982 149.731 177.107L150.148 176.041L147.126 168.508ZM162.037 172.247C162.037 173.468 161.729 174.423 161.114 175.111C160.499 175.795 159.649 176.137 158.564 176.137C157.895 176.137 157.3 175.979 156.78 175.665C156.261 175.351 155.86 174.899 155.577 174.312C155.295 173.724 155.153 173.035 155.153 172.247C155.153 171.026 155.459 170.076 156.069 169.396C156.68 168.713 157.528 168.371 158.612 168.371C159.66 168.371 160.492 168.72 161.107 169.417C161.727 170.114 162.037 171.058 162.037 172.247ZM156.329 172.247C156.329 173.204 156.521 173.933 156.903 174.435C157.286 174.936 157.849 175.187 158.592 175.187C159.335 175.187 159.897 174.938 160.28 174.441C160.668 173.94 160.861 173.209 160.861 172.247C160.861 171.295 160.668 170.572 160.28 170.08C159.897 169.583 159.33 169.335 158.578 169.335C157.835 169.335 157.275 169.579 156.896 170.066C156.518 170.554 156.329 171.281 156.329 172.247ZM165.3 168.508V173.368C165.3 173.979 165.439 174.435 165.717 174.735C165.995 175.036 166.43 175.187 167.022 175.187C167.806 175.187 168.378 174.972 168.738 174.544C169.103 174.116 169.285 173.416 169.285 172.445V168.508H170.42V176H169.483L169.319 174.995H169.258C169.025 175.364 168.702 175.647 168.287 175.843C167.877 176.039 167.407 176.137 166.879 176.137C165.967 176.137 165.284 175.92 164.828 175.487C164.377 175.054 164.151 174.362 164.151 173.409V168.508H165.3ZM179.289 175.2C179.49 175.2 179.684 175.187 179.871 175.159C180.057 175.127 180.205 175.095 180.315 175.063V175.932C180.192 175.991 180.01 176.039 179.768 176.075C179.531 176.116 179.317 176.137 179.125 176.137C177.676 176.137 176.952 175.373 176.952 173.847V169.39H175.878V168.843L176.952 168.371L177.43 166.771H178.086V168.508H180.26V169.39H178.086V173.799C178.086 174.25 178.193 174.596 178.408 174.838C178.622 175.079 178.916 175.2 179.289 175.2ZM187.146 176V171.153C187.146 170.543 187.007 170.087 186.729 169.786C186.451 169.485 186.015 169.335 185.423 169.335C184.635 169.335 184.058 169.549 183.694 169.978C183.334 170.406 183.154 171.108 183.154 172.083V176H182.019V165.363H183.154V168.583C183.154 168.97 183.135 169.292 183.099 169.547H183.167C183.39 169.187 183.707 168.904 184.117 168.699C184.532 168.49 185.004 168.385 185.532 168.385C186.448 168.385 187.134 168.604 187.59 169.041C188.05 169.474 188.28 170.164 188.28 171.112V176H187.146ZM193.983 176.137C192.876 176.137 192.001 175.799 191.358 175.125C190.72 174.451 190.401 173.514 190.401 172.315C190.401 171.108 190.698 170.148 191.29 169.438C191.887 168.727 192.687 168.371 193.689 168.371C194.628 168.371 195.371 168.681 195.918 169.301C196.465 169.916 196.738 170.729 196.738 171.741V172.459H191.577C191.6 173.339 191.821 174.006 192.24 174.462C192.664 174.918 193.259 175.146 194.024 175.146C194.831 175.146 195.629 174.977 196.417 174.64V175.651C196.016 175.825 195.635 175.948 195.275 176.021C194.92 176.098 194.489 176.137 193.983 176.137ZM193.676 169.321C193.074 169.321 192.593 169.517 192.233 169.909C191.878 170.301 191.668 170.843 191.604 171.536H195.521C195.521 170.821 195.362 170.274 195.043 169.896C194.724 169.513 194.268 169.321 193.676 169.321ZM202.298 168.371C202.63 168.371 202.929 168.398 203.193 168.453L203.036 169.506C202.726 169.438 202.453 169.403 202.216 169.403C201.61 169.403 201.09 169.649 200.657 170.142C200.229 170.634 200.014 171.247 200.014 171.98V176H198.88V168.508H199.816L199.946 169.896H200.001C200.279 169.408 200.614 169.032 201.006 168.768C201.398 168.503 201.828 168.371 202.298 168.371ZM207.96 176.137C206.852 176.137 205.977 175.799 205.335 175.125C204.697 174.451 204.378 173.514 204.378 172.315C204.378 171.108 204.674 170.148 205.266 169.438C205.863 168.727 206.663 168.371 207.666 168.371C208.604 168.371 209.347 168.681 209.894 169.301C210.441 169.916 210.714 170.729 210.714 171.741V172.459H205.553C205.576 173.339 205.797 174.006 206.216 174.462C206.64 174.918 207.235 175.146 208.001 175.146C208.807 175.146 209.605 174.977 210.393 174.64V175.651C209.992 175.825 209.612 175.948 209.252 176.021C208.896 176.098 208.465 176.137 207.96 176.137ZM207.652 169.321C207.05 169.321 206.57 169.517 206.21 169.909C205.854 170.301 205.644 170.843 205.581 171.536H209.498C209.498 170.821 209.338 170.274 209.019 169.896C208.7 169.513 208.244 169.321 207.652 169.321ZM212.692 175.275C212.692 174.97 212.76 174.74 212.897 174.585C213.038 174.425 213.239 174.346 213.498 174.346C213.763 174.346 213.968 174.425 214.114 174.585C214.264 174.74 214.339 174.97 214.339 175.275C214.339 175.572 214.264 175.799 214.114 175.959C213.963 176.118 213.758 176.198 213.498 176.198C213.266 176.198 213.072 176.128 212.917 175.986C212.767 175.84 212.692 175.604 212.692 175.275Z" fill="#737373"/>
</g>
<defs>
<filter id="filter0_d_964_18510" x="0" y="0" width="366" height="248" filterUnits="userSpaceOnUse" color-interpolation-filters="sRGB">
<feFlood flood-opacity="0" result="BackgroundImageFix"/>
<feColorMatrix in="SourceAlpha" type="matrix" values="0 0 0 0 0 0 0 0 0 0 0 0 0 0 0 0 0 0 127 0" result="hardAlpha"/>
<feOffset dy="13"/>
<feGaussianBlur stdDeviation="9.5"/>
<feColorMatrix type="matrix" values="0 0 0 0 0 0 0 0 0 0 0 0 0 0 0 0 0 0 0.07 0"/>
<feBlend mode="normal" in2="BackgroundImageFix" result="effect1_dropShadow_964_18510"/>
<feBlend mode="normal" in="SourceGraphic" in2="effect1_dropShadow_964_18510" result="shape"/>
</filter>
<clipPath id="clip0_964_18510">
<rect width="43" height="36" fill="white" transform="translate(62 47)"/>
</clipPath>
</defs>
</svg>
