<svg width="366" height="248" viewBox="0 0 366 248" fill="none" xmlns="http://www.w3.org/2000/svg">
<g filter="url(#filter0_d_964_18517)">
<rect width="328" height="210" transform="translate(19 6)" fill="#295C7A"/>
<g clip-path="url(#clip0_964_18517)">
<path d="M76.2901 51.4766H68.5967C67.8847 51.4766 67.3076 52.0536 67.3076 52.7656C67.3076 53.4776 67.8847 54.0547 68.5967 54.0547H76.2901C77.0018 54.0547 77.5792 53.4776 77.5792 52.7656C77.5792 52.0536 77.0018 51.4766 76.2901 51.4766Z" fill="white"/>
<path d="M76.2901 56.6333H68.5967C67.8847 56.6333 67.3076 57.2104 67.3076 57.9224C67.3076 58.6344 67.8847 59.2114 68.5967 59.2114H76.2901C77.0018 59.2114 77.5792 58.6344 77.5792 57.9224C77.5792 57.2104 77.0018 56.6333 76.2901 56.6333Z" fill="white"/>
<path d="M76.2901 61.7896H68.5967C67.8847 61.7896 67.3076 62.3666 67.3076 63.0786C67.3076 63.7906 67.8847 64.3677 68.5967 64.3677H76.2901C77.0018 64.3677 77.5792 63.7906 77.5792 63.0786C77.5792 62.3666 77.0018 61.7896 76.2901 61.7896Z" fill="white"/>
<path d="M76.2901 66.9463H68.5967C67.8847 66.9463 67.3076 67.5233 67.3076 68.2354C67.3076 68.9474 67.8847 69.5244 68.5967 69.5244H76.2901C77.0018 69.5244 77.5792 68.9474 77.5792 68.2354C77.5792 67.5233 77.0018 66.9463 76.2901 66.9463Z" fill="white"/>
<path d="M76.2901 72.189H68.5967C67.8847 72.189 67.3076 72.7664 67.3076 73.478C67.3076 74.19 67.8847 74.7671 68.5967 74.7671H76.2901C77.0018 74.7671 77.5792 74.19 77.5792 73.478C77.5792 72.7664 77.0018 72.189 76.2901 72.189Z" fill="white"/>
<path d="M80.6191 54.0547H88.3126C89.0246 54.0547 89.6016 53.4776 89.6016 52.7656C89.6016 52.0536 89.0246 51.4766 88.3126 51.4766H80.6191C79.9075 51.4766 79.3301 52.0536 79.3301 52.7656C79.3301 53.4776 79.9075 54.0547 80.6191 54.0547Z" fill="white"/>
<path d="M80.6191 59.2114H88.3126C89.0246 59.2114 89.6016 58.6344 89.6016 57.9224C89.6016 57.2104 89.0246 56.6333 88.3126 56.6333H80.6191C79.9075 56.6333 79.3301 57.2104 79.3301 57.9224C79.3301 58.6344 79.9075 59.2114 80.6191 59.2114Z" fill="white"/>
<path d="M85.6136 63.0786C85.6136 62.3666 85.0365 61.7896 84.3245 61.7896H80.6191C79.9075 61.7896 79.3301 62.3666 79.3301 63.0786C79.3301 63.7906 79.9075 64.3677 80.6191 64.3677H84.3245C85.0365 64.3677 85.6136 63.7906 85.6136 63.0786Z" fill="white"/>
<path d="M97.8248 72.7333C97.2696 72.2879 96.4586 72.3768 96.0127 72.9321L92.6927 77.0712L90.6373 75.582C90.0609 75.1641 89.2546 75.293 88.837 75.8694C88.4194 76.4461 88.5483 77.2521 89.1246 77.6697L92.1738 79.8789C92.402 80.0441 92.6666 80.1243 92.9294 80.1243C93.3077 80.1243 93.6817 79.9581 93.9355 79.6416L98.0239 74.5454C98.4694 73.9902 98.3804 73.1788 97.8248 72.7333Z" fill="white"/>
<path d="M101.083 68.7762C99.404 67.0675 97.2465 65.9906 94.9087 65.6734V48.1915C94.9087 45.329 92.5797 43 89.7172 43H67.1918C64.329 43 62 45.329 62 48.1915V78.0524C62 80.9152 64.329 83.2443 67.1915 83.2443H85.3085C87.3472 85.6391 90.2785 87 93.4498 87C99.3529 87 104.155 82.1942 104.155 76.287C104.155 73.4591 103.064 70.7917 101.083 68.7762V68.7762ZM64.5781 78.0524V48.1915C64.5781 46.7507 65.7507 45.5781 67.1918 45.5781H89.7172C91.1583 45.5781 92.3306 46.7507 92.3306 48.1915V65.6324C86.9514 66.1941 82.7442 70.7578 82.7442 76.287C82.7442 77.8195 83.0638 79.3012 83.6767 80.6658H67.1918C65.7507 80.6658 64.5781 79.4936 64.5781 78.0524ZM93.4498 84.4219C90.8753 84.4219 88.5087 83.2399 86.9561 81.1794C85.8873 79.7604 85.322 78.0689 85.322 76.287C85.322 71.8015 88.9683 68.1522 93.4498 68.1522C93.4921 68.1522 93.5347 68.1528 93.577 68.1535L93.5968 68.1538C95.7362 68.1918 97.7419 69.0545 99.2445 70.5833C100.749 72.1137 101.577 74.1396 101.577 76.287C101.577 80.7726 97.9313 84.4219 93.4498 84.4219V84.4219Z" fill="white"/>
</g>
<path d="M65.576 120.392V105.344L61.688 105.632L60.872 107.792L59.432 107.84L59.72 103.808H74.264V107.816L73.04 107.96L72.32 105.608L68.528 105.344V120.368L71.432 120.752V122H62.768V120.752L65.576 120.392ZM77.2172 120.512V111.656L75.5612 110.672V109.664L79.1132 108.608L79.7852 108.824V110.816C80.0412 110.288 80.5612 109.792 81.3452 109.328C82.1452 108.848 82.8812 108.608 83.5532 108.608C84.1612 108.608 84.5532 108.64 84.7292 108.704V111.584C84.1532 111.296 83.4652 111.152 82.6652 111.152C81.6732 111.152 80.8492 111.368 80.1932 111.8V120.464L83.2892 120.776V122H75.4892V120.776L77.2172 120.512ZM86.3654 110.504V109.4L89.9174 108.608L90.3974 108.824V116.912C90.3974 118.16 90.5494 119.056 90.8534 119.6C91.1734 120.128 91.7734 120.392 92.6534 120.392C93.1654 120.392 93.6934 120.28 94.2374 120.056C94.7974 119.832 95.2054 119.6 95.4614 119.36V111.152L93.9974 110.624V109.424L97.9094 108.608L98.3414 108.8V120.776H99.7334V121.832C99.4934 121.976 99.1014 122.104 98.5574 122.216C98.0134 122.328 97.5414 122.384 97.1414 122.384C96.7094 122.384 96.3654 122.288 96.1094 122.096C95.8694 121.92 95.7494 121.648 95.7494 121.28V120.488C95.1894 121.032 94.5334 121.464 93.7814 121.784C93.0294 122.104 92.3094 122.264 91.6214 122.264C90.4694 122.264 89.5974 122.056 89.0054 121.64C88.4294 121.208 88.0454 120.616 87.8534 119.864C87.6614 119.112 87.5574 118.12 87.5414 116.888V111.032L86.3654 110.504ZM103.738 118.424L104.338 119.816C104.77 120.2 105.17 120.48 105.538 120.656C105.906 120.816 106.362 120.896 106.906 120.896C107.69 120.896 108.306 120.736 108.754 120.416C109.202 120.08 109.426 119.592 109.426 118.952C109.41 118.472 109.186 118.08 108.754 117.776C108.338 117.472 107.682 117.12 106.786 116.72L106.186 116.456C104.986 115.88 104.05 115.264 103.378 114.608C102.706 113.952 102.37 113.144 102.37 112.184C102.37 111.384 102.626 110.704 103.138 110.144C103.65 109.584 104.298 109.168 105.082 108.896C105.882 108.624 106.698 108.488 107.53 108.488C108.234 108.488 108.946 108.568 109.666 108.728C110.386 108.872 110.962 109.048 111.394 109.256V112.04H110.026L109.474 110.672C108.914 110.08 108.274 109.784 107.554 109.784C106.866 109.784 106.306 109.928 105.874 110.216C105.458 110.488 105.25 110.904 105.25 111.464C105.25 111.88 105.386 112.248 105.658 112.568C105.946 112.872 106.266 113.12 106.618 113.312C106.986 113.504 107.618 113.816 108.514 114.248C109.346 114.632 110.002 114.976 110.482 115.28C110.978 115.584 111.394 115.976 111.73 116.456C112.066 116.92 112.234 117.496 112.234 118.184C112.234 119.528 111.714 120.552 110.674 121.256C109.634 121.944 108.306 122.288 106.69 122.288C105.954 122.288 105.194 122.192 104.41 122C103.642 121.824 102.97 121.576 102.394 121.256V118.424H103.738ZM118.827 108.896H122.763V110.6H118.899V115.952C118.899 117.184 118.923 118.088 118.971 118.664C119.035 119.24 119.155 119.672 119.331 119.96C119.523 120.232 119.835 120.368 120.267 120.368C120.603 120.368 121.011 120.312 121.491 120.2C121.987 120.088 122.331 119.968 122.523 119.84L123.003 120.992C122.603 121.392 122.003 121.712 121.203 121.952C120.419 122.176 119.667 122.288 118.947 122.288C117.923 122.288 117.179 121.992 116.715 121.4C116.251 120.808 116.019 119.872 116.019 118.592V110.6H114.243V109.568C114.995 109.376 115.491 109.232 115.731 109.136C115.987 109.024 116.211 108.816 116.403 108.512C116.643 108.096 116.971 107.176 117.387 105.752H118.827V108.896ZM137.562 103.712C138.474 103.712 139.266 103.888 139.938 104.24C140.61 104.576 141.122 105.048 141.474 105.656C141.826 106.248 142.002 106.912 142.002 107.648C142.002 108.736 141.626 109.736 140.874 110.648C140.122 111.544 139.186 112.304 138.066 112.928C138.61 113.632 139.378 114.56 140.37 115.712C141.362 116.848 142.122 117.664 142.65 118.16C142.778 117.728 142.842 117.152 142.842 116.432C142.842 115.696 142.794 115.056 142.698 114.512C142.618 113.968 142.514 113.584 142.386 113.36H145.122C145.378 113.872 145.506 114.6 145.506 115.544C145.506 116.216 145.394 116.904 145.17 117.608C144.962 118.312 144.65 118.944 144.234 119.504C145.098 120.128 145.914 120.488 146.682 120.584V121.832C146.378 121.96 145.978 122.024 145.482 122.024C144.954 122.024 144.394 121.952 143.802 121.808C143.226 121.664 142.706 121.44 142.242 121.136C141.698 121.52 141.034 121.816 140.25 122.024C139.482 122.248 138.698 122.36 137.898 122.36C136.01 122.36 134.378 122 133.002 121.28C131.626 120.544 130.938 119.32 130.938 117.608C130.938 116.552 131.266 115.664 131.922 114.944C132.578 114.208 133.522 113.544 134.754 112.952C134.098 112.072 133.586 111.28 133.218 110.576C132.866 109.856 132.69 109.112 132.69 108.344C132.69 107.384 132.906 106.56 133.338 105.872C133.77 105.168 134.354 104.632 135.09 104.264C135.842 103.896 136.666 103.712 137.562 103.712ZM137.346 105.056C136.818 105.056 136.346 105.248 135.93 105.632C135.53 106.016 135.322 106.576 135.306 107.312C135.258 108.208 135.41 109.008 135.762 109.712C136.114 110.4 136.594 111.104 137.202 111.824C137.954 111.376 138.514 110.824 138.882 110.168C139.266 109.512 139.458 108.728 139.458 107.816C139.458 107.096 139.29 106.456 138.954 105.896C138.618 105.336 138.082 105.056 137.346 105.056ZM135.618 114.224C134.978 114.672 134.506 115.112 134.202 115.544C133.914 115.976 133.77 116.528 133.77 117.2C133.77 118.32 134.17 119.2 134.97 119.84C135.77 120.464 136.802 120.776 138.066 120.776C138.69 120.776 139.234 120.736 139.698 120.656C140.162 120.56 140.562 120.392 140.898 120.152C140.162 119.512 139.25 118.576 138.162 117.344C137.074 116.112 136.226 115.072 135.618 114.224ZM156.27 120.368V105.464L154.446 105.248V103.808H167.022L167.358 107.384H165.678L164.934 105.464L159.246 105.272V111.848L163.11 111.728L163.566 109.928H165.102V115.208H163.566L163.11 113.408L159.246 113.336V120.512L165.534 120.248L166.83 117.872L168.414 118.208L167.862 122H154.398V120.752L156.27 120.368ZM172.213 118.424L172.813 119.816C173.245 120.2 173.645 120.48 174.013 120.656C174.381 120.816 174.837 120.896 175.381 120.896C176.165 120.896 176.781 120.736 177.229 120.416C177.677 120.08 177.901 119.592 177.901 118.952C177.885 118.472 177.661 118.08 177.229 117.776C176.813 117.472 176.157 117.12 175.261 116.72L174.661 116.456C173.461 115.88 172.525 115.264 171.853 114.608C171.181 113.952 170.845 113.144 170.845 112.184C170.845 111.384 171.101 110.704 171.613 110.144C172.125 109.584 172.773 109.168 173.557 108.896C174.357 108.624 175.173 108.488 176.005 108.488C176.709 108.488 177.421 108.568 178.141 108.728C178.861 108.872 179.437 109.048 179.869 109.256V112.04H178.501L177.949 110.672C177.389 110.08 176.749 109.784 176.029 109.784C175.341 109.784 174.781 109.928 174.349 110.216C173.933 110.488 173.725 110.904 173.725 111.464C173.725 111.88 173.861 112.248 174.133 112.568C174.421 112.872 174.741 113.12 175.093 113.312C175.461 113.504 176.093 113.816 176.989 114.248C177.821 114.632 178.477 114.976 178.957 115.28C179.453 115.584 179.869 115.976 180.205 116.456C180.541 116.92 180.709 117.496 180.709 118.184C180.709 119.528 180.189 120.552 179.149 121.256C178.109 121.944 176.781 122.288 175.165 122.288C174.429 122.288 173.669 122.192 172.885 122C172.117 121.824 171.445 121.576 170.869 121.256V118.424H172.213ZM187.302 108.896H191.238V110.6H187.374V115.952C187.374 117.184 187.398 118.088 187.446 118.664C187.51 119.24 187.63 119.672 187.806 119.96C187.998 120.232 188.31 120.368 188.742 120.368C189.078 120.368 189.486 120.312 189.966 120.2C190.462 120.088 190.806 119.968 190.998 119.84L191.478 120.992C191.078 121.392 190.478 121.712 189.678 121.952C188.894 122.176 188.142 122.288 187.422 122.288C186.398 122.288 185.654 121.992 185.19 121.4C184.726 120.808 184.494 119.872 184.494 118.592V110.6H182.718V109.568C183.47 109.376 183.966 109.232 184.206 109.136C184.462 109.024 184.686 108.816 184.878 108.512C185.118 108.096 185.446 107.176 185.862 105.752H187.302V108.896ZM199.105 108.608C200.657 108.608 201.857 108.952 202.705 109.64C203.553 110.328 203.977 111.48 203.977 113.096V120.776H205.465V121.736C205.177 121.912 204.801 122.048 204.337 122.144C203.873 122.256 203.417 122.312 202.969 122.312C202.393 122.312 201.977 122.2 201.721 121.976C201.465 121.736 201.329 121.352 201.313 120.824C200.433 121.816 199.193 122.312 197.593 122.312C196.777 122.312 196.049 122.16 195.409 121.856C194.769 121.536 194.273 121.096 193.921 120.536C193.569 119.976 193.393 119.344 193.393 118.64C193.393 117.584 193.785 116.712 194.569 116.024C195.353 115.336 196.329 114.84 197.497 114.536C198.665 114.216 199.841 114.056 201.025 114.056V113.336C201.025 112.248 200.777 111.488 200.281 111.056C199.785 110.624 199.049 110.408 198.073 110.408C197.545 110.408 196.945 110.496 196.273 110.672C195.601 110.848 195.017 111.072 194.521 111.344L193.969 110.024C194.513 109.576 195.289 109.232 196.297 108.992C197.321 108.736 198.257 108.608 199.105 108.608ZM201.025 115.496C199.825 115.496 198.745 115.712 197.785 116.144C196.841 116.576 196.369 117.264 196.369 118.208C196.369 119.76 197.193 120.536 198.841 120.536C199.225 120.536 199.617 120.456 200.017 120.296C200.433 120.136 200.761 119.944 201.001 119.72L201.025 115.496ZM211.619 108.896H215.555V110.6H211.691V115.952C211.691 117.184 211.715 118.088 211.763 118.664C211.827 119.24 211.947 119.672 212.123 119.96C212.315 120.232 212.627 120.368 213.059 120.368C213.395 120.368 213.803 120.312 214.283 120.2C214.779 120.088 215.123 119.968 215.315 119.84L215.795 120.992C215.395 121.392 214.795 121.712 213.995 121.952C213.211 122.176 212.459 122.288 211.739 122.288C210.715 122.288 209.971 121.992 209.507 121.4C209.043 120.808 208.811 119.872 208.811 118.592V110.6H207.035V109.568C207.787 109.376 208.283 109.232 208.523 109.136C208.779 109.024 209.003 108.816 209.195 108.512C209.435 108.096 209.763 107.176 210.179 105.752H211.619V108.896ZM224.358 108.488C225.894 108.488 227.086 108.944 227.934 109.856C228.798 110.768 229.23 112.048 229.23 113.696C229.23 114.4 229.174 115.064 229.062 115.688H220.59C220.622 117.176 220.998 118.336 221.718 119.168C222.454 120 223.494 120.416 224.838 120.416C225.43 120.416 226.062 120.352 226.734 120.224C227.406 120.08 227.95 119.904 228.366 119.696L228.87 120.848C228.358 121.296 227.614 121.656 226.638 121.928C225.662 122.184 224.694 122.312 223.734 122.312C221.782 122.296 220.27 121.688 219.198 120.488C218.126 119.288 217.59 117.656 217.59 115.592C217.59 114.232 217.878 113.016 218.454 111.944C219.03 110.856 219.83 110.008 220.854 109.4C221.878 108.792 223.046 108.488 224.358 108.488ZM223.806 109.904C222.926 109.904 222.198 110.264 221.622 110.984C221.062 111.704 220.726 112.744 220.614 114.104H226.23C226.246 113.928 226.254 113.664 226.254 113.312C226.254 112.128 225.998 111.296 225.486 110.816C225.166 110.208 224.606 109.904 223.806 109.904ZM233.463 118.424L234.063 119.816C234.495 120.2 234.895 120.48 235.263 120.656C235.631 120.816 236.087 120.896 236.631 120.896C237.415 120.896 238.031 120.736 238.479 120.416C238.927 120.08 239.151 119.592 239.151 118.952C239.135 118.472 238.911 118.08 238.479 117.776C238.063 117.472 237.407 117.12 236.511 116.72L235.911 116.456C234.711 115.88 233.775 115.264 233.103 114.608C232.431 113.952 232.095 113.144 232.095 112.184C232.095 111.384 232.351 110.704 232.863 110.144C233.375 109.584 234.023 109.168 234.807 108.896C235.607 108.624 236.423 108.488 237.255 108.488C237.959 108.488 238.671 108.568 239.391 108.728C240.111 108.872 240.687 109.048 241.119 109.256V112.04H239.751L239.199 110.672C238.639 110.08 237.999 109.784 237.279 109.784C236.591 109.784 236.031 109.928 235.599 110.216C235.183 110.488 234.975 110.904 234.975 111.464C234.975 111.88 235.111 112.248 235.383 112.568C235.671 112.872 235.991 113.12 236.343 113.312C236.711 113.504 237.343 113.816 238.239 114.248C239.071 114.632 239.727 114.976 240.207 115.28C240.703 115.584 241.119 115.976 241.455 116.456C241.791 116.92 241.959 117.496 241.959 118.184C241.959 119.528 241.439 120.552 240.399 121.256C239.359 121.944 238.031 122.288 236.415 122.288C235.679 122.288 234.919 122.192 234.135 122C233.367 121.824 232.695 121.576 232.119 121.256V118.424H233.463Z" fill="white"/>
<path d="M62.623 155.2C62.8236 155.2 63.0173 155.187 63.2041 155.159C63.391 155.127 63.5391 155.095 63.6484 155.063V155.932C63.5254 155.991 63.3431 156.039 63.1016 156.075C62.8646 156.116 62.6504 156.137 62.459 156.137C61.0098 156.137 60.2852 155.373 60.2852 153.847V149.39H59.2119V148.843L60.2852 148.371L60.7637 146.771H61.4199V148.508H63.5938V149.39H61.4199V153.799C61.4199 154.25 61.527 154.596 61.7412 154.838C61.9554 155.079 62.2493 155.2 62.623 155.2ZM70.4793 156V151.153C70.4793 150.543 70.3403 150.087 70.0623 149.786C69.7843 149.485 69.3491 149.335 68.7566 149.335C67.9682 149.335 67.3917 149.549 67.0271 149.978C66.6671 150.406 66.4871 151.108 66.4871 152.083V156H65.3523V145.363H66.4871V148.583C66.4871 148.97 66.4689 149.292 66.4324 149.547H66.5008C66.7241 149.187 67.0408 148.904 67.451 148.699C67.8657 148.49 68.3374 148.385 68.866 148.385C69.782 148.385 70.4679 148.604 70.9236 149.041C71.3839 149.474 71.6141 150.164 71.6141 151.112V156H70.4793ZM77.317 156.137C76.2096 156.137 75.3346 155.799 74.692 155.125C74.054 154.451 73.735 153.514 73.735 152.315C73.735 151.108 74.0312 150.148 74.6236 149.438C75.2206 148.727 76.0204 148.371 77.023 148.371C77.9618 148.371 78.7047 148.681 79.2516 149.301C79.7984 149.916 80.0719 150.729 80.0719 151.741V152.459H74.9107C74.9335 153.339 75.1546 154.006 75.5738 154.462C75.9977 154.918 76.5924 155.146 77.358 155.146C78.1646 155.146 78.9622 154.977 79.7506 154.64V155.651C79.3495 155.825 78.969 155.948 78.609 156.021C78.2535 156.098 77.8229 156.137 77.317 156.137ZM77.0094 149.321C76.4078 149.321 75.927 149.517 75.567 149.909C75.2115 150.301 75.0019 150.843 74.9381 151.536H78.8551C78.8551 150.821 78.6956 150.274 78.3766 149.896C78.0576 149.513 77.6018 149.321 77.0094 149.321ZM88.8801 155.187C89.6366 155.187 90.188 154.984 90.5344 154.578C90.8807 154.173 91.0653 153.489 91.0881 152.527V152.274C91.0881 151.226 90.9104 150.472 90.5549 150.012C90.1994 149.551 89.6366 149.321 88.8664 149.321C88.201 149.321 87.6906 149.581 87.3352 150.101C86.9842 150.616 86.8088 151.345 86.8088 152.288C86.8088 153.231 86.982 153.951 87.3283 154.448C87.6792 154.94 88.1965 155.187 88.8801 155.187ZM88.7092 156.137C87.743 156.137 86.9888 155.797 86.4465 155.118C85.9042 154.439 85.633 153.491 85.633 152.274C85.633 151.049 85.9064 150.091 86.4533 149.403C87.0002 148.715 87.7613 148.371 88.7365 148.371C89.7619 148.371 90.5503 148.758 91.1018 149.533H91.1633L91.3273 148.508H92.2229V159.363H91.0881V156.157C91.0881 155.701 91.1132 155.314 91.1633 154.995H91.0744C90.5503 155.756 89.7619 156.137 88.7092 156.137ZM95.9023 148.508V153.368C95.9023 153.979 96.0413 154.435 96.3193 154.735C96.5973 155.036 97.0326 155.187 97.625 155.187C98.4089 155.187 98.9808 154.972 99.3408 154.544C99.7054 154.116 99.8877 153.416 99.8877 152.445V148.508H101.022V156H100.086L99.9219 154.995H99.8604C99.6279 155.364 99.3044 155.647 98.8896 155.843C98.4795 156.039 98.0101 156.137 97.4814 156.137C96.57 156.137 95.8864 155.92 95.4307 155.487C94.9795 155.054 94.7539 154.362 94.7539 153.409V148.508H95.9023ZM104.77 156H103.636V148.508H104.77V156ZM103.54 146.478C103.54 146.218 103.604 146.029 103.731 145.91C103.859 145.787 104.018 145.726 104.21 145.726C104.392 145.726 104.549 145.787 104.681 145.91C104.814 146.033 104.88 146.222 104.88 146.478C104.88 146.733 104.814 146.924 104.681 147.052C104.549 147.175 104.392 147.236 104.21 147.236C104.018 147.236 103.859 147.175 103.731 147.052C103.604 146.924 103.54 146.733 103.54 146.478ZM110.371 156.137C109.286 156.137 108.445 155.804 107.848 155.139C107.256 154.469 106.96 153.523 106.96 152.302C106.96 151.049 107.26 150.08 107.862 149.396C108.468 148.713 109.329 148.371 110.446 148.371C110.806 148.371 111.166 148.41 111.526 148.487C111.886 148.565 112.169 148.656 112.374 148.761L112.025 149.725C111.774 149.624 111.501 149.542 111.205 149.479C110.908 149.41 110.646 149.376 110.419 149.376C108.896 149.376 108.135 150.347 108.135 152.288C108.135 153.209 108.32 153.915 108.689 154.407C109.063 154.899 109.614 155.146 110.343 155.146C110.968 155.146 111.608 155.011 112.264 154.742V155.747C111.763 156.007 111.132 156.137 110.371 156.137ZM115.37 152.165C115.565 151.887 115.864 151.522 116.265 151.071L118.685 148.508H120.032L116.996 151.7L120.244 156H118.87L116.224 152.459L115.37 153.197V156H114.248V145.363H115.37V151.003C115.37 151.254 115.351 151.641 115.315 152.165H115.37ZM129.018 149.39H127.11V156H125.976V149.39H124.636V148.877L125.976 148.467V148.05C125.976 146.209 126.78 145.288 128.389 145.288C128.785 145.288 129.25 145.368 129.783 145.527L129.489 146.437C129.052 146.295 128.678 146.225 128.368 146.225C127.94 146.225 127.623 146.368 127.418 146.655C127.213 146.938 127.11 147.394 127.11 148.022V148.508H129.018V149.39ZM137.052 152.247C137.052 153.468 136.744 154.423 136.129 155.111C135.513 155.795 134.664 156.137 133.579 156.137C132.909 156.137 132.314 155.979 131.795 155.665C131.275 155.351 130.874 154.899 130.592 154.312C130.309 153.724 130.168 153.035 130.168 152.247C130.168 151.026 130.473 150.076 131.084 149.396C131.694 148.713 132.542 148.371 133.627 148.371C134.675 148.371 135.507 148.72 136.122 149.417C136.742 150.114 137.052 151.058 137.052 152.247ZM131.344 152.247C131.344 153.204 131.535 153.933 131.918 154.435C132.301 154.936 132.863 155.187 133.606 155.187C134.349 155.187 134.912 154.938 135.295 154.441C135.682 153.94 135.876 153.209 135.876 152.247C135.876 151.295 135.682 150.572 135.295 150.08C134.912 149.583 134.345 149.335 133.593 149.335C132.85 149.335 132.289 149.579 131.911 150.066C131.533 150.554 131.344 151.281 131.344 152.247ZM141.052 152.165L138.448 148.508H139.74L141.715 151.379L143.684 148.508H144.963L142.358 152.165L145.099 156H143.814L141.715 152.965L139.596 156H138.311L141.052 152.165ZM149.717 159.363C149.284 159.363 148.933 159.306 148.664 159.192V158.27C148.979 158.361 149.289 158.406 149.594 158.406C149.949 158.406 150.209 158.308 150.373 158.112C150.542 157.921 150.626 157.627 150.626 157.23V148.508H151.761V157.148C151.761 158.625 151.08 159.363 149.717 159.363ZM150.53 146.478C150.53 146.218 150.594 146.029 150.722 145.91C150.849 145.787 151.009 145.726 151.2 145.726C151.383 145.726 151.54 145.787 151.672 145.91C151.804 146.033 151.87 146.222 151.87 146.478C151.87 146.733 151.804 146.924 151.672 147.052C151.54 147.175 151.383 147.236 151.2 147.236C151.009 147.236 150.849 147.175 150.722 147.052C150.594 146.924 150.53 146.733 150.53 146.478ZM155.434 148.508V153.368C155.434 153.979 155.573 154.435 155.851 154.735C156.129 155.036 156.564 155.187 157.156 155.187C157.94 155.187 158.512 154.972 158.872 154.544C159.237 154.116 159.419 153.416 159.419 152.445V148.508H160.554V156H159.617L159.453 154.995H159.392C159.159 155.364 158.836 155.647 158.421 155.843C158.011 156.039 157.541 156.137 157.013 156.137C156.101 156.137 155.418 155.92 154.962 155.487C154.511 155.054 154.285 154.362 154.285 153.409V148.508H155.434ZM172.717 156V151.126C172.717 150.529 172.589 150.082 172.334 149.786C172.079 149.485 171.682 149.335 171.144 149.335C170.438 149.335 169.916 149.538 169.579 149.943C169.242 150.349 169.073 150.973 169.073 151.816V156H167.938V151.126C167.938 150.529 167.811 150.082 167.555 149.786C167.3 149.485 166.901 149.335 166.359 149.335C165.648 149.335 165.126 149.549 164.794 149.978C164.466 150.401 164.302 151.099 164.302 152.069V156H163.167V148.508H164.09L164.274 149.533H164.329C164.543 149.169 164.844 148.884 165.231 148.679C165.623 148.474 166.061 148.371 166.544 148.371C167.715 148.371 168.481 148.795 168.841 149.643H168.895C169.119 149.251 169.442 148.941 169.866 148.713C170.29 148.485 170.773 148.371 171.315 148.371C172.163 148.371 172.796 148.59 173.216 149.027C173.639 149.46 173.851 150.155 173.851 151.112V156H172.717ZM179.882 156.137C179.395 156.137 178.948 156.048 178.543 155.87C178.142 155.688 177.804 155.41 177.531 155.036H177.449C177.504 155.474 177.531 155.888 177.531 156.28V159.363H176.396V148.508H177.319L177.476 149.533H177.531C177.823 149.123 178.162 148.827 178.549 148.645C178.937 148.462 179.381 148.371 179.882 148.371C180.876 148.371 181.642 148.711 182.179 149.39C182.722 150.069 182.993 151.021 182.993 152.247C182.993 153.478 182.717 154.435 182.166 155.118C181.619 155.797 180.858 156.137 179.882 156.137ZM179.718 149.335C178.953 149.335 178.399 149.547 178.057 149.971C177.715 150.395 177.54 151.069 177.531 151.994V152.247C177.531 153.3 177.706 154.054 178.057 154.51C178.408 154.961 178.971 155.187 179.746 155.187C180.393 155.187 180.899 154.924 181.263 154.4C181.632 153.876 181.817 153.154 181.817 152.233C181.817 151.299 181.632 150.584 181.263 150.087C180.899 149.586 180.384 149.335 179.718 149.335ZM190.015 153.956C190.015 154.653 189.755 155.191 189.236 155.569C188.716 155.948 187.987 156.137 187.048 156.137C186.055 156.137 185.28 155.979 184.724 155.665V154.612C185.084 154.795 185.469 154.938 185.879 155.043C186.294 155.148 186.693 155.2 187.076 155.2C187.668 155.2 188.124 155.107 188.443 154.92C188.762 154.729 188.921 154.439 188.921 154.052C188.921 153.76 188.794 153.512 188.538 153.307C188.288 153.097 187.796 152.851 187.062 152.568C186.365 152.309 185.868 152.083 185.572 151.892C185.28 151.696 185.061 151.475 184.915 151.229C184.774 150.982 184.704 150.688 184.704 150.347C184.704 149.736 184.952 149.255 185.449 148.904C185.945 148.549 186.627 148.371 187.493 148.371C188.299 148.371 189.088 148.535 189.858 148.863L189.454 149.786C188.703 149.476 188.021 149.321 187.411 149.321C186.873 149.321 186.467 149.406 186.194 149.574C185.92 149.743 185.784 149.975 185.784 150.271C185.784 150.472 185.834 150.643 185.934 150.784C186.039 150.925 186.205 151.06 186.433 151.188C186.661 151.315 187.098 151.5 187.746 151.741C188.634 152.065 189.233 152.391 189.543 152.719C189.858 153.047 190.015 153.459 190.015 153.956ZM202.371 152.247C202.371 153.468 202.063 154.423 201.448 155.111C200.833 155.795 199.983 156.137 198.898 156.137C198.229 156.137 197.634 155.979 197.114 155.665C196.595 155.351 196.194 154.899 195.911 154.312C195.629 153.724 195.487 153.035 195.487 152.247C195.487 151.026 195.793 150.076 196.403 149.396C197.014 148.713 197.862 148.371 198.946 148.371C199.994 148.371 200.826 148.72 201.441 149.417C202.061 150.114 202.371 151.058 202.371 152.247ZM196.663 152.247C196.663 153.204 196.854 153.933 197.237 154.435C197.62 154.936 198.183 155.187 198.926 155.187C199.669 155.187 200.231 154.938 200.614 154.441C201.002 153.94 201.195 153.209 201.195 152.247C201.195 151.295 201.002 150.572 200.614 150.08C200.231 149.583 199.664 149.335 198.912 149.335C198.169 149.335 197.609 149.579 197.23 150.066C196.852 150.554 196.663 151.281 196.663 152.247ZM206.208 156L203.364 148.508H204.581L206.194 152.951C206.559 153.99 206.773 154.665 206.837 154.975H206.891C206.942 154.733 207.099 154.234 207.363 153.478C207.632 152.716 208.231 151.06 209.161 148.508H210.378L207.534 156H206.208ZM214.946 156.137C213.838 156.137 212.963 155.799 212.321 155.125C211.683 154.451 211.364 153.514 211.364 152.315C211.364 151.108 211.66 150.148 212.253 149.438C212.85 148.727 213.649 148.371 214.652 148.371C215.591 148.371 216.334 148.681 216.88 149.301C217.427 149.916 217.701 150.729 217.701 151.741V152.459H212.54C212.562 153.339 212.783 154.006 213.203 154.462C213.627 154.918 214.221 155.146 214.987 155.146C215.794 155.146 216.591 154.977 217.379 154.64V155.651C216.978 155.825 216.598 155.948 216.238 156.021C215.882 156.098 215.452 156.137 214.946 156.137ZM214.638 149.321C214.037 149.321 213.556 149.517 213.196 149.909C212.84 150.301 212.631 150.843 212.567 151.536H216.484C216.484 150.821 216.324 150.274 216.005 149.896C215.686 149.513 215.231 149.321 214.638 149.321ZM223.26 148.371C223.593 148.371 223.891 148.398 224.156 148.453L223.998 149.506C223.689 149.438 223.415 149.403 223.178 149.403C222.572 149.403 222.052 149.649 221.62 150.142C221.191 150.634 220.977 151.247 220.977 151.98V156H219.842V148.508H220.779L220.909 149.896H220.963C221.241 149.408 221.576 149.032 221.968 148.768C222.36 148.503 222.791 148.371 223.26 148.371ZM232.014 155.2C232.214 155.2 232.408 155.187 232.595 155.159C232.782 155.127 232.93 155.095 233.039 155.063V155.932C232.916 155.991 232.734 156.039 232.492 156.075C232.255 156.116 232.041 156.137 231.85 156.137C230.4 156.137 229.676 155.373 229.676 153.847V149.39H228.603V148.843L229.676 148.371L230.154 146.771H230.811V148.508H232.984V149.39H230.811V153.799C230.811 154.25 230.918 154.596 231.132 154.838C231.346 155.079 231.64 155.2 232.014 155.2ZM239.87 156V151.153C239.87 150.543 239.731 150.087 239.453 149.786C239.175 149.485 238.74 149.335 238.147 149.335C237.359 149.335 236.782 149.549 236.418 149.978C236.058 150.406 235.878 151.108 235.878 152.083V156H234.743V145.363H235.878V148.583C235.878 148.97 235.86 149.292 235.823 149.547H235.891C236.115 149.187 236.431 148.904 236.842 148.699C237.256 148.49 237.728 148.385 238.257 148.385C239.173 148.385 239.859 148.604 240.314 149.041C240.775 149.474 241.005 150.164 241.005 151.112V156H239.87ZM246.708 156.137C245.6 156.137 244.725 155.799 244.083 155.125C243.445 154.451 243.126 153.514 243.126 152.315C243.126 151.108 243.422 150.148 244.014 149.438C244.611 148.727 245.411 148.371 246.414 148.371C247.352 148.371 248.095 148.681 248.642 149.301C249.189 149.916 249.462 150.729 249.462 151.741V152.459H244.301C244.324 153.339 244.545 154.006 244.964 154.462C245.388 154.918 245.983 155.146 246.749 155.146C247.555 155.146 248.353 154.977 249.141 154.64V155.651C248.74 155.825 248.36 155.948 248 156.021C247.644 156.098 247.213 156.137 246.708 156.137ZM246.4 149.321C245.798 149.321 245.318 149.517 244.958 149.909C244.602 150.301 244.393 150.843 244.329 151.536H248.246C248.246 150.821 248.086 150.274 247.767 149.896C247.448 149.513 246.992 149.321 246.4 149.321ZM61.3379 176H60.2031V165.363H61.3379V176ZM68.5516 176L68.326 174.934H68.2713C67.8976 175.403 67.5239 175.722 67.1502 175.891C66.7811 176.055 66.3185 176.137 65.7625 176.137C65.0197 176.137 64.4363 175.945 64.0125 175.562C63.5932 175.18 63.3836 174.635 63.3836 173.929C63.3836 172.416 64.5936 171.623 67.0135 171.55L68.285 171.509V171.044C68.285 170.456 68.1574 170.023 67.9021 169.745C67.6515 169.463 67.2482 169.321 66.6922 169.321C66.0678 169.321 65.3615 169.513 64.573 169.896L64.2244 169.027C64.5936 168.827 64.9969 168.67 65.4344 168.556C65.8764 168.442 66.3185 168.385 66.7605 168.385C67.6538 168.385 68.3146 168.583 68.743 168.979C69.1759 169.376 69.3924 170.012 69.3924 170.887V176H68.5516ZM65.9881 175.2C66.6945 175.2 67.2482 175.007 67.6492 174.619C68.0548 174.232 68.2576 173.689 68.2576 172.992V172.315L67.1229 172.363C66.2205 172.395 65.5688 172.536 65.1678 172.787C64.7713 173.033 64.573 173.418 64.573 173.942C64.573 174.353 64.6961 174.665 64.9422 174.879C65.1928 175.093 65.5415 175.2 65.9881 175.2ZM76.7291 176H71.2945V175.228L75.3824 169.39H71.5475V168.508H76.6266V169.39L72.5934 175.118H76.7291V176ZM77.4965 168.508H78.7133L80.3539 172.78C80.7139 173.756 80.9372 174.46 81.0238 174.893H81.0785C81.1378 174.66 81.2608 174.264 81.4477 173.703C81.6391 173.138 82.2589 171.406 83.307 168.508H84.5238L81.3041 177.039C80.9851 177.882 80.6114 178.479 80.183 178.83C79.7592 179.186 79.2374 179.363 78.6176 179.363C78.2712 179.363 77.9294 179.325 77.5922 179.247V178.338C77.8428 178.393 78.1231 178.42 78.433 178.42C79.2123 178.42 79.7683 177.982 80.101 177.107L80.518 176.041L77.4965 168.508ZM94.877 174.995H94.8154C94.2913 175.756 93.5075 176.137 92.4639 176.137C91.484 176.137 90.7207 175.802 90.1738 175.132C89.6315 174.462 89.3604 173.509 89.3604 172.274C89.3604 171.039 89.6338 170.08 90.1807 169.396C90.7275 168.713 91.4886 168.371 92.4639 168.371C93.4801 168.371 94.2594 168.74 94.8018 169.479H94.8906L94.8428 168.938L94.8154 168.412V165.363H95.9502V176H95.0273L94.877 174.995ZM92.6074 175.187C93.3822 175.187 93.9427 174.977 94.2891 174.558C94.64 174.134 94.8154 173.452 94.8154 172.514V172.274C94.8154 171.213 94.6377 170.456 94.2822 170.005C93.9313 169.549 93.3685 169.321 92.5938 169.321C91.9284 169.321 91.418 169.581 91.0625 170.101C90.7116 170.616 90.5361 171.345 90.5361 172.288C90.5361 173.245 90.7116 173.967 91.0625 174.455C91.4134 174.943 91.9284 175.187 92.6074 175.187ZM105.03 172.247C105.03 173.468 104.722 174.423 104.107 175.111C103.492 175.795 102.642 176.137 101.557 176.137C100.888 176.137 100.293 175.979 99.7732 175.665C99.2537 175.351 98.8527 174.899 98.5701 174.312C98.2876 173.724 98.1463 173.035 98.1463 172.247C98.1463 171.026 98.4516 170.076 99.0623 169.396C99.673 168.713 100.521 168.371 101.605 168.371C102.653 168.371 103.485 168.72 104.1 169.417C104.72 170.114 105.03 171.058 105.03 172.247ZM99.3221 172.247C99.3221 173.204 99.5135 173.933 99.8963 174.435C100.279 174.936 100.842 175.187 101.585 175.187C102.328 175.187 102.89 174.938 103.273 174.441C103.661 173.94 103.854 173.209 103.854 172.247C103.854 171.295 103.661 170.572 103.273 170.08C102.89 169.583 102.323 169.335 101.571 169.335C100.828 169.335 100.268 169.579 99.8895 170.066C99.5112 170.554 99.3221 171.281 99.3221 172.247ZM113.358 168.508V169.226L111.97 169.39C112.098 169.549 112.212 169.759 112.312 170.019C112.412 170.274 112.463 170.563 112.463 170.887C112.463 171.62 112.212 172.206 111.711 172.644C111.209 173.081 110.521 173.3 109.646 173.3C109.423 173.3 109.213 173.282 109.017 173.245C108.534 173.5 108.293 173.822 108.293 174.209C108.293 174.414 108.377 174.567 108.546 174.667C108.714 174.763 109.004 174.811 109.414 174.811H110.74C111.551 174.811 112.173 174.981 112.606 175.323C113.044 175.665 113.262 176.162 113.262 176.813C113.262 177.643 112.93 178.274 112.264 178.707C111.599 179.145 110.628 179.363 109.352 179.363C108.372 179.363 107.616 179.181 107.083 178.816C106.554 178.452 106.29 177.937 106.29 177.271C106.29 176.816 106.435 176.422 106.727 176.089C107.019 175.756 107.429 175.531 107.958 175.412C107.766 175.326 107.604 175.191 107.472 175.009C107.345 174.826 107.281 174.615 107.281 174.373C107.281 174.1 107.354 173.86 107.5 173.655C107.645 173.45 107.876 173.252 108.19 173.061C107.803 172.901 107.486 172.63 107.24 172.247C106.998 171.864 106.878 171.427 106.878 170.935C106.878 170.114 107.124 169.483 107.616 169.041C108.108 168.594 108.805 168.371 109.708 168.371C110.1 168.371 110.453 168.417 110.767 168.508H113.358ZM107.383 177.258C107.383 177.663 107.554 177.971 107.896 178.181C108.238 178.39 108.728 178.495 109.366 178.495C110.318 178.495 111.022 178.352 111.478 178.064C111.938 177.782 112.169 177.397 112.169 176.909C112.169 176.504 112.043 176.221 111.793 176.062C111.542 175.907 111.07 175.829 110.378 175.829H109.017C108.502 175.829 108.101 175.952 107.814 176.198C107.527 176.444 107.383 176.798 107.383 177.258ZM107.999 170.907C107.999 171.431 108.147 171.828 108.443 172.097C108.739 172.366 109.152 172.5 109.68 172.5C110.788 172.5 111.341 171.962 111.341 170.887C111.341 169.761 110.781 169.198 109.66 169.198C109.127 169.198 108.716 169.342 108.429 169.629C108.142 169.916 107.999 170.342 107.999 170.907Z" fill="white"/>
</g>
<defs>
<filter id="filter0_d_964_18517" x="0" y="0" width="366" height="248" filterUnits="userSpaceOnUse" color-interpolation-filters="sRGB">
<feFlood flood-opacity="0" result="BackgroundImageFix"/>
<feColorMatrix in="SourceAlpha" type="matrix" values="0 0 0 0 0 0 0 0 0 0 0 0 0 0 0 0 0 0 127 0" result="hardAlpha"/>
<feOffset dy="13"/>
<feGaussianBlur stdDeviation="9.5"/>
<feColorMatrix type="matrix" values="0 0 0 0 0 0 0 0 0 0 0 0 0 0 0 0 0 0 0.07 0"/>
<feBlend mode="normal" in2="BackgroundImageFix" result="effect1_dropShadow_964_18517"/>
<feBlend mode="normal" in="SourceGraphic" in2="effect1_dropShadow_964_18517" result="shape"/>
</filter>
<clipPath id="clip0_964_18517">
<rect width="42.1953" height="44" fill="white" transform="translate(62 43)"/>
</clipPath>
</defs>
</svg>
