<svg width="310" height="84" viewBox="0 0 310 84" fill="none" xmlns="http://www.w3.org/2000/svg">
<path d="M3.76 30.28L5.48 5.72L1.76 5.36V2.68H12.32L18.48 21.84L19.28 25.12L20.16 21.8L26.04 2.68H35.76V5.36L32.12 5.72L34.24 30.28L37.48 30.96V33H26.32V30.96L29.56 30.28L28.12 13.24L28 6.04L27.24 9.08L19.48 33.32H17.72L10.6 12.72C9.96 10.88 9.22667 8.62666 8.4 5.96L8.28 12.16L7.44 30.24L11.12 30.92V33H0.4V30.92L3.76 30.28ZM51.2588 10.48C54.5654 10.48 57.0854 11.4933 58.8188 13.52C60.5521 15.52 61.4188 18.2 61.4188 21.56C61.4188 23.9067 60.9521 25.9867 60.0188 27.8C59.0854 29.5867 57.8054 30.9867 56.1788 32C54.5521 32.9867 52.7121 33.48 50.6588 33.48C47.2188 33.48 44.6188 32.4267 42.8588 30.32C41.0988 28.1867 40.2188 25.4133 40.2188 22C40.2188 19.6533 40.7121 17.6133 41.6988 15.88C42.6854 14.1467 44.0054 12.8133 45.6588 11.88C47.3388 10.9467 49.2054 10.48 51.2588 10.48ZM50.8588 12.88C47.2588 12.88 45.4588 15.7333 45.4588 21.44C45.4588 24.0533 45.9121 26.2933 46.8188 28.16C47.7254 30.0267 49.0721 30.9733 50.8588 31C52.8054 31.0267 54.1788 30.2533 54.9788 28.68C55.8054 27.1067 56.2188 24.8533 56.2188 21.92C56.2188 19.2267 55.7788 17.0533 54.8988 15.4C54.0454 13.72 52.6988 12.88 50.8588 12.88ZM68.4244 27.04L69.4244 29.36C70.1444 30 70.811 30.4667 71.4244 30.76C72.0377 31.0267 72.7977 31.16 73.7044 31.16C75.011 31.16 76.0377 30.8933 76.7844 30.36C77.531 29.8 77.9044 28.9867 77.9044 27.92C77.8777 27.12 77.5044 26.4667 76.7844 25.96C76.091 25.4533 74.9977 24.8667 73.5044 24.2L72.5044 23.76C70.5044 22.8 68.9444 21.7733 67.8244 20.68C66.7044 19.5867 66.1444 18.24 66.1444 16.64C66.1444 15.3067 66.571 14.1733 67.4244 13.24C68.2777 12.3067 69.3577 11.6133 70.6644 11.16C71.9977 10.7067 73.3577 10.48 74.7444 10.48C75.9177 10.48 77.1044 10.6133 78.3044 10.88C79.5044 11.12 80.4644 11.4133 81.1844 11.76V16.4H78.9044L77.9844 14.12C77.051 13.1333 75.9844 12.64 74.7844 12.64C73.6377 12.64 72.7044 12.88 71.9844 13.36C71.291 13.8133 70.9444 14.5067 70.9444 15.44C70.9444 16.1333 71.171 16.7467 71.6244 17.28C72.1044 17.7867 72.6377 18.2 73.2244 18.52C73.8377 18.84 74.891 19.36 76.3844 20.08C77.771 20.72 78.8644 21.2933 79.6644 21.8C80.491 22.3067 81.1844 22.96 81.7444 23.76C82.3044 24.5333 82.5844 25.4933 82.5844 26.64C82.5844 28.88 81.7177 30.5867 79.9844 31.76C78.251 32.9067 76.0377 33.48 73.3444 33.48C72.1177 33.48 70.851 33.32 69.5444 33C68.2644 32.7067 67.1444 32.2933 66.1844 31.76V27.04H68.4244ZM93.6056 11.16H100.166V14H93.7256V22.92C93.7256 24.9733 93.7656 26.48 93.8456 27.44C93.9523 28.4 94.1523 29.12 94.4456 29.6C94.7656 30.0533 95.2856 30.28 96.0056 30.28C96.5656 30.28 97.2456 30.1867 98.0456 30C98.8723 29.8133 99.4456 29.6133 99.7656 29.4L100.566 31.32C99.899 31.9867 98.899 32.52 97.5656 32.92C96.259 33.2933 95.0056 33.48 93.8056 33.48C92.099 33.48 90.859 32.9867 90.0856 32C89.3123 31.0133 88.9256 29.4533 88.9256 27.32V14H85.9656V12.28C87.219 11.96 88.0456 11.72 88.4456 11.56C88.8723 11.3733 89.2456 11.0267 89.5656 10.52C89.9656 9.82667 90.5123 8.29333 91.2056 5.92H93.6056V11.16ZM120.178 11.16H126.738V14H120.298V22.92C120.298 24.9733 120.338 26.48 120.418 27.44C120.524 28.4 120.724 29.12 121.018 29.6C121.338 30.0533 121.858 30.28 122.578 30.28C123.138 30.28 123.818 30.1867 124.618 30C125.444 29.8133 126.018 29.6133 126.338 29.4L127.138 31.32C126.471 31.9867 125.471 32.52 124.138 32.92C122.831 33.2933 121.578 33.48 120.378 33.48C118.671 33.48 117.431 32.9867 116.658 32C115.884 31.0133 115.498 29.4533 115.498 27.32V14H112.538V12.28C113.791 11.96 114.618 11.72 115.018 11.56C115.444 11.3733 115.818 11.0267 116.138 10.52C116.538 9.82667 117.084 8.29333 117.778 5.92H120.178V11.16ZM133.403 30.52V15.76L130.643 14.12V12.44L136.563 10.68L137.683 11.04V14.36C138.11 13.48 138.976 12.6533 140.283 11.88C141.616 11.08 142.843 10.68 143.963 10.68C144.976 10.68 145.63 10.7333 145.923 10.84V15.64C144.963 15.16 143.816 14.92 142.483 14.92C140.83 14.92 139.456 15.28 138.363 16V30.44L143.523 30.96V33H130.523V30.96L133.403 30.52ZM148.683 13.84V12L154.603 10.68L155.403 11.04V24.52C155.403 26.6 155.657 28.0933 156.163 29C156.697 29.88 157.697 30.32 159.163 30.32C160.017 30.32 160.897 30.1333 161.803 29.76C162.737 29.3867 163.417 29 163.843 28.6V14.92L161.403 14.04V12.04L167.923 10.68L168.643 11V30.96H170.963V32.72C170.563 32.96 169.91 33.1733 169.003 33.36C168.097 33.5467 167.31 33.64 166.643 33.64C165.923 33.64 165.35 33.48 164.923 33.16C164.523 32.8667 164.323 32.4133 164.323 31.8V30.48C163.39 31.3867 162.297 32.1067 161.043 32.64C159.79 33.1733 158.59 33.44 157.443 33.44C155.523 33.44 154.07 33.0933 153.083 32.4C152.123 31.68 151.483 30.6933 151.163 29.44C150.843 28.1867 150.67 26.5333 150.643 24.48V14.72L148.683 13.84ZM177.671 27.04L178.671 29.36C179.391 30 180.058 30.4667 180.671 30.76C181.285 31.0267 182.045 31.16 182.951 31.16C184.258 31.16 185.285 30.8933 186.031 30.36C186.778 29.8 187.151 28.9867 187.151 27.92C187.125 27.12 186.751 26.4667 186.031 25.96C185.338 25.4533 184.245 24.8667 182.751 24.2L181.751 23.76C179.751 22.8 178.191 21.7733 177.071 20.68C175.951 19.5867 175.391 18.24 175.391 16.64C175.391 15.3067 175.818 14.1733 176.671 13.24C177.525 12.3067 178.605 11.6133 179.911 11.16C181.245 10.7067 182.605 10.48 183.991 10.48C185.165 10.48 186.351 10.6133 187.551 10.88C188.751 11.12 189.711 11.4133 190.431 11.76V16.4H188.151L187.231 14.12C186.298 13.1333 185.231 12.64 184.031 12.64C182.885 12.64 181.951 12.88 181.231 13.36C180.538 13.8133 180.191 14.5067 180.191 15.44C180.191 16.1333 180.418 16.7467 180.871 17.28C181.351 17.7867 181.885 18.2 182.471 18.52C183.085 18.84 184.138 19.36 185.631 20.08C187.018 20.72 188.111 21.2933 188.911 21.8C189.738 22.3067 190.431 22.96 190.991 23.76C191.551 24.5333 191.831 25.4933 191.831 26.64C191.831 28.88 190.965 30.5867 189.231 31.76C187.498 32.9067 185.285 33.48 182.591 33.48C181.365 33.48 180.098 33.32 178.791 33C177.511 32.7067 176.391 32.2933 175.431 31.76V27.04H177.671ZM202.853 11.16H209.413V14H202.973V22.92C202.973 24.9733 203.013 26.48 203.093 27.44C203.199 28.4 203.399 29.12 203.693 29.6C204.013 30.0533 204.533 30.28 205.253 30.28C205.813 30.28 206.493 30.1867 207.293 30C208.119 29.8133 208.693 29.6133 209.013 29.4L209.813 31.32C209.146 31.9867 208.146 32.52 206.813 32.92C205.506 33.2933 204.253 33.48 203.053 33.48C201.346 33.48 200.106 32.9867 199.333 32C198.559 31.0133 198.173 29.4533 198.173 27.32V14H195.213V12.28C196.466 11.96 197.293 11.72 197.693 11.56C198.119 11.3733 198.493 11.0267 198.813 10.52C199.213 9.82667 199.759 8.29333 200.453 5.92H202.853V11.16ZM224.118 10.48C226.678 10.48 228.665 11.24 230.078 12.76C231.518 14.28 232.238 16.4133 232.238 19.16C232.238 20.3333 232.145 21.44 231.958 22.48H217.838C217.891 24.96 218.518 26.8933 219.718 28.28C220.945 29.6667 222.678 30.36 224.918 30.36C225.905 30.36 226.958 30.2533 228.078 30.04C229.198 29.8 230.105 29.5067 230.798 29.16L231.638 31.08C230.785 31.8267 229.545 32.4267 227.918 32.88C226.291 33.3067 224.678 33.52 223.078 33.52C219.825 33.4933 217.305 32.48 215.518 30.48C213.731 28.48 212.838 25.76 212.838 22.32C212.838 20.0533 213.318 18.0267 214.278 16.24C215.238 14.4267 216.571 13.0133 218.278 12C219.985 10.9867 221.931 10.48 224.118 10.48ZM223.198 12.84C221.731 12.84 220.518 13.44 219.558 14.64C218.625 15.84 218.065 17.5733 217.878 19.84H227.238C227.265 19.5467 227.278 19.1067 227.278 18.52C227.278 16.5467 226.851 15.16 225.998 14.36C225.465 13.3467 224.531 12.84 223.198 12.84ZM255.926 1.72V30.96H258.606V32.68C258.126 32.9467 257.446 33.1733 256.566 33.36C255.686 33.5467 254.779 33.64 253.846 33.64C252.993 33.64 252.379 33.48 252.006 33.16C251.633 32.84 251.393 32.28 251.286 31.48C250.699 32.0133 249.819 32.4933 248.646 32.92C247.499 33.32 246.233 33.52 244.846 33.52C243.219 33.52 241.739 33.08 240.406 32.2C239.073 31.32 238.006 30.0533 237.206 28.4C236.433 26.72 236.046 24.7333 236.046 22.44C236.046 20.1467 236.566 18.0933 237.606 16.28C238.673 14.4667 240.099 13.0533 241.886 12.04C243.699 11 245.686 10.48 247.846 10.48C249.046 10.48 250.099 10.6133 251.006 10.88V5.04L246.766 4.2V2.08L254.886 1.24L255.926 1.72ZM247.326 12.8C246.259 12.8 245.246 13.1333 244.286 13.8C243.326 14.4667 242.539 15.4533 241.926 16.76C241.339 18.0667 241.046 19.6533 241.046 21.52C241.046 23.3333 241.299 24.9333 241.806 26.32C242.313 27.7067 243.006 28.7733 243.886 29.52C244.793 30.2667 245.806 30.64 246.926 30.64C247.726 30.64 248.486 30.5333 249.206 30.32C249.953 30.1067 250.566 29.8 251.046 29.4V14.04C250.113 13.2133 248.873 12.8 247.326 12.8ZM276.379 0.239997C277.366 0.239997 278.112 0.506665 278.619 1.04C279.152 1.54667 279.419 2.24 279.419 3.12C279.419 4.10667 279.059 4.92 278.339 5.56C277.619 6.2 276.779 6.52 275.819 6.52C274.992 6.52 274.272 6.25333 273.659 5.72C273.072 5.18667 272.779 4.49333 272.779 3.64C272.779 2.70666 273.152 1.90666 273.899 1.24C274.646 0.573331 275.472 0.239997 276.379 0.239997ZM278.979 11.08V30.52L282.019 30.96V33H271.099V30.96L274.179 30.52V15.92L271.539 14V12.56L277.819 10.68L278.979 11.08ZM288.049 30.56V15.76L285.329 14.12V12.44L291.289 10.68L292.369 11.04V13.88C293.382 12.9733 294.662 12.2133 296.209 11.6C297.782 10.9867 299.249 10.68 300.609 10.68C302.902 10.68 304.502 11.4 305.409 12.84C306.342 14.28 306.809 16.5733 306.809 19.72V30.56L309.769 30.96V33H298.969V30.96L301.889 30.52V20.48C301.889 18.9067 301.782 17.68 301.569 16.8C301.356 15.8933 300.956 15.2267 300.369 14.8C299.782 14.3733 298.929 14.16 297.809 14.16C297.116 14.16 296.316 14.2933 295.409 14.56C294.529 14.8267 293.729 15.2267 293.009 15.76V30.52L295.729 30.96V33H285.489V30.96L288.049 30.56ZM11.84 60.48C15.1467 60.48 17.6667 61.4933 19.4 63.52C21.1333 65.52 22 68.2 22 71.56C22 73.9067 21.5333 75.9867 20.6 77.8C19.6667 79.5867 18.3867 80.9867 16.76 82C15.1333 82.9867 13.2933 83.48 11.24 83.48C7.8 83.48 5.2 82.4267 3.44 80.32C1.68 78.1867 0.8 75.4133 0.8 72C0.8 69.6533 1.29333 67.6133 2.28 65.88C3.26667 64.1467 4.58667 62.8133 6.24 61.88C7.92 60.9467 9.78667 60.48 11.84 60.48ZM11.44 62.88C7.84 62.88 6.04 65.7333 6.04 71.44C6.04 74.0533 6.49333 76.2933 7.4 78.16C8.30667 80.0267 9.65333 80.9733 11.44 81C13.3867 81.0267 14.76 80.2533 15.56 78.68C16.3867 77.1067 16.8 74.8533 16.8 71.92C16.8 69.2267 16.36 67.0533 15.48 65.4C14.6267 63.72 13.28 62.88 11.44 62.88ZM25.7256 63.84V62L31.6456 60.68L32.4456 61.04V74.52C32.4456 76.6 32.699 78.0933 33.2056 79C33.739 79.88 34.739 80.32 36.2056 80.32C37.059 80.32 37.939 80.1333 38.8456 79.76C39.779 79.3867 40.459 79 40.8856 78.6V64.92L38.4456 64.04V62.04L44.9656 60.68L45.6856 61V80.96H48.0056V82.72C47.6056 82.96 46.9523 83.1733 46.0456 83.36C45.139 83.5467 44.3523 83.64 43.6856 83.64C42.9656 83.64 42.3923 83.48 41.9656 83.16C41.5656 82.8667 41.3656 82.4133 41.3656 81.8V80.48C40.4323 81.3867 39.339 82.1067 38.0856 82.64C36.8323 83.1733 35.6323 83.44 34.4856 83.44C32.5656 83.44 31.1123 83.0933 30.1256 82.4C29.1656 81.68 28.5256 80.6933 28.2056 79.44C27.8856 78.1867 27.7123 76.5333 27.6856 74.48V64.72L25.7256 63.84ZM54.5172 80.52V65.76L51.7572 64.12V62.44L57.6772 60.68L58.7972 61.04V64.36C59.2239 63.48 60.0905 62.6533 61.3972 61.88C62.7305 61.08 63.9572 60.68 65.0772 60.68C66.0905 60.68 66.7439 60.7333 67.0372 60.84V65.64C66.0772 65.16 64.9305 64.92 63.5972 64.92C61.9439 64.92 60.5705 65.28 59.4772 66V80.44L64.6372 80.96V83H51.6372V80.96L54.5172 80.52ZM91.2638 49.68C92.0371 49.68 92.7171 49.7333 93.3038 49.84C93.9171 49.92 94.3438 50.0267 94.5838 50.16V54.12C94.2371 53.9333 93.6771 53.76 92.9038 53.6C92.1571 53.4133 91.4238 53.32 90.7038 53.32C89.9304 53.32 89.3171 53.44 88.8638 53.68C88.4371 53.8933 88.1171 54.32 87.9038 54.96C87.6904 55.5733 87.5838 56.4933 87.5838 57.72V61.16H93.4638V64.28H87.5838V80.52L92.1438 80.96V83H79.0238V80.96L82.6638 80.48V64.28H78.6238V62.56L82.6638 61.28V59.52C82.6638 57.7333 83.0904 56.0933 83.9438 54.6C84.8238 53.08 85.9304 51.88 87.2638 51C88.5971 50.12 89.9304 49.68 91.2638 49.68ZM101.504 50.24C102.49 50.24 103.237 50.5067 103.744 51.04C104.277 51.5467 104.544 52.24 104.544 53.12C104.544 54.1067 104.17 54.92 103.424 55.56C102.704 56.2 101.864 56.52 100.904 56.52C100.104 56.52 99.3971 56.2533 98.7838 55.72C98.1971 55.1867 97.9038 54.4933 97.9038 53.64C97.9038 52.7067 98.2771 51.9067 99.0238 51.24C99.7704 50.5733 100.597 50.24 101.504 50.24ZM104.064 61.08V80.52L107.104 80.96V83H96.1838V80.96L99.2638 80.52V65.92L96.6638 64V62.56L102.904 60.68L104.064 61.08ZM121.282 60.48C123.842 60.48 125.829 61.24 127.242 62.76C128.682 64.28 129.402 66.4133 129.402 69.16C129.402 70.3333 129.309 71.44 129.122 72.48H115.002C115.056 74.96 115.682 76.8933 116.882 78.28C118.109 79.6667 119.842 80.36 122.082 80.36C123.069 80.36 124.122 80.2533 125.242 80.04C126.362 79.8 127.269 79.5067 127.962 79.16L128.802 81.08C127.949 81.8267 126.709 82.4267 125.082 82.88C123.456 83.3067 121.842 83.52 120.242 83.52C116.989 83.4933 114.469 82.48 112.682 80.48C110.896 78.48 110.002 75.76 110.002 72.32C110.002 70.0533 110.482 68.0267 111.442 66.24C112.402 64.4267 113.736 63.0133 115.442 62C117.149 60.9867 119.096 60.48 121.282 60.48ZM120.362 62.84C118.896 62.84 117.682 63.44 116.722 64.64C115.789 65.84 115.229 67.5733 115.042 69.84H124.402C124.429 69.5467 124.442 69.1067 124.442 68.52C124.442 66.5467 124.016 65.16 123.162 64.36C122.629 63.3467 121.696 62.84 120.362 62.84ZM136.25 80.52V55.04L133.33 54.2V52.08L140.25 51.24L141.17 51.64V80.48L144.65 80.96V83H133.29V80.96L136.25 80.52ZM167.157 51.72V80.96H169.837V82.68C169.357 82.9467 168.677 83.1733 167.797 83.36C166.917 83.5467 166.011 83.64 165.077 83.64C164.224 83.64 163.611 83.48 163.237 83.16C162.864 82.84 162.624 82.28 162.517 81.48C161.931 82.0133 161.051 82.4933 159.877 82.92C158.731 83.32 157.464 83.52 156.077 83.52C154.451 83.52 152.971 83.08 151.637 82.2C150.304 81.32 149.237 80.0533 148.437 78.4C147.664 76.72 147.277 74.7333 147.277 72.44C147.277 70.1467 147.797 68.0933 148.837 66.28C149.904 64.4667 151.331 63.0533 153.117 62.04C154.931 61 156.917 60.48 159.077 60.48C160.277 60.48 161.331 60.6133 162.237 60.88V55.04L157.997 54.2V52.08L166.117 51.24L167.157 51.72ZM158.557 62.8C157.491 62.8 156.477 63.1333 155.517 63.8C154.557 64.4667 153.771 65.4533 153.157 66.76C152.571 68.0667 152.277 69.6533 152.277 71.52C152.277 73.3333 152.531 74.9333 153.037 76.32C153.544 77.7067 154.237 78.7733 155.117 79.52C156.024 80.2667 157.037 80.64 158.157 80.64C158.957 80.64 159.717 80.5333 160.437 80.32C161.184 80.1067 161.797 79.8 162.277 79.4V64.04C161.344 63.2133 160.104 62.8 158.557 62.8Z" fill="#252B42"/>
</svg>
