<svg width="302" height="55" viewBox="0 0 302 55" fill="none" xmlns="http://www.w3.org/2000/svg">
<path d="M5.79688 11L2.40625 2.14062H2.35156C2.41536 2.84245 2.44727 3.67643 2.44727 4.64258V11H1.37402V1.00586H3.12402L6.28906 9.25H6.34375L9.53613 1.00586H11.2725V11H10.1104V4.56055C10.1104 3.82227 10.1423 3.02018 10.2061 2.1543H10.1514L6.7334 11H5.79688ZM20.5164 7.24707C20.5164 8.46842 20.2088 9.42318 19.5936 10.1113C18.9783 10.7949 18.1284 11.1367 17.0437 11.1367C16.3738 11.1367 15.7791 10.9795 15.2596 10.665C14.74 10.3506 14.339 9.89941 14.0564 9.31152C13.7739 8.72363 13.6326 8.03548 13.6326 7.24707C13.6326 6.02572 13.938 5.07552 14.5486 4.39648C15.1593 3.71289 16.007 3.37109 17.0916 3.37109C18.1398 3.37109 18.9715 3.71973 19.5867 4.41699C20.2065 5.11426 20.5164 6.05762 20.5164 7.24707ZM14.8084 7.24707C14.8084 8.2041 14.9998 8.93327 15.3826 9.43457C15.7654 9.93587 16.3283 10.1865 17.0711 10.1865C17.8139 10.1865 18.3768 9.93815 18.7596 9.44141C19.1469 8.9401 19.3406 8.20866 19.3406 7.24707C19.3406 6.2946 19.1469 5.57227 18.7596 5.08008C18.3768 4.58333 17.8094 4.33496 17.0574 4.33496C16.3146 4.33496 15.754 4.57878 15.3758 5.06641C14.9975 5.55404 14.8084 6.28092 14.8084 7.24707ZM27.5455 8.95605C27.5455 9.65332 27.2857 10.1911 26.7662 10.5693C26.2467 10.9476 25.5175 11.1367 24.5787 11.1367C23.5852 11.1367 22.8105 10.9795 22.2545 10.665V9.6123C22.6145 9.7946 22.9996 9.93815 23.4098 10.043C23.8245 10.1478 24.2232 10.2002 24.6061 10.2002C25.1985 10.2002 25.6542 10.1068 25.9732 9.91992C26.2923 9.72852 26.4518 9.43913 26.4518 9.05176C26.4518 8.76009 26.3242 8.51172 26.0689 8.30664C25.8183 8.09701 25.3261 7.85091 24.5924 7.56836C23.8951 7.30859 23.3984 7.08301 23.1021 6.8916C22.8105 6.69564 22.5917 6.47461 22.4459 6.22852C22.3046 5.98242 22.234 5.68848 22.234 5.34668C22.234 4.736 22.4824 4.25521 22.9791 3.9043C23.4758 3.54883 24.1572 3.37109 25.023 3.37109C25.8297 3.37109 26.6181 3.53516 27.3883 3.86328L26.985 4.78613C26.233 4.47624 25.5517 4.32129 24.941 4.32129C24.4033 4.32129 23.9977 4.4056 23.7242 4.57422C23.4508 4.74284 23.3141 4.97526 23.3141 5.27148C23.3141 5.47201 23.3642 5.6429 23.4645 5.78418C23.5693 5.92546 23.7356 6.0599 23.9635 6.1875C24.1913 6.3151 24.6288 6.49967 25.276 6.74121C26.1646 7.06478 26.7639 7.39062 27.0738 7.71875C27.3883 8.04688 27.5455 8.45931 27.5455 8.95605ZM32.018 10.2002C32.2185 10.2002 32.4122 10.1865 32.599 10.1592C32.7859 10.1273 32.934 10.0954 33.0434 10.0635V10.9316C32.9203 10.9909 32.738 11.0387 32.4965 11.0752C32.2595 11.1162 32.0453 11.1367 31.8539 11.1367C30.4047 11.1367 29.6801 10.3734 29.6801 8.84668V4.38965H28.6068V3.84277L29.6801 3.37109L30.1586 1.77148H30.8148V3.50781H32.9887V4.38965H30.8148V8.79883C30.8148 9.25 30.9219 9.59635 31.1361 9.83789C31.3503 10.0794 31.6443 10.2002 32.018 10.2002ZM41.5781 11.1367C40.4935 11.1367 39.6527 10.804 39.0557 10.1387C38.4632 9.46875 38.167 8.52311 38.167 7.30176C38.167 6.0485 38.4678 5.08008 39.0693 4.39648C39.6755 3.71289 40.5368 3.37109 41.6533 3.37109C42.0133 3.37109 42.3734 3.40983 42.7334 3.4873C43.0934 3.56478 43.376 3.65592 43.5811 3.76074L43.2324 4.72461C42.9818 4.62435 42.7083 4.54232 42.4121 4.47852C42.1159 4.41016 41.8538 4.37598 41.626 4.37598C40.1038 4.37598 39.3428 5.34668 39.3428 7.28809C39.3428 8.20866 39.5273 8.91504 39.8965 9.40723C40.2702 9.89941 40.8216 10.1455 41.5508 10.1455C42.1751 10.1455 42.8154 10.0111 43.4717 9.74219V10.7471C42.9704 11.0068 42.3392 11.1367 41.5781 11.1367ZM50.0633 11L49.8377 9.93359H49.783C49.4093 10.403 49.0356 10.722 48.6619 10.8906C48.2928 11.0547 47.8302 11.1367 47.2742 11.1367C46.5314 11.1367 45.948 10.9453 45.5242 10.5625C45.1049 10.1797 44.8953 9.63509 44.8953 8.92871C44.8953 7.41569 46.1053 6.62272 48.5252 6.5498L49.7967 6.50879V6.04395C49.7967 5.45605 49.6691 5.02311 49.4139 4.74512C49.1632 4.46257 48.7599 4.32129 48.2039 4.32129C47.5796 4.32129 46.8732 4.5127 46.0848 4.89551L45.7361 4.02734C46.1053 3.82682 46.5086 3.6696 46.9461 3.55566C47.3882 3.44173 47.8302 3.38477 48.2723 3.38477C49.1655 3.38477 49.8263 3.58301 50.2547 3.97949C50.6876 4.37598 50.9041 5.01172 50.9041 5.88672V11H50.0633ZM47.4998 10.2002C48.2062 10.2002 48.7599 10.0065 49.1609 9.61914C49.5665 9.23177 49.7693 8.68945 49.7693 7.99219V7.31543L48.6346 7.36328C47.7322 7.39518 47.0805 7.53646 46.6795 7.78711C46.283 8.0332 46.0848 8.41829 46.0848 8.94238C46.0848 9.35254 46.2078 9.66471 46.4539 9.87891C46.7046 10.0931 47.0532 10.2002 47.4998 10.2002ZM54.5836 11H53.4488V0.363281H54.5836V11ZM60.3549 11.1367C59.2475 11.1367 58.3725 10.7995 57.7299 10.125C57.0919 9.45052 56.7729 8.514 56.7729 7.31543C56.7729 6.10775 57.0691 5.14844 57.6615 4.4375C58.2585 3.72656 59.0583 3.37109 60.0609 3.37109C60.9997 3.37109 61.7426 3.68099 62.2895 4.30078C62.8363 4.91602 63.1098 5.72949 63.1098 6.74121V7.45898H57.9486C57.9714 8.33854 58.1924 9.00618 58.6117 9.46191C59.0355 9.91764 59.6303 10.1455 60.3959 10.1455C61.2025 10.1455 62.0001 9.97689 62.7885 9.63965V10.6514C62.3874 10.8245 62.0069 10.9476 61.6469 11.0205C61.2914 11.098 60.8607 11.1367 60.3549 11.1367ZM60.0473 4.32129C59.4457 4.32129 58.9649 4.51725 58.6049 4.90918C58.2494 5.30111 58.0398 5.84342 57.976 6.53613H61.893C61.893 5.82064 61.7335 5.27376 61.4145 4.89551C61.0954 4.5127 60.6397 4.32129 60.0473 4.32129ZM70.3781 11V6.15332C70.3781 5.54264 70.2391 5.08691 69.9611 4.78613C69.6831 4.48535 69.2479 4.33496 68.6555 4.33496C67.8716 4.33496 67.2974 4.54688 66.9328 4.9707C66.5682 5.39453 66.3859 6.09408 66.3859 7.06934V11H65.2512V3.50781H66.174L66.3586 4.5332H66.4133C66.6457 4.16406 66.9716 3.87923 67.3908 3.67871C67.8101 3.47363 68.2772 3.37109 68.7922 3.37109C69.6945 3.37109 70.3736 3.58984 70.8293 4.02734C71.285 4.46029 71.5129 5.15527 71.5129 6.1123V11H70.3781ZM79.1504 9.99512H79.0889C78.5648 10.7562 77.7809 11.1367 76.7373 11.1367C75.7575 11.1367 74.9941 10.8018 74.4473 10.1318C73.9049 9.46191 73.6338 8.50944 73.6338 7.27441C73.6338 6.03939 73.9072 5.08008 74.4541 4.39648C75.001 3.71289 75.762 3.37109 76.7373 3.37109C77.7536 3.37109 78.5329 3.74023 79.0752 4.47852H79.1641L79.1162 3.93848L79.0889 3.41211V0.363281H80.2236V11H79.3008L79.1504 9.99512ZM76.8809 10.1865C77.6556 10.1865 78.2161 9.97689 78.5625 9.55762C78.9134 9.13379 79.0889 8.45247 79.0889 7.51367V7.27441C79.0889 6.21257 78.9111 5.45605 78.5557 5.00488C78.2048 4.54915 77.6419 4.32129 76.8672 4.32129C76.2018 4.32129 75.6914 4.58105 75.3359 5.10059C74.985 5.61556 74.8096 6.34473 74.8096 7.28809C74.8096 8.24512 74.985 8.96745 75.3359 9.45508C75.6868 9.94271 76.2018 10.1865 76.8809 10.1865ZM87.4441 11L87.2186 9.93359H87.1639C86.7902 10.403 86.4165 10.722 86.0428 10.8906C85.6736 11.0547 85.2111 11.1367 84.6551 11.1367C83.9122 11.1367 83.3289 10.9453 82.9051 10.5625C82.4858 10.1797 82.2762 9.63509 82.2762 8.92871C82.2762 7.41569 83.4861 6.62272 85.9061 6.5498L87.1775 6.50879V6.04395C87.1775 5.45605 87.0499 5.02311 86.7947 4.74512C86.5441 4.46257 86.1408 4.32129 85.5848 4.32129C84.9604 4.32129 84.254 4.5127 83.4656 4.89551L83.117 4.02734C83.4861 3.82682 83.8895 3.6696 84.327 3.55566C84.769 3.44173 85.2111 3.38477 85.6531 3.38477C86.5464 3.38477 87.2072 3.58301 87.6355 3.97949C88.0685 4.37598 88.285 5.01172 88.285 5.88672V11H87.4441ZM84.8807 10.2002C85.587 10.2002 86.1408 10.0065 86.5418 9.61914C86.9474 9.23177 87.1502 8.68945 87.1502 7.99219V7.31543L86.0154 7.36328C85.1131 7.39518 84.4614 7.53646 84.0603 7.78711C83.6639 8.0332 83.4656 8.41829 83.4656 8.94238C83.4656 9.35254 83.5887 9.66471 83.8348 9.87891C84.0854 10.0931 84.434 10.2002 84.8807 10.2002ZM94.2477 3.37109C94.5803 3.37109 94.8788 3.39844 95.1432 3.45312L94.9859 4.50586C94.676 4.4375 94.4026 4.40332 94.1656 4.40332C93.5595 4.40332 93.04 4.64941 92.607 5.1416C92.1786 5.63379 91.9645 6.24674 91.9645 6.98047V11H90.8297V3.50781H91.7662L91.8961 4.89551H91.9508C92.2288 4.40788 92.5637 4.0319 92.9557 3.76758C93.3476 3.50326 93.7783 3.37109 94.2477 3.37109ZM101.578 8.95605C101.578 9.65332 101.318 10.1911 100.798 10.5693C100.279 10.9476 99.5495 11.1367 98.6107 11.1367C97.6173 11.1367 96.8425 10.9795 96.2865 10.665V9.6123C96.6465 9.7946 97.0316 9.93815 97.4418 10.043C97.8565 10.1478 98.2553 10.2002 98.6381 10.2002C99.2305 10.2002 99.6863 10.1068 100.005 9.91992C100.324 9.72852 100.484 9.43913 100.484 9.05176C100.484 8.76009 100.356 8.51172 100.101 8.30664C99.8503 8.09701 99.3581 7.85091 98.6244 7.56836C97.9271 7.30859 97.4304 7.08301 97.1342 6.8916C96.8425 6.69564 96.6238 6.47461 96.4779 6.22852C96.3367 5.98242 96.266 5.68848 96.266 5.34668C96.266 4.736 96.5144 4.25521 97.0111 3.9043C97.5079 3.54883 98.1892 3.37109 99.0551 3.37109C99.8617 3.37109 100.65 3.53516 101.42 3.86328L101.017 4.78613C100.265 4.47624 99.5837 4.32129 98.973 4.32129C98.4353 4.32129 98.0297 4.4056 97.7562 4.57422C97.4828 4.74284 97.3461 4.97526 97.3461 5.27148C97.3461 5.47201 97.3962 5.6429 97.4965 5.78418C97.6013 5.92546 97.7676 6.0599 97.9955 6.1875C98.2234 6.3151 98.6609 6.49967 99.308 6.74121C100.197 7.06478 100.796 7.39062 101.106 7.71875C101.42 8.04688 101.578 8.45931 101.578 8.95605ZM112.074 11L111.849 9.93359H111.794C111.42 10.403 111.047 10.722 110.673 10.8906C110.304 11.0547 109.841 11.1367 109.285 11.1367C108.542 11.1367 107.959 10.9453 107.535 10.5625C107.116 10.1797 106.906 9.63509 106.906 8.92871C106.906 7.41569 108.116 6.62272 110.536 6.5498L111.808 6.50879V6.04395C111.808 5.45605 111.68 5.02311 111.425 4.74512C111.174 4.46257 110.771 4.32129 110.215 4.32129C109.59 4.32129 108.884 4.5127 108.096 4.89551L107.747 4.02734C108.116 3.82682 108.52 3.6696 108.957 3.55566C109.399 3.44173 109.841 3.38477 110.283 3.38477C111.176 3.38477 111.837 3.58301 112.266 3.97949C112.699 4.37598 112.915 5.01172 112.915 5.88672V11H112.074ZM109.511 10.2002C110.217 10.2002 110.771 10.0065 111.172 9.61914C111.577 9.23177 111.78 8.68945 111.78 7.99219V7.31543L110.646 7.36328C109.743 7.39518 109.091 7.53646 108.69 7.78711C108.294 8.0332 108.096 8.41829 108.096 8.94238C108.096 9.35254 108.219 9.66471 108.465 9.87891C108.715 10.0931 109.064 10.2002 109.511 10.2002ZM118.878 3.37109C119.21 3.37109 119.509 3.39844 119.773 3.45312L119.616 4.50586C119.306 4.4375 119.033 4.40332 118.796 4.40332C118.19 4.40332 117.67 4.64941 117.237 5.1416C116.809 5.63379 116.595 6.24674 116.595 6.98047V11H115.46V3.50781H116.396L116.526 4.89551H116.581C116.859 4.40788 117.194 4.0319 117.586 3.76758C117.978 3.50326 118.408 3.37109 118.878 3.37109ZM124.54 11.1367C123.432 11.1367 122.557 10.7995 121.915 10.125C121.277 9.45052 120.958 8.514 120.958 7.31543C120.958 6.10775 121.254 5.14844 121.846 4.4375C122.443 3.72656 123.243 3.37109 124.246 3.37109C125.185 3.37109 125.927 3.68099 126.474 4.30078C127.021 4.91602 127.295 5.72949 127.295 6.74121V7.45898H122.133C122.156 8.33854 122.377 9.00618 122.796 9.46191C123.22 9.91764 123.815 10.1455 124.581 10.1455C125.387 10.1455 126.185 9.97689 126.973 9.63965V10.6514C126.572 10.8245 126.192 10.9476 125.832 11.0205C125.476 11.098 125.046 11.1367 124.54 11.1367ZM124.232 4.32129C123.63 4.32129 123.15 4.51725 122.79 4.90918C122.434 5.30111 122.225 5.84342 122.161 6.53613H126.078C126.078 5.82064 125.918 5.27376 125.599 4.89551C125.28 4.5127 124.824 4.32129 124.232 4.32129ZM138.372 9.99512H138.311C137.787 10.7562 137.003 11.1367 135.959 11.1367C134.979 11.1367 134.216 10.8018 133.669 10.1318C133.127 9.46191 132.856 8.50944 132.856 7.27441C132.856 6.03939 133.129 5.08008 133.676 4.39648C134.223 3.71289 134.984 3.37109 135.959 3.37109C136.975 3.37109 137.755 3.74023 138.297 4.47852H138.386L138.338 3.93848L138.311 3.41211V0.363281H139.446V11H138.523L138.372 9.99512ZM136.103 10.1865C136.877 10.1865 137.438 9.97689 137.784 9.55762C138.135 9.13379 138.311 8.45247 138.311 7.51367V7.27441C138.311 6.21257 138.133 5.45605 137.778 5.00488C137.427 4.54915 136.864 4.32129 136.089 4.32129C135.424 4.32129 134.913 4.58105 134.558 5.10059C134.207 5.61556 134.031 6.34473 134.031 7.28809C134.031 8.24512 134.207 8.96745 134.558 9.45508C134.909 9.94271 135.424 10.1865 136.103 10.1865ZM145.224 11.1367C144.116 11.1367 143.241 10.7995 142.599 10.125C141.961 9.45052 141.642 8.514 141.642 7.31543C141.642 6.10775 141.938 5.14844 142.53 4.4375C143.127 3.72656 143.927 3.37109 144.93 3.37109C145.868 3.37109 146.611 3.68099 147.158 4.30078C147.705 4.91602 147.979 5.72949 147.979 6.74121V7.45898H142.817C142.84 8.33854 143.061 9.00618 143.48 9.46191C143.904 9.91764 144.499 10.1455 145.265 10.1455C146.071 10.1455 146.869 9.97689 147.657 9.63965V10.6514C147.256 10.8245 146.876 10.9476 146.516 11.0205C146.16 11.098 145.729 11.1367 145.224 11.1367ZM144.916 4.32129C144.314 4.32129 143.834 4.51725 143.474 4.90918C143.118 5.30111 142.909 5.84342 142.845 6.53613H146.762C146.762 5.82064 146.602 5.27376 146.283 4.89551C145.964 4.5127 145.508 4.32129 144.916 4.32129ZM154.953 8.95605C154.953 9.65332 154.693 10.1911 154.174 10.5693C153.654 10.9476 152.925 11.1367 151.986 11.1367C150.993 11.1367 150.218 10.9795 149.662 10.665V9.6123C150.022 9.7946 150.407 9.93815 150.817 10.043C151.232 10.1478 151.631 10.2002 152.013 10.2002C152.606 10.2002 153.062 10.1068 153.381 9.91992C153.7 9.72852 153.859 9.43913 153.859 9.05176C153.859 8.76009 153.732 8.51172 153.476 8.30664C153.226 8.09701 152.734 7.85091 152 7.56836C151.303 7.30859 150.806 7.08301 150.51 6.8916C150.218 6.69564 149.999 6.47461 149.853 6.22852C149.712 5.98242 149.641 5.68848 149.641 5.34668C149.641 4.736 149.89 4.25521 150.387 3.9043C150.883 3.54883 151.565 3.37109 152.43 3.37109C153.237 3.37109 154.026 3.53516 154.796 3.86328L154.392 4.78613C153.64 4.47624 152.959 4.32129 152.348 4.32129C151.811 4.32129 151.405 4.4056 151.132 4.57422C150.858 4.74284 150.721 4.97526 150.721 5.27148C150.721 5.47201 150.772 5.6429 150.872 5.78418C150.977 5.92546 151.143 6.0599 151.371 6.1875C151.599 6.3151 152.036 6.49967 152.683 6.74121C153.572 7.06478 154.171 7.39062 154.481 7.71875C154.796 8.04688 154.953 8.45931 154.953 8.95605ZM158.14 11H157.005V3.50781H158.14V11ZM156.91 1.47754C156.91 1.21777 156.974 1.02865 157.101 0.910156C157.229 0.787109 157.388 0.725586 157.58 0.725586C157.762 0.725586 157.919 0.787109 158.051 0.910156C158.184 1.0332 158.25 1.22233 158.25 1.47754C158.25 1.73275 158.184 1.92415 158.051 2.05176C157.919 2.1748 157.762 2.23633 157.58 2.23633C157.388 2.23633 157.229 2.1748 157.101 2.05176C156.974 1.92415 156.91 1.73275 156.91 1.47754ZM166.878 3.50781V4.22559L165.491 4.38965C165.618 4.54915 165.732 4.75879 165.832 5.01855C165.933 5.27376 165.983 5.56315 165.983 5.88672C165.983 6.62044 165.732 7.20605 165.231 7.64355C164.73 8.08105 164.041 8.2998 163.166 8.2998C162.943 8.2998 162.733 8.28158 162.538 8.24512C162.054 8.50033 161.813 8.82161 161.813 9.20898C161.813 9.41406 161.897 9.56673 162.066 9.66699C162.234 9.7627 162.524 9.81055 162.934 9.81055H164.26C165.071 9.81055 165.693 9.98145 166.126 10.3232C166.564 10.665 166.783 11.1618 166.783 11.8135C166.783 12.6429 166.45 13.2741 165.785 13.707C165.119 14.1445 164.149 14.3633 162.872 14.3633C161.893 14.3633 161.136 14.181 160.603 13.8164C160.074 13.4518 159.81 12.9368 159.81 12.2715C159.81 11.8158 159.956 11.4215 160.247 11.0889C160.539 10.7562 160.949 10.5306 161.478 10.4121C161.287 10.3255 161.125 10.1911 160.993 10.0088C160.865 9.8265 160.801 9.61458 160.801 9.37305C160.801 9.09961 160.874 8.86035 161.02 8.65527C161.166 8.4502 161.396 8.25195 161.71 8.06055C161.323 7.90104 161.006 7.62988 160.76 7.24707C160.519 6.86426 160.398 6.42676 160.398 5.93457C160.398 5.11426 160.644 4.48307 161.136 4.04102C161.628 3.5944 162.326 3.37109 163.228 3.37109C163.62 3.37109 163.973 3.41667 164.288 3.50781H166.878ZM160.904 12.2578C160.904 12.6634 161.075 12.971 161.416 13.1807C161.758 13.3903 162.248 13.4951 162.886 13.4951C163.839 13.4951 164.543 13.3516 164.998 13.0645C165.459 12.7819 165.689 12.3968 165.689 11.9092C165.689 11.5036 165.564 11.221 165.313 11.0615C165.062 10.9066 164.591 10.8291 163.898 10.8291H162.538C162.023 10.8291 161.621 10.9521 161.334 11.1982C161.047 11.4443 160.904 11.7975 160.904 12.2578ZM161.519 5.90723C161.519 6.43132 161.667 6.8278 161.963 7.09668C162.26 7.36556 162.672 7.5 163.201 7.5C164.308 7.5 164.862 6.96224 164.862 5.88672C164.862 4.76107 164.301 4.19824 163.18 4.19824C162.647 4.19824 162.237 4.3418 161.95 4.62891C161.663 4.91602 161.519 5.34212 161.519 5.90723ZM173.743 11V6.15332C173.743 5.54264 173.604 5.08691 173.326 4.78613C173.048 4.48535 172.613 4.33496 172.021 4.33496C171.237 4.33496 170.663 4.54688 170.298 4.9707C169.933 5.39453 169.751 6.09408 169.751 7.06934V11H168.616V3.50781H169.539L169.724 4.5332H169.779C170.011 4.16406 170.337 3.87923 170.756 3.67871C171.175 3.47363 171.642 3.37109 172.157 3.37109C173.06 3.37109 173.739 3.58984 174.195 4.02734C174.65 4.46029 174.878 5.15527 174.878 6.1123V11H173.743ZM180.581 11.1367C179.474 11.1367 178.599 10.7995 177.956 10.125C177.318 9.45052 176.999 8.514 176.999 7.31543C176.999 6.10775 177.295 5.14844 177.888 4.4375C178.485 3.72656 179.285 3.37109 180.287 3.37109C181.226 3.37109 181.969 3.68099 182.516 4.30078C183.062 4.91602 183.336 5.72949 183.336 6.74121V7.45898H178.175C178.198 8.33854 178.419 9.00618 178.838 9.46191C179.262 9.91764 179.856 10.1455 180.622 10.1455C181.429 10.1455 182.226 9.97689 183.015 9.63965V10.6514C182.614 10.8245 182.233 10.9476 181.873 11.0205C181.518 11.098 181.087 11.1367 180.581 11.1367ZM180.273 4.32129C179.672 4.32129 179.191 4.51725 178.831 4.90918C178.476 5.30111 178.266 5.84342 178.202 6.53613H182.119C182.119 5.82064 181.96 5.27376 181.641 4.89551C181.322 4.5127 180.866 4.32129 180.273 4.32129ZM190.577 9.99512H190.515C189.991 10.7562 189.207 11.1367 188.164 11.1367C187.184 11.1367 186.421 10.8018 185.874 10.1318C185.332 9.46191 185.06 8.50944 185.06 7.27441C185.06 6.03939 185.334 5.08008 185.881 4.39648C186.428 3.71289 187.189 3.37109 188.164 3.37109C189.18 3.37109 189.959 3.74023 190.502 4.47852H190.591L190.543 3.93848L190.515 3.41211V0.363281H191.65V11H190.727L190.577 9.99512ZM188.307 10.1865C189.082 10.1865 189.643 9.97689 189.989 9.55762C190.34 9.13379 190.515 8.45247 190.515 7.51367V7.27441C190.515 6.21257 190.338 5.45605 189.982 5.00488C189.631 4.54915 189.068 4.32129 188.294 4.32129C187.628 4.32129 187.118 4.58105 186.762 5.10059C186.412 5.61556 186.236 6.34473 186.236 7.28809C186.236 8.24512 186.412 8.96745 186.762 9.45508C187.113 9.94271 187.628 10.1865 188.307 10.1865ZM201.477 4.38965H199.57V11H198.435V4.38965H197.095V3.87695L198.435 3.4668V3.0498C198.435 1.20866 199.239 0.288086 200.848 0.288086C201.245 0.288086 201.709 0.367839 202.243 0.527344L201.949 1.43652C201.511 1.29525 201.137 1.22461 200.828 1.22461C200.399 1.22461 200.082 1.36816 199.877 1.65527C199.672 1.93783 199.57 2.39355 199.57 3.02246V3.50781H201.477V4.38965ZM209.511 7.24707C209.511 8.46842 209.203 9.42318 208.588 10.1113C207.973 10.7949 207.123 11.1367 206.038 11.1367C205.368 11.1367 204.774 10.9795 204.254 10.665C203.735 10.3506 203.334 9.89941 203.051 9.31152C202.768 8.72363 202.627 8.03548 202.627 7.24707C202.627 6.02572 202.932 5.07552 203.543 4.39648C204.154 3.71289 205.002 3.37109 206.086 3.37109C207.134 3.37109 207.966 3.71973 208.581 4.41699C209.201 5.11426 209.511 6.05762 209.511 7.24707ZM203.803 7.24707C203.803 8.2041 203.994 8.93327 204.377 9.43457C204.76 9.93587 205.323 10.1865 206.066 10.1865C206.808 10.1865 207.371 9.93815 207.754 9.44141C208.141 8.9401 208.335 8.20866 208.335 7.24707C208.335 6.2946 208.141 5.57227 207.754 5.08008C207.371 4.58333 206.804 4.33496 206.052 4.33496C205.309 4.33496 204.749 4.57878 204.37 5.06641C203.992 5.55404 203.803 6.28092 203.803 7.24707ZM215.125 3.37109C215.458 3.37109 215.756 3.39844 216.021 3.45312L215.863 4.50586C215.553 4.4375 215.28 4.40332 215.043 4.40332C214.437 4.40332 213.917 4.64941 213.484 5.1416C213.056 5.63379 212.842 6.24674 212.842 6.98047V11H211.707V3.50781H212.644L212.773 4.89551H212.828C213.106 4.40788 213.441 4.0319 213.833 3.76758C214.225 3.50326 214.656 3.37109 215.125 3.37109ZM223.879 10.2002C224.079 10.2002 224.273 10.1865 224.46 10.1592C224.646 10.1273 224.795 10.0954 224.904 10.0635V10.9316C224.781 10.9909 224.599 11.0387 224.357 11.0752C224.12 11.1162 223.906 11.1367 223.714 11.1367C222.265 11.1367 221.541 10.3734 221.541 8.84668V4.38965H220.467V3.84277L221.541 3.37109L222.019 1.77148H222.675V3.50781H224.849V4.38965H222.675V8.79883C222.675 9.25 222.782 9.59635 222.997 9.83789C223.211 10.0794 223.505 10.2002 223.879 10.2002ZM229.773 11.1367C228.665 11.1367 227.79 10.7995 227.148 10.125C226.51 9.45052 226.191 8.514 226.191 7.31543C226.191 6.10775 226.487 5.14844 227.079 4.4375C227.677 3.72656 228.476 3.37109 229.479 3.37109C230.418 3.37109 231.161 3.68099 231.707 4.30078C232.254 4.91602 232.528 5.72949 232.528 6.74121V7.45898H227.367C227.389 8.33854 227.61 9.00618 228.03 9.46191C228.454 9.91764 229.048 10.1455 229.814 10.1455C230.621 10.1455 231.418 9.97689 232.206 9.63965V10.6514C231.805 10.8245 231.425 10.9476 231.065 11.0205C230.709 11.098 230.279 11.1367 229.773 11.1367ZM229.465 4.32129C228.864 4.32129 228.383 4.51725 228.023 4.90918C227.667 5.30111 227.458 5.84342 227.394 6.53613H231.311C231.311 5.82064 231.151 5.27376 230.832 4.89551C230.513 4.5127 230.058 4.32129 229.465 4.32129ZM239.277 11L239.051 9.93359H238.996C238.623 10.403 238.249 10.722 237.875 10.8906C237.506 11.0547 237.043 11.1367 236.488 11.1367C235.745 11.1367 235.161 10.9453 234.738 10.5625C234.318 10.1797 234.109 9.63509 234.109 8.92871C234.109 7.41569 235.319 6.62272 237.738 6.5498L239.01 6.50879V6.04395C239.01 5.45605 238.882 5.02311 238.627 4.74512C238.377 4.46257 237.973 4.32129 237.417 4.32129C236.793 4.32129 236.086 4.5127 235.298 4.89551L234.949 4.02734C235.319 3.82682 235.722 3.6696 236.159 3.55566C236.601 3.44173 237.043 3.38477 237.486 3.38477C238.379 3.38477 239.04 3.58301 239.468 3.97949C239.901 4.37598 240.117 5.01172 240.117 5.88672V11H239.277ZM236.713 10.2002C237.419 10.2002 237.973 10.0065 238.374 9.61914C238.78 9.23177 238.983 8.68945 238.983 7.99219V7.31543L237.848 7.36328C236.946 7.39518 236.294 7.53646 235.893 7.78711C235.496 8.0332 235.298 8.41829 235.298 8.94238C235.298 9.35254 235.421 9.66471 235.667 9.87891C235.918 10.0931 236.266 10.2002 236.713 10.2002ZM252.212 11V6.12598C252.212 5.52897 252.084 5.08236 251.829 4.78613C251.574 4.48535 251.177 4.33496 250.64 4.33496C249.933 4.33496 249.411 4.53776 249.074 4.94336C248.737 5.34896 248.568 5.97331 248.568 6.81641V11H247.434V6.12598C247.434 5.52897 247.306 5.08236 247.051 4.78613C246.796 4.48535 246.397 4.33496 245.854 4.33496C245.144 4.33496 244.622 4.54915 244.289 4.97754C243.961 5.40137 243.797 6.09863 243.797 7.06934V11H242.662V3.50781H243.585L243.77 4.5332H243.824C244.038 4.16862 244.339 3.88379 244.727 3.67871C245.118 3.47363 245.556 3.37109 246.039 3.37109C247.21 3.37109 247.976 3.79492 248.336 4.64258H248.391C248.614 4.25065 248.938 3.94076 249.361 3.71289C249.785 3.48503 250.268 3.37109 250.811 3.37109C251.658 3.37109 252.292 3.58984 252.711 4.02734C253.135 4.46029 253.347 5.15527 253.347 6.1123V11H252.212ZM260.724 8.95605C260.724 9.65332 260.465 10.1911 259.945 10.5693C259.426 10.9476 258.696 11.1367 257.758 11.1367C256.764 11.1367 255.989 10.9795 255.433 10.665V9.6123C255.793 9.7946 256.179 9.93815 256.589 10.043C257.003 10.1478 257.402 10.2002 257.785 10.2002C258.377 10.2002 258.833 10.1068 259.152 9.91992C259.471 9.72852 259.631 9.43913 259.631 9.05176C259.631 8.76009 259.503 8.51172 259.248 8.30664C258.997 8.09701 258.505 7.85091 257.771 7.56836C257.074 7.30859 256.577 7.08301 256.281 6.8916C255.989 6.69564 255.771 6.47461 255.625 6.22852C255.484 5.98242 255.413 5.68848 255.413 5.34668C255.413 4.736 255.661 4.25521 256.158 3.9043C256.655 3.54883 257.336 3.37109 258.202 3.37109C259.009 3.37109 259.797 3.53516 260.567 3.86328L260.164 4.78613C259.412 4.47624 258.731 4.32129 258.12 4.32129C257.582 4.32129 257.177 4.4056 256.903 4.57422C256.63 4.74284 256.493 4.97526 256.493 5.27148C256.493 5.47201 256.543 5.6429 256.643 5.78418C256.748 5.92546 256.915 6.0599 257.142 6.1875C257.37 6.3151 257.808 6.49967 258.455 6.74121C259.344 7.06478 259.943 7.39062 260.253 7.71875C260.567 8.04688 260.724 8.45931 260.724 8.95605ZM262.613 10.2754C262.613 9.97005 262.681 9.73991 262.818 9.58496C262.959 9.42546 263.16 9.3457 263.42 9.3457C263.684 9.3457 263.889 9.42546 264.035 9.58496C264.185 9.73991 264.26 9.97005 264.26 10.2754C264.26 10.5716 264.185 10.7995 264.035 10.959C263.884 11.1185 263.679 11.1982 263.42 11.1982C263.187 11.1982 262.993 11.1276 262.838 10.9863C262.688 10.8405 262.613 10.6035 262.613 10.2754ZM276.357 8.34082C276.357 9.22038 276.038 9.90625 275.4 10.3984C274.762 10.8906 273.896 11.1367 272.802 11.1367C271.617 11.1367 270.706 10.984 270.068 10.6787V9.55762C270.478 9.73079 270.924 9.86751 271.407 9.96777C271.89 10.068 272.369 10.1182 272.843 10.1182C273.618 10.1182 274.201 9.97233 274.593 9.68066C274.985 9.38444 275.181 8.97428 275.181 8.4502C275.181 8.10384 275.11 7.82129 274.969 7.60254C274.832 7.37923 274.6 7.17415 274.272 6.9873C273.948 6.80046 273.454 6.58854 272.788 6.35156C271.859 6.01888 271.193 5.62467 270.792 5.16895C270.396 4.71322 270.197 4.11849 270.197 3.38477C270.197 2.61458 270.487 2.00163 271.066 1.5459C271.644 1.09017 272.41 0.862305 273.362 0.862305C274.356 0.862305 275.27 1.0446 276.104 1.40918L275.741 2.4209C274.917 2.07454 274.114 1.90137 273.335 1.90137C272.72 1.90137 272.239 2.03353 271.893 2.29785C271.546 2.56217 271.373 2.92904 271.373 3.39844C271.373 3.74479 271.437 4.02962 271.565 4.25293C271.692 4.47168 271.906 4.67448 272.207 4.86133C272.513 5.04362 272.977 5.24642 273.602 5.46973C274.65 5.84342 275.37 6.24447 275.762 6.67285C276.158 7.10124 276.357 7.65723 276.357 8.34082ZM279.564 11H278.43V0.363281H279.564V11ZM286.778 11L286.553 9.93359H286.498C286.124 10.403 285.75 10.722 285.377 10.8906C285.008 11.0547 284.545 11.1367 283.989 11.1367C283.246 11.1367 282.663 10.9453 282.239 10.5625C281.82 10.1797 281.61 9.63509 281.61 8.92871C281.61 7.41569 282.82 6.62272 285.24 6.5498L286.512 6.50879V6.04395C286.512 5.45605 286.384 5.02311 286.129 4.74512C285.878 4.46257 285.475 4.32129 284.919 4.32129C284.294 4.32129 283.588 4.5127 282.8 4.89551L282.451 4.02734C282.82 3.82682 283.223 3.6696 283.661 3.55566C284.103 3.44173 284.545 3.38477 284.987 3.38477C285.88 3.38477 286.541 3.58301 286.97 3.97949C287.402 4.37598 287.619 5.01172 287.619 5.88672V11H286.778ZM284.215 10.2002C284.921 10.2002 285.475 10.0065 285.876 9.61914C286.281 9.23177 286.484 8.68945 286.484 7.99219V7.31543L285.349 7.36328C284.447 7.39518 283.795 7.53646 283.394 7.78711C282.998 8.0332 282.8 8.41829 282.8 8.94238C282.8 9.35254 282.923 9.66471 283.169 9.87891C283.419 10.0931 283.768 10.2002 284.215 10.2002ZM292.584 10.2002C292.784 10.2002 292.978 10.1865 293.165 10.1592C293.351 10.1273 293.5 10.0954 293.609 10.0635V10.9316C293.486 10.9909 293.304 11.0387 293.062 11.0752C292.825 11.1162 292.611 11.1367 292.42 11.1367C290.97 11.1367 290.246 10.3734 290.246 8.84668V4.38965H289.172V3.84277L290.246 3.37109L290.724 1.77148H291.38V3.50781H293.554V4.38965H291.38V8.79883C291.38 9.25 291.488 9.59635 291.702 9.83789C291.916 10.0794 292.21 10.2002 292.584 10.2002ZM298.478 11.1367C297.371 11.1367 296.496 10.7995 295.853 10.125C295.215 9.45052 294.896 8.514 294.896 7.31543C294.896 6.10775 295.192 5.14844 295.785 4.4375C296.382 3.72656 297.181 3.37109 298.184 3.37109C299.123 3.37109 299.866 3.68099 300.413 4.30078C300.959 4.91602 301.233 5.72949 301.233 6.74121V7.45898H296.072C296.094 8.33854 296.316 9.00618 296.735 9.46191C297.159 9.91764 297.753 10.1455 298.519 10.1455C299.326 10.1455 300.123 9.97689 300.912 9.63965V10.6514C300.51 10.8245 300.13 10.9476 299.77 11.0205C299.414 11.098 298.984 11.1367 298.478 11.1367ZM298.17 4.32129C297.569 4.32129 297.088 4.51725 296.728 4.90918C296.372 5.30111 296.163 5.84342 296.099 6.53613H300.016C300.016 5.82064 299.857 5.27376 299.538 4.89551C299.218 4.5127 298.763 4.32129 298.17 4.32129ZM2.33789 31H1.20312V23.5078H2.33789V31ZM1.10742 21.4775C1.10742 21.2178 1.17122 21.0286 1.29883 20.9102C1.42643 20.7871 1.58594 20.7256 1.77734 20.7256C1.95964 20.7256 2.11686 20.7871 2.24902 20.9102C2.38118 21.0332 2.44727 21.2223 2.44727 21.4775C2.44727 21.7327 2.38118 21.9242 2.24902 22.0518C2.11686 22.1748 1.95964 22.2363 1.77734 22.2363C1.58594 22.2363 1.42643 22.1748 1.29883 22.0518C1.17122 21.9242 1.10742 21.7327 1.10742 21.4775ZM9.77715 28.9561C9.77715 29.6533 9.51738 30.1911 8.99785 30.5693C8.47832 30.9476 7.74915 31.1367 6.81035 31.1367C5.81686 31.1367 5.04212 30.9795 4.48613 30.665V29.6123C4.84616 29.7946 5.23125 29.9382 5.64141 30.043C6.05612 30.1478 6.45488 30.2002 6.8377 30.2002C7.43014 30.2002 7.88587 30.1068 8.20488 29.9199C8.52389 29.7285 8.6834 29.4391 8.6834 29.0518C8.6834 28.7601 8.55579 28.5117 8.30059 28.3066C8.04993 28.097 7.55775 27.8509 6.82402 27.5684C6.12676 27.3086 5.63001 27.083 5.33379 26.8916C5.04212 26.6956 4.82337 26.4746 4.67754 26.2285C4.53626 25.9824 4.46563 25.6885 4.46563 25.3467C4.46563 24.736 4.714 24.2552 5.21074 23.9043C5.70749 23.5488 6.3888 23.3711 7.25469 23.3711C8.06133 23.3711 8.84974 23.5352 9.61992 23.8633L9.2166 24.7861C8.46465 24.4762 7.78333 24.3213 7.17266 24.3213C6.6349 24.3213 6.2293 24.4056 5.95586 24.5742C5.68242 24.7428 5.5457 24.9753 5.5457 25.2715C5.5457 25.472 5.59583 25.6429 5.69609 25.7842C5.80091 25.9255 5.96725 26.0599 6.19512 26.1875C6.42298 26.3151 6.86048 26.4997 7.50762 26.7412C8.39629 27.0648 8.99557 27.3906 9.30547 27.7188C9.61992 28.0469 9.77715 28.4593 9.77715 28.9561ZM20.766 29.9951H20.7045C20.1804 30.7562 19.3965 31.1367 18.3529 31.1367C17.3731 31.1367 16.6098 30.8018 16.0629 30.1318C15.5206 29.4619 15.2494 28.5094 15.2494 27.2744C15.2494 26.0394 15.5229 25.0801 16.0697 24.3965C16.6166 23.7129 17.3777 23.3711 18.3529 23.3711C19.3692 23.3711 20.1485 23.7402 20.6908 24.4785H20.7797L20.7318 23.9385L20.7045 23.4121V20.3633H21.8393V31H20.9164L20.766 29.9951ZM18.4965 30.1865C19.2712 30.1865 19.8318 29.9769 20.1781 29.5576C20.529 29.1338 20.7045 28.4525 20.7045 27.5137V27.2744C20.7045 26.2126 20.5268 25.4561 20.1713 25.0049C19.8204 24.5492 19.2576 24.3213 18.4828 24.3213C17.8174 24.3213 17.307 24.5811 16.9516 25.1006C16.6007 25.6156 16.4252 26.3447 16.4252 27.2881C16.4252 28.2451 16.6007 28.9674 16.9516 29.4551C17.3025 29.9427 17.8174 30.1865 18.4965 30.1865ZM27.6174 31.1367C26.51 31.1367 25.635 30.7995 24.9924 30.125C24.3544 29.4505 24.0354 28.514 24.0354 27.3154C24.0354 26.1077 24.3316 25.1484 24.924 24.4375C25.521 23.7266 26.3208 23.3711 27.3234 23.3711C28.2622 23.3711 29.0051 23.681 29.552 24.3008C30.0988 24.916 30.3723 25.7295 30.3723 26.7412V27.459H25.2111C25.2339 28.3385 25.4549 29.0062 25.8742 29.4619C26.298 29.9176 26.8928 30.1455 27.6584 30.1455C28.465 30.1455 29.2626 29.9769 30.051 29.6396V30.6514C29.6499 30.8245 29.2694 30.9476 28.9094 31.0205C28.5539 31.098 28.1232 31.1367 27.6174 31.1367ZM27.3098 24.3213C26.7082 24.3213 26.2274 24.5173 25.8674 24.9092C25.5119 25.3011 25.3023 25.8434 25.2385 26.5361H29.1555C29.1555 25.8206 28.996 25.2738 28.677 24.8955C28.3579 24.5127 27.9022 24.3213 27.3098 24.3213ZM37.3467 28.9561C37.3467 29.6533 37.0869 30.1911 36.5674 30.5693C36.0479 30.9476 35.3187 31.1367 34.3799 31.1367C33.3864 31.1367 32.6117 30.9795 32.0557 30.665V29.6123C32.4157 29.7946 32.8008 29.9382 33.2109 30.043C33.6257 30.1478 34.0244 30.2002 34.4072 30.2002C34.9997 30.2002 35.4554 30.1068 35.7744 29.9199C36.0934 29.7285 36.2529 29.4391 36.2529 29.0518C36.2529 28.7601 36.1253 28.5117 35.8701 28.3066C35.6195 28.097 35.1273 27.8509 34.3936 27.5684C33.6963 27.3086 33.1995 27.083 32.9033 26.8916C32.6117 26.6956 32.3929 26.4746 32.2471 26.2285C32.1058 25.9824 32.0352 25.6885 32.0352 25.3467C32.0352 24.736 32.2835 24.2552 32.7803 23.9043C33.277 23.5488 33.9583 23.3711 34.8242 23.3711C35.6309 23.3711 36.4193 23.5352 37.1895 23.8633L36.7861 24.7861C36.0342 24.4762 35.3529 24.3213 34.7422 24.3213C34.2044 24.3213 33.7988 24.4056 33.5254 24.5742C33.252 24.7428 33.1152 24.9753 33.1152 25.2715C33.1152 25.472 33.1654 25.6429 33.2656 25.7842C33.3704 25.9255 33.5368 26.0599 33.7646 26.1875C33.9925 26.3151 34.43 26.4997 35.0771 26.7412C35.9658 27.0648 36.5651 27.3906 36.875 27.7188C37.1895 28.0469 37.3467 28.4593 37.3467 28.9561ZM40.534 31H39.3992V23.5078H40.534V31ZM39.3035 21.4775C39.3035 21.2178 39.3673 21.0286 39.4949 20.9102C39.6225 20.7871 39.782 20.7256 39.9734 20.7256C40.1557 20.7256 40.313 20.7871 40.4451 20.9102C40.5773 21.0332 40.6434 21.2223 40.6434 21.4775C40.6434 21.7327 40.5773 21.9242 40.4451 22.0518C40.313 22.1748 40.1557 22.2363 39.9734 22.2363C39.782 22.2363 39.6225 22.1748 39.4949 22.0518C39.3673 21.9242 39.3035 21.7327 39.3035 21.4775ZM49.2721 23.5078V24.2256L47.8844 24.3896C48.012 24.5492 48.1259 24.7588 48.2262 25.0186C48.3264 25.2738 48.3766 25.5632 48.3766 25.8867C48.3766 26.6204 48.1259 27.2061 47.6246 27.6436C47.1233 28.0811 46.4352 28.2998 45.5602 28.2998C45.3369 28.2998 45.1272 28.2816 44.9313 28.2451C44.4482 28.5003 44.2066 28.8216 44.2066 29.209C44.2066 29.4141 44.291 29.5667 44.4596 29.667C44.6282 29.7627 44.9176 29.8105 45.3277 29.8105H46.6539C47.4651 29.8105 48.0872 29.9814 48.5201 30.3232C48.9576 30.665 49.1764 31.1618 49.1764 31.8135C49.1764 32.6429 48.8437 33.2741 48.1783 33.707C47.513 34.1445 46.5423 34.3633 45.2662 34.3633C44.2864 34.3633 43.5299 34.181 42.9967 33.8164C42.468 33.4518 42.2037 32.9368 42.2037 32.2715C42.2037 31.8158 42.3495 31.4215 42.6412 31.0889C42.9329 30.7562 43.343 30.5306 43.8717 30.4121C43.6803 30.3255 43.5185 30.1911 43.3863 30.0088C43.2587 29.8265 43.1949 29.6146 43.1949 29.373C43.1949 29.0996 43.2678 28.8604 43.4137 28.6553C43.5595 28.4502 43.7896 28.252 44.1041 28.0605C43.7167 27.901 43.4 27.6299 43.1539 27.2471C42.9124 26.8643 42.7916 26.4268 42.7916 25.9346C42.7916 25.1143 43.0377 24.4831 43.5299 24.041C44.0221 23.5944 44.7193 23.3711 45.6217 23.3711C46.0136 23.3711 46.3668 23.4167 46.6813 23.5078H49.2721ZM43.2975 32.2578C43.2975 32.6634 43.4684 32.971 43.8102 33.1807C44.152 33.3903 44.6419 33.4951 45.2799 33.4951C46.2324 33.4951 46.9365 33.3516 47.3922 33.0645C47.8525 32.7819 48.0826 32.3968 48.0826 31.9092C48.0826 31.5036 47.9573 31.221 47.7066 31.0615C47.456 30.9066 46.9843 30.8291 46.2916 30.8291H44.9313C44.4163 30.8291 44.0152 30.9521 43.7281 31.1982C43.441 31.4443 43.2975 31.7975 43.2975 32.2578ZM43.9127 25.9072C43.9127 26.4313 44.0608 26.8278 44.357 27.0967C44.6533 27.3656 45.0657 27.5 45.5943 27.5C46.7018 27.5 47.2555 26.9622 47.2555 25.8867C47.2555 24.7611 46.6949 24.1982 45.5738 24.1982C45.0406 24.1982 44.6305 24.3418 44.3434 24.6289C44.0563 24.916 43.9127 25.3421 43.9127 25.9072ZM56.1371 31V26.1533C56.1371 25.5426 55.9981 25.0869 55.7201 24.7861C55.4421 24.4854 55.0069 24.335 54.4145 24.335C53.6306 24.335 53.0564 24.5469 52.6918 24.9707C52.3272 25.3945 52.1449 26.0941 52.1449 27.0693V31H51.0102V23.5078H51.933L52.1176 24.5332H52.1723C52.4047 24.1641 52.7305 23.8792 53.1498 23.6787C53.5691 23.4736 54.0362 23.3711 54.5512 23.3711C55.4535 23.3711 56.1326 23.5898 56.5883 24.0273C57.044 24.4603 57.2719 25.1553 57.2719 26.1123V31H56.1371ZM62.9748 31.1367C61.8674 31.1367 60.9924 30.7995 60.3498 30.125C59.7118 29.4505 59.3928 28.514 59.3928 27.3154C59.3928 26.1077 59.689 25.1484 60.2814 24.4375C60.8784 23.7266 61.6783 23.3711 62.6809 23.3711C63.6197 23.3711 64.3625 23.681 64.9094 24.3008C65.4562 24.916 65.7297 25.7295 65.7297 26.7412V27.459H60.5686C60.5913 28.3385 60.8124 29.0062 61.2316 29.4619C61.6555 29.9176 62.2502 30.1455 63.0158 30.1455C63.8225 30.1455 64.62 29.9769 65.4084 29.6396V30.6514C65.0074 30.8245 64.6268 30.9476 64.2668 31.0205C63.9113 31.098 63.4807 31.1367 62.9748 31.1367ZM62.6672 24.3213C62.0656 24.3213 61.5848 24.5173 61.2248 24.9092C60.8693 25.3011 60.6597 25.8434 60.5959 26.5361H64.5129C64.5129 25.8206 64.3534 25.2738 64.0344 24.8955C63.7154 24.5127 63.2596 24.3213 62.6672 24.3213ZM72.9707 29.9951H72.9092C72.3851 30.7562 71.6012 31.1367 70.5576 31.1367C69.5778 31.1367 68.8145 30.8018 68.2676 30.1318C67.7253 29.4619 67.4541 28.5094 67.4541 27.2744C67.4541 26.0394 67.7275 25.0801 68.2744 24.3965C68.8213 23.7129 69.5824 23.3711 70.5576 23.3711C71.5739 23.3711 72.3532 23.7402 72.8955 24.4785H72.9844L72.9365 23.9385L72.9092 23.4121V20.3633H74.0439V31H73.1211L72.9707 29.9951ZM70.7012 30.1865C71.4759 30.1865 72.0365 29.9769 72.3828 29.5576C72.7337 29.1338 72.9092 28.4525 72.9092 27.5137V27.2744C72.9092 26.2126 72.7314 25.4561 72.376 25.0049C72.0251 24.5492 71.4622 24.3213 70.6875 24.3213C70.0221 24.3213 69.5117 24.5811 69.1562 25.1006C68.8053 25.6156 68.6299 26.3447 68.6299 27.2881C68.6299 28.2451 68.8053 28.9674 69.1562 29.4551C69.5072 29.9427 70.0221 30.1865 70.7012 30.1865ZM83.8707 24.3896H81.9635V31H80.8287V24.3896H79.4889V23.877L80.8287 23.4668V23.0498C80.8287 21.2087 81.6331 20.2881 83.2418 20.2881C83.6383 20.2881 84.1031 20.3678 84.6363 20.5273L84.3424 21.4365C83.9049 21.2952 83.5312 21.2246 83.2213 21.2246C82.7929 21.2246 82.4762 21.3682 82.2711 21.6553C82.066 21.9378 81.9635 22.3936 81.9635 23.0225V23.5078H83.8707V24.3896ZM91.9047 27.2471C91.9047 28.4684 91.5971 29.4232 90.9818 30.1113C90.3666 30.7949 89.5167 31.1367 88.432 31.1367C87.7621 31.1367 87.1674 30.9795 86.6479 30.665C86.1283 30.3506 85.7273 29.8994 85.4447 29.3115C85.1622 28.7236 85.0209 28.0355 85.0209 27.2471C85.0209 26.0257 85.3262 25.0755 85.9369 24.3965C86.5476 23.7129 87.3952 23.3711 88.4799 23.3711C89.5281 23.3711 90.3598 23.7197 90.975 24.417C91.5948 25.1143 91.9047 26.0576 91.9047 27.2471ZM86.1967 27.2471C86.1967 28.2041 86.3881 28.9333 86.7709 29.4346C87.1537 29.9359 87.7165 30.1865 88.4594 30.1865C89.2022 30.1865 89.765 29.9382 90.1479 29.4414C90.5352 28.9401 90.7289 28.2087 90.7289 27.2471C90.7289 26.2946 90.5352 25.5723 90.1479 25.0801C89.765 24.5833 89.1977 24.335 88.4457 24.335C87.7029 24.335 87.1423 24.5788 86.7641 25.0664C86.3858 25.554 86.1967 26.2809 86.1967 27.2471ZM97.5188 23.3711C97.8514 23.3711 98.1499 23.3984 98.4143 23.4531L98.257 24.5059C97.9471 24.4375 97.6737 24.4033 97.4367 24.4033C96.8306 24.4033 96.3111 24.6494 95.8781 25.1416C95.4497 25.6338 95.2355 26.2467 95.2355 26.9805V31H94.1008V23.5078H95.0373L95.1672 24.8955H95.2219C95.4999 24.4079 95.8348 24.0319 96.2268 23.7676C96.6187 23.5033 97.0494 23.3711 97.5188 23.3711ZM107.229 24.3896H105.322V31H104.187V24.3896H102.847V23.877L104.187 23.4668V23.0498C104.187 21.2087 104.992 20.2881 106.6 20.2881C106.997 20.2881 107.462 20.3678 107.995 20.5273L107.701 21.4365C107.263 21.2952 106.89 21.2246 106.58 21.2246C106.151 21.2246 105.835 21.3682 105.63 21.6553C105.425 21.9378 105.322 22.3936 105.322 23.0225V23.5078H107.229V24.3896ZM112.214 23.3711C112.547 23.3711 112.846 23.3984 113.11 23.4531L112.953 24.5059C112.643 24.4375 112.369 24.4033 112.132 24.4033C111.526 24.4033 111.007 24.6494 110.574 25.1416C110.145 25.6338 109.931 26.2467 109.931 26.9805V31H108.796V23.5078H109.733L109.863 24.8955H109.918C110.196 24.4079 110.531 24.0319 110.922 23.7676C111.314 23.5033 111.745 23.3711 112.214 23.3711ZM117.876 31.1367C116.769 31.1367 115.894 30.7995 115.251 30.125C114.613 29.4505 114.294 28.514 114.294 27.3154C114.294 26.1077 114.591 25.1484 115.183 24.4375C115.78 23.7266 116.58 23.3711 117.582 23.3711C118.521 23.3711 119.264 23.681 119.811 24.3008C120.358 24.916 120.631 25.7295 120.631 26.7412V27.459H115.47C115.493 28.3385 115.714 29.0062 116.133 29.4619C116.557 29.9176 117.152 30.1455 117.917 30.1455C118.724 30.1455 119.522 29.9769 120.31 29.6396V30.6514C119.909 30.8245 119.528 30.9476 119.168 31.0205C118.813 31.098 118.382 31.1367 117.876 31.1367ZM117.569 24.3213C116.967 24.3213 116.486 24.5173 116.126 24.9092C115.771 25.3011 115.561 25.8434 115.497 26.5361H119.414C119.414 25.8206 119.255 25.2738 118.936 24.8955C118.617 24.5127 118.161 24.3213 117.569 24.3213ZM125.938 31.1367C124.83 31.1367 123.955 30.7995 123.313 30.125C122.675 29.4505 122.356 28.514 122.356 27.3154C122.356 26.1077 122.652 25.1484 123.244 24.4375C123.841 23.7266 124.641 23.3711 125.644 23.3711C126.583 23.3711 127.325 23.681 127.872 24.3008C128.419 24.916 128.693 25.7295 128.693 26.7412V27.459H123.531C123.554 28.3385 123.775 29.0062 124.195 29.4619C124.618 29.9176 125.213 30.1455 125.979 30.1455C126.785 30.1455 127.583 29.9769 128.371 29.6396V30.6514C127.97 30.8245 127.59 30.9476 127.23 31.0205C126.874 31.098 126.444 31.1367 125.938 31.1367ZM125.63 24.3213C125.029 24.3213 124.548 24.5173 124.188 24.9092C123.832 25.3011 123.623 25.8434 123.559 26.5361H127.476C127.476 25.8206 127.316 25.2738 126.997 24.8955C126.678 24.5127 126.223 24.3213 125.63 24.3213ZM131.969 31H130.834V20.3633H131.969V31ZM139.182 31L138.957 29.9336H138.902C138.528 30.403 138.155 30.722 137.781 30.8906C137.412 31.0547 136.949 31.1367 136.393 31.1367C135.651 31.1367 135.067 30.9453 134.643 30.5625C134.224 30.1797 134.014 29.6351 134.014 28.9287C134.014 27.4157 135.224 26.6227 137.644 26.5498L138.916 26.5088V26.0439C138.916 25.4561 138.788 25.0231 138.533 24.7451C138.282 24.4626 137.879 24.3213 137.323 24.3213C136.699 24.3213 135.992 24.5127 135.204 24.8955L134.855 24.0273C135.224 23.8268 135.628 23.6696 136.065 23.5557C136.507 23.4417 136.949 23.3848 137.391 23.3848C138.285 23.3848 138.945 23.583 139.374 23.9795C139.807 24.376 140.023 25.0117 140.023 25.8867V31H139.182ZM136.619 30.2002C137.325 30.2002 137.879 30.0065 138.28 29.6191C138.686 29.2318 138.888 28.6895 138.888 27.9922V27.3154L137.754 27.3633C136.851 27.3952 136.2 27.5365 135.799 27.7871C135.402 28.0332 135.204 28.4183 135.204 28.9424C135.204 29.3525 135.327 29.6647 135.573 29.8789C135.824 30.0931 136.172 30.2002 136.619 30.2002ZM147.695 31V26.1533C147.695 25.5426 147.556 25.0869 147.278 24.7861C147 24.4854 146.565 24.335 145.972 24.335C145.188 24.335 144.614 24.5469 144.25 24.9707C143.885 25.3945 143.703 26.0941 143.703 27.0693V31H142.568V23.5078H143.491L143.675 24.5332H143.73C143.962 24.1641 144.288 23.8792 144.708 23.6787C145.127 23.4736 145.594 23.3711 146.109 23.3711C147.011 23.3711 147.69 23.5898 148.146 24.0273C148.602 24.4603 148.83 25.1553 148.83 26.1123V31H147.695ZM154.362 31.1367C153.277 31.1367 152.436 30.804 151.839 30.1387C151.247 29.4688 150.951 28.5231 150.951 27.3018C150.951 26.0485 151.251 25.0801 151.853 24.3965C152.459 23.7129 153.32 23.3711 154.437 23.3711C154.797 23.3711 155.157 23.4098 155.517 23.4873C155.877 23.5648 156.16 23.6559 156.365 23.7607L156.016 24.7246C155.765 24.6243 155.492 24.5423 155.196 24.4785C154.899 24.4102 154.637 24.376 154.41 24.376C152.887 24.376 152.126 25.3467 152.126 27.2881C152.126 28.2087 152.311 28.915 152.68 29.4072C153.054 29.8994 153.605 30.1455 154.334 30.1455C154.959 30.1455 155.599 30.0111 156.255 29.7422V30.7471C155.754 31.0068 155.123 31.1367 154.362 31.1367ZM161.404 31.1367C160.297 31.1367 159.422 30.7995 158.779 30.125C158.141 29.4505 157.822 28.514 157.822 27.3154C157.822 26.1077 158.119 25.1484 158.711 24.4375C159.308 23.7266 160.108 23.3711 161.111 23.3711C162.049 23.3711 162.792 23.681 163.339 24.3008C163.886 24.916 164.159 25.7295 164.159 26.7412V27.459H158.998C159.021 28.3385 159.242 29.0062 159.661 29.4619C160.085 29.9176 160.68 30.1455 161.446 30.1455C162.252 30.1455 163.05 29.9769 163.838 29.6396V30.6514C163.437 30.8245 163.057 30.9476 162.696 31.0205C162.341 31.098 161.91 31.1367 161.404 31.1367ZM161.097 24.3213C160.495 24.3213 160.015 24.5173 159.654 24.9092C159.299 25.3011 159.089 25.8434 159.026 26.5361H162.943C162.943 25.8206 162.783 25.2738 162.464 24.8955C162.145 24.5127 161.689 24.3213 161.097 24.3213ZM169.719 23.3711C170.051 23.3711 170.35 23.3984 170.614 23.4531L170.457 24.5059C170.147 24.4375 169.874 24.4033 169.637 24.4033C169.031 24.4033 168.511 24.6494 168.078 25.1416C167.65 25.6338 167.436 26.2467 167.436 26.9805V31H166.301V23.5078H167.237L167.367 24.8955H167.422C167.7 24.4079 168.035 24.0319 168.427 23.7676C168.819 23.5033 169.249 23.3711 169.719 23.3711ZM177.049 28.9561C177.049 29.6533 176.789 30.1911 176.269 30.5693C175.75 30.9476 175.021 31.1367 174.082 31.1367C173.088 31.1367 172.314 30.9795 171.758 30.665V29.6123C172.118 29.7946 172.503 29.9382 172.913 30.043C173.328 30.1478 173.726 30.2002 174.109 30.2002C174.702 30.2002 175.157 30.1068 175.476 29.9199C175.795 29.7285 175.955 29.4391 175.955 29.0518C175.955 28.7601 175.827 28.5117 175.572 28.3066C175.321 28.097 174.829 27.8509 174.096 27.5684C173.398 27.3086 172.901 27.083 172.605 26.8916C172.314 26.6956 172.095 26.4746 171.949 26.2285C171.808 25.9824 171.737 25.6885 171.737 25.3467C171.737 24.736 171.985 24.2552 172.482 23.9043C172.979 23.5488 173.66 23.3711 174.526 23.3711C175.333 23.3711 176.121 23.5352 176.891 23.8633L176.488 24.7861C175.736 24.4762 175.055 24.3213 174.444 24.3213C173.906 24.3213 173.501 24.4056 173.227 24.5742C172.954 24.7428 172.817 24.9753 172.817 25.2715C172.817 25.472 172.867 25.6429 172.968 25.7842C173.072 25.9255 173.239 26.0599 173.467 26.1875C173.694 26.3151 174.132 26.4997 174.779 26.7412C175.668 27.0648 176.267 27.3906 176.577 27.7188C176.891 28.0469 177.049 28.4593 177.049 28.9561ZM189.056 31L187.682 26.6045C187.595 26.3356 187.434 25.7249 187.197 24.7725H187.142C186.96 25.57 186.8 26.1852 186.663 26.6182L185.248 31H183.936L181.892 23.5078H183.081C183.565 25.39 183.931 26.8232 184.182 27.8076C184.437 28.792 184.583 29.4551 184.62 29.7969H184.674C184.724 29.5371 184.804 29.2021 184.913 28.792C185.027 28.3773 185.125 28.0492 185.207 27.8076L186.581 23.5078H187.812L189.152 27.8076C189.407 28.5915 189.58 29.25 189.671 29.7832H189.726C189.744 29.6191 189.792 29.3662 189.87 29.0244C189.952 28.6826 190.428 26.8438 191.298 23.5078H192.474L190.403 31H189.056ZM199.161 31V26.1533C199.161 25.5426 199.022 25.0869 198.744 24.7861C198.466 24.4854 198.031 24.335 197.439 24.335C196.65 24.335 196.074 24.5492 195.709 24.9775C195.349 25.4059 195.169 26.1077 195.169 27.083V31H194.034V20.3633H195.169V23.583C195.169 23.9704 195.151 24.2917 195.114 24.5469H195.183C195.406 24.1868 195.723 23.9043 196.133 23.6992C196.548 23.4896 197.019 23.3848 197.548 23.3848C198.464 23.3848 199.15 23.6035 199.606 24.041C200.066 24.474 200.296 25.1644 200.296 26.1123V31H199.161ZM209.301 27.2471C209.301 28.4684 208.993 29.4232 208.378 30.1113C207.763 30.7949 206.913 31.1367 205.828 31.1367C205.158 31.1367 204.563 30.9795 204.044 30.665C203.524 30.3506 203.123 29.8994 202.841 29.3115C202.558 28.7236 202.417 28.0355 202.417 27.2471C202.417 26.0257 202.722 25.0755 203.333 24.3965C203.944 23.7129 204.791 23.3711 205.876 23.3711C206.924 23.3711 207.756 23.7197 208.371 24.417C208.991 25.1143 209.301 26.0576 209.301 27.2471ZM203.593 27.2471C203.593 28.2041 203.784 28.9333 204.167 29.4346C204.55 29.9359 205.113 30.1865 205.855 30.1865C206.598 30.1865 207.161 29.9382 207.544 29.4414C207.931 28.9401 208.125 28.2087 208.125 27.2471C208.125 26.2946 207.931 25.5723 207.544 25.0801C207.161 24.5833 206.594 24.335 205.842 24.335C205.099 24.335 204.538 24.5788 204.16 25.0664C203.782 25.554 203.593 26.2809 203.593 27.2471ZM221.452 31L220.078 26.6045C219.991 26.3356 219.829 25.7249 219.592 24.7725H219.538C219.355 25.57 219.196 26.1852 219.059 26.6182L217.644 31H216.332L214.288 23.5078H215.477C215.96 25.39 216.327 26.8232 216.578 27.8076C216.833 28.792 216.979 29.4551 217.015 29.7969H217.07C217.12 29.5371 217.2 29.2021 217.309 28.792C217.423 28.3773 217.521 28.0492 217.603 27.8076L218.977 23.5078H220.208L221.547 27.8076C221.803 28.5915 221.976 29.25 222.067 29.7832H222.122C222.14 29.6191 222.188 29.3662 222.265 29.0244C222.347 28.6826 222.823 26.8438 223.694 23.5078H224.87L222.798 31H221.452ZM231.038 31L230.812 29.9336H230.757C230.384 30.403 230.01 30.722 229.636 30.8906C229.267 31.0547 228.804 31.1367 228.248 31.1367C227.506 31.1367 226.922 30.9453 226.498 30.5625C226.079 30.1797 225.87 29.6351 225.87 28.9287C225.87 27.4157 227.079 26.6227 229.499 26.5498L230.771 26.5088V26.0439C230.771 25.4561 230.643 25.0231 230.388 24.7451C230.137 24.4626 229.734 24.3213 229.178 24.3213C228.554 24.3213 227.847 24.5127 227.059 24.8955L226.71 24.0273C227.079 23.8268 227.483 23.6696 227.92 23.5557C228.362 23.4417 228.804 23.3848 229.246 23.3848C230.14 23.3848 230.801 23.583 231.229 23.9795C231.662 24.376 231.878 25.0117 231.878 25.8867V31H231.038ZM228.474 30.2002C229.18 30.2002 229.734 30.0065 230.135 29.6191C230.541 29.2318 230.744 28.6895 230.744 27.9922V27.3154L229.609 27.3633C228.706 27.3952 228.055 27.5365 227.654 27.7871C227.257 28.0332 227.059 28.4183 227.059 28.9424C227.059 29.3525 227.182 29.6647 227.428 29.8789C227.679 30.0931 228.027 30.2002 228.474 30.2002ZM239.55 31V26.1533C239.55 25.5426 239.411 25.0869 239.133 24.7861C238.855 24.4854 238.42 24.335 237.827 24.335C237.043 24.335 236.469 24.5469 236.105 24.9707C235.74 25.3945 235.558 26.0941 235.558 27.0693V31H234.423V23.5078H235.346L235.53 24.5332H235.585C235.818 24.1641 236.143 23.8792 236.563 23.6787C236.982 23.4736 237.449 23.3711 237.964 23.3711C238.866 23.3711 239.545 23.5898 240.001 24.0273C240.457 24.4603 240.685 25.1553 240.685 26.1123V31H239.55ZM245.643 30.2002C245.843 30.2002 246.037 30.1865 246.224 30.1592C246.41 30.1273 246.559 30.0954 246.668 30.0635V30.9316C246.545 30.9909 246.363 31.0387 246.121 31.0752C245.884 31.1162 245.67 31.1367 245.479 31.1367C244.029 31.1367 243.305 30.3734 243.305 28.8467V24.3896H242.231V23.8428L243.305 23.3711L243.783 21.7715H244.439V23.5078H246.613V24.3896H244.439V28.7988C244.439 29.25 244.547 29.5964 244.761 29.8379C244.975 30.0794 245.269 30.2002 245.643 30.2002ZM256.816 31L256.59 29.9336H256.536C256.162 30.403 255.788 30.722 255.415 30.8906C255.046 31.0547 254.583 31.1367 254.027 31.1367C253.284 31.1367 252.701 30.9453 252.277 30.5625C251.858 30.1797 251.648 29.6351 251.648 28.9287C251.648 27.4157 252.858 26.6227 255.278 26.5498L256.549 26.5088V26.0439C256.549 25.4561 256.422 25.0231 256.167 24.7451C255.916 24.4626 255.513 24.3213 254.957 24.3213C254.332 24.3213 253.626 24.5127 252.837 24.8955L252.489 24.0273C252.858 23.8268 253.261 23.6696 253.699 23.5557C254.141 23.4417 254.583 23.3848 255.025 23.3848C255.918 23.3848 256.579 23.583 257.007 23.9795C257.44 24.376 257.657 25.0117 257.657 25.8867V31H256.816ZM254.253 30.2002C254.959 30.2002 255.513 30.0065 255.914 29.6191C256.319 29.2318 256.522 28.6895 256.522 27.9922V27.3154L255.387 27.3633C254.485 27.3952 253.833 27.5365 253.432 27.7871C253.036 28.0332 252.837 28.4183 252.837 28.9424C252.837 29.3525 252.961 29.6647 253.207 29.8789C253.457 30.0931 253.806 30.2002 254.253 30.2002ZM6.03613 48.9561C6.03613 49.6533 5.77637 50.1911 5.25684 50.5693C4.7373 50.9476 4.00814 51.1367 3.06934 51.1367C2.07585 51.1367 1.30111 50.9795 0.745117 50.665V49.6123C1.10514 49.7946 1.49023 49.9382 1.90039 50.043C2.3151 50.1478 2.71387 50.2002 3.09668 50.2002C3.68913 50.2002 4.14486 50.1068 4.46387 49.9199C4.78288 49.7285 4.94238 49.4391 4.94238 49.0518C4.94238 48.7601 4.81478 48.5117 4.55957 48.3066C4.30892 48.097 3.81673 47.8509 3.08301 47.5684C2.38574 47.3086 1.889 47.083 1.59277 46.8916C1.30111 46.6956 1.08236 46.4746 0.936523 46.2285C0.795247 45.9824 0.724609 45.6885 0.724609 45.3467C0.724609 44.736 0.972982 44.2552 1.46973 43.9043C1.96647 43.5488 2.64779 43.3711 3.51367 43.3711C4.32031 43.3711 5.10872 43.5352 5.87891 43.8633L5.47559 44.7861C4.72363 44.4762 4.04232 44.3213 3.43164 44.3213C2.89388 44.3213 2.48828 44.4056 2.21484 44.5742C1.94141 44.7428 1.80469 44.9753 1.80469 45.2715C1.80469 45.472 1.85482 45.6429 1.95508 45.7842C2.0599 45.9255 2.22624 46.0599 2.4541 46.1875C2.68197 46.3151 3.11947 46.4997 3.7666 46.7412C4.65527 47.0648 5.25456 47.3906 5.56445 47.7188C5.87891 48.0469 6.03613 48.4593 6.03613 48.9561ZM9.22344 51H8.08867V43.5078H9.22344V51ZM7.99297 41.4775C7.99297 41.2178 8.05677 41.0286 8.18437 40.9102C8.31198 40.7871 8.47148 40.7256 8.66289 40.7256C8.84518 40.7256 9.00241 40.7871 9.13457 40.9102C9.26673 41.0332 9.33281 41.2223 9.33281 41.4775C9.33281 41.7327 9.26673 41.9242 9.13457 42.0518C9.00241 42.1748 8.84518 42.2363 8.66289 42.2363C8.47148 42.2363 8.31198 42.1748 8.18437 42.0518C8.05677 41.9242 7.99297 41.7327 7.99297 41.4775ZM21.3795 51V46.126C21.3795 45.529 21.2519 45.0824 20.9967 44.7861C20.7415 44.4854 20.345 44.335 19.8072 44.335C19.1008 44.335 18.579 44.5378 18.2418 44.9434C17.9046 45.349 17.7359 45.9733 17.7359 46.8164V51H16.6012V46.126C16.6012 45.529 16.4736 45.0824 16.2184 44.7861C15.9632 44.4854 15.5644 44.335 15.0221 44.335C14.3111 44.335 13.7893 44.5492 13.4566 44.9775C13.1285 45.4014 12.9645 46.0986 12.9645 47.0693V51H11.8297V43.5078H12.7525L12.9371 44.5332H12.9918C13.206 44.1686 13.5068 43.8838 13.8941 43.6787C14.2861 43.4736 14.7236 43.3711 15.2066 43.3711C16.3779 43.3711 17.1435 43.7949 17.5035 44.6426H17.5582C17.7815 44.2507 18.1051 43.9408 18.5289 43.7129C18.9527 43.485 19.4358 43.3711 19.9781 43.3711C20.8258 43.3711 21.4592 43.5898 21.8785 44.0273C22.3023 44.4603 22.5143 45.1553 22.5143 46.1123V51H21.3795ZM28.5453 51.1367C28.0577 51.1367 27.6111 51.0479 27.2055 50.8701C26.8044 50.6878 26.4672 50.4098 26.1938 50.0361H26.1117C26.1664 50.4736 26.1938 50.8883 26.1938 51.2803V54.3633H25.059V43.5078H25.9818L26.1391 44.5332H26.1938C26.4854 44.123 26.8249 43.8268 27.2123 43.6445C27.5997 43.4622 28.044 43.3711 28.5453 43.3711C29.5388 43.3711 30.3044 43.7106 30.8422 44.3896C31.3845 45.0687 31.6557 46.0212 31.6557 47.2471C31.6557 48.4775 31.3799 49.4346 30.8285 50.1182C30.2816 50.7972 29.5206 51.1367 28.5453 51.1367ZM28.3813 44.335C27.6156 44.335 27.0619 44.5469 26.7201 44.9707C26.3783 45.3945 26.2029 46.069 26.1938 46.9941V47.2471C26.1938 48.2998 26.3692 49.054 26.7201 49.5098C27.071 49.9609 27.6339 50.1865 28.4086 50.1865C29.0557 50.1865 29.5616 49.9245 29.9262 49.4004C30.2953 48.8763 30.4799 48.154 30.4799 47.2334C30.4799 46.2992 30.2953 45.5837 29.9262 45.0869C29.5616 44.5856 29.0466 44.335 28.3813 44.335ZM34.9797 51H33.8449V40.3633H34.9797V51ZM40.751 51.1367C39.6436 51.1367 38.7686 50.7995 38.126 50.125C37.488 49.4505 37.1689 48.514 37.1689 47.3154C37.1689 46.1077 37.4652 45.1484 38.0576 44.4375C38.6546 43.7266 39.4544 43.3711 40.457 43.3711C41.3958 43.3711 42.1387 43.681 42.6855 44.3008C43.2324 44.916 43.5059 45.7295 43.5059 46.7412V47.459H38.3447C38.3675 48.3385 38.5885 49.0062 39.0078 49.4619C39.4316 49.9176 40.0264 50.1455 40.792 50.1455C41.5986 50.1455 42.3962 49.9769 43.1846 49.6396V50.6514C42.7835 50.8245 42.403 50.9476 42.043 51.0205C41.6875 51.098 41.2568 51.1367 40.751 51.1367ZM40.4434 44.3213C39.8418 44.3213 39.361 44.5173 39.001 44.9092C38.6455 45.3011 38.4359 45.8434 38.3721 46.5361H42.2891C42.2891 45.8206 42.1296 45.2738 41.8105 44.8955C41.4915 44.5127 41.0358 44.3213 40.4434 44.3213ZM55.6021 51L54.2281 46.6045C54.1415 46.3356 53.9798 45.7249 53.7428 44.7725H53.6881C53.5058 45.57 53.3463 46.1852 53.2096 46.6182L51.7945 51H50.482L48.4381 43.5078H49.6275C50.1106 45.39 50.4775 46.8232 50.7281 47.8076C50.9833 48.792 51.1292 49.4551 51.1656 49.7969H51.2203C51.2704 49.5371 51.3502 49.2021 51.4596 48.792C51.5735 48.3773 51.6715 48.0492 51.7535 47.8076L53.1275 43.5078H54.358L55.6979 47.8076C55.9531 48.5915 56.1262 49.25 56.2174 49.7832H56.2721C56.2903 49.6191 56.3382 49.3662 56.4156 49.0244C56.4977 48.6826 56.9739 46.8438 57.8443 43.5078H59.0201L56.9488 51H55.6021ZM65.1879 51L64.9623 49.9336H64.9076C64.5339 50.403 64.1602 50.722 63.7865 50.8906C63.4174 51.0547 62.9548 51.1367 62.3988 51.1367C61.656 51.1367 61.0727 50.9453 60.6488 50.5625C60.2296 50.1797 60.0199 49.6351 60.0199 48.9287C60.0199 47.4157 61.2299 46.6227 63.6498 46.5498L64.9213 46.5088V46.0439C64.9213 45.4561 64.7937 45.0231 64.5385 44.7451C64.2878 44.4626 63.8845 44.3213 63.3285 44.3213C62.7042 44.3213 61.9978 44.5127 61.2094 44.8955L60.8607 44.0273C61.2299 43.8268 61.6332 43.6696 62.0707 43.5557C62.5128 43.4417 62.9548 43.3848 63.3969 43.3848C64.2901 43.3848 64.9509 43.583 65.3793 43.9795C65.8122 44.376 66.0287 45.0117 66.0287 45.8867V51H65.1879ZM62.6244 50.2002C63.3308 50.2002 63.8845 50.0065 64.2855 49.6191C64.6911 49.2318 64.8939 48.6895 64.8939 47.9922V47.3154L63.7592 47.3633C62.8568 47.3952 62.2051 47.5365 61.8041 47.7871C61.4076 48.0332 61.2094 48.4183 61.2094 48.9424C61.2094 49.3525 61.3324 49.6647 61.5785 49.8789C61.8292 50.0931 62.1778 50.2002 62.6244 50.2002ZM67.384 43.5078H68.6008L70.2414 47.7803C70.6014 48.7555 70.8247 49.4596 70.9113 49.8926H70.966C71.0253 49.6602 71.1483 49.2637 71.3352 48.7031C71.5266 48.138 72.1464 46.4062 73.1945 43.5078H74.4113L71.1916 52.0391C70.8726 52.8822 70.4989 53.4792 70.0705 53.8301C69.6467 54.1855 69.1249 54.3633 68.5051 54.3633C68.1587 54.3633 67.8169 54.3245 67.4797 54.2471V53.3379C67.7303 53.3926 68.0106 53.4199 68.3205 53.4199C69.0998 53.4199 69.6558 52.9824 69.9885 52.1074L70.4055 51.041L67.384 43.5078ZM82.0848 50.2002C82.2853 50.2002 82.479 50.1865 82.6658 50.1592C82.8527 50.1273 83.0008 50.0954 83.1102 50.0635V50.9316C82.9871 50.9909 82.8048 51.0387 82.5633 51.0752C82.3263 51.1162 82.1121 51.1367 81.9207 51.1367C80.4715 51.1367 79.7469 50.3734 79.7469 48.8467V44.3896H78.6736V43.8428L79.7469 43.3711L80.2254 41.7715H80.8816V43.5078H83.0555V44.3896H80.8816V48.7988C80.8816 49.25 80.9887 49.5964 81.2029 49.8379C81.4171 50.0794 81.7111 50.2002 82.0848 50.2002ZM91.2809 47.2471C91.2809 48.4684 90.9732 49.4232 90.358 50.1113C89.7428 50.7949 88.8928 51.1367 87.8082 51.1367C87.1383 51.1367 86.5436 50.9795 86.024 50.665C85.5045 50.3506 85.1035 49.8994 84.8209 49.3115C84.5383 48.7236 84.3971 48.0355 84.3971 47.2471C84.3971 46.0257 84.7024 45.0755 85.3131 44.3965C85.9238 43.7129 86.7714 43.3711 87.8561 43.3711C88.9042 43.3711 89.7359 43.7197 90.3512 44.417C90.971 45.1143 91.2809 46.0576 91.2809 47.2471ZM85.5729 47.2471C85.5729 48.2041 85.7643 48.9333 86.1471 49.4346C86.5299 49.9359 87.0927 50.1865 87.8355 50.1865C88.5784 50.1865 89.1412 49.9382 89.524 49.4414C89.9114 48.9401 90.1051 48.2087 90.1051 47.2471C90.1051 46.2946 89.9114 45.5723 89.524 45.0801C89.1412 44.5833 88.5738 44.335 87.8219 44.335C87.079 44.335 86.5185 44.5788 86.1402 45.0664C85.762 45.554 85.5729 46.2809 85.5729 47.2471ZM100.8 51.1367C100.312 51.1367 99.8658 51.0479 99.4602 50.8701C99.0591 50.6878 98.7219 50.4098 98.4484 50.0361H98.3664C98.4211 50.4736 98.4484 50.8883 98.4484 51.2803V54.3633H97.3137V43.5078H98.2365L98.3938 44.5332H98.4484C98.7401 44.123 99.0796 43.8268 99.467 43.6445C99.8544 43.4622 100.299 43.3711 100.8 43.3711C101.793 43.3711 102.559 43.7106 103.097 44.3896C103.639 45.0687 103.91 46.0212 103.91 47.2471C103.91 48.4775 103.635 49.4346 103.083 50.1182C102.536 50.7972 101.775 51.1367 100.8 51.1367ZM100.636 44.335C99.8703 44.335 99.3166 44.5469 98.9748 44.9707C98.633 45.3945 98.4576 46.069 98.4484 46.9941V47.2471C98.4484 48.2998 98.6239 49.054 98.9748 49.5098C99.3257 49.9609 99.8885 50.1865 100.663 50.1865C101.31 50.1865 101.816 49.9245 102.181 49.4004C102.55 48.8763 102.735 48.154 102.735 47.2334C102.735 46.2992 102.55 45.5837 102.181 45.0869C101.816 44.5856 101.301 44.335 100.636 44.335ZM107.234 51H106.1V40.3633H107.234V51ZM114.448 51L114.222 49.9336H114.168C113.794 50.403 113.42 50.722 113.047 50.8906C112.678 51.0547 112.215 51.1367 111.659 51.1367C110.916 51.1367 110.333 50.9453 109.909 50.5625C109.49 50.1797 109.28 49.6351 109.28 48.9287C109.28 47.4157 110.49 46.6227 112.91 46.5498L114.181 46.5088V46.0439C114.181 45.4561 114.054 45.0231 113.799 44.7451C113.548 44.4626 113.145 44.3213 112.589 44.3213C111.964 44.3213 111.258 44.5127 110.47 44.8955L110.121 44.0273C110.49 43.8268 110.893 43.6696 111.331 43.5557C111.773 43.4417 112.215 43.3848 112.657 43.3848C113.55 43.3848 114.211 43.583 114.639 43.9795C115.072 44.376 115.289 45.0117 115.289 45.8867V51H114.448ZM111.885 50.2002C112.591 50.2002 113.145 50.0065 113.546 49.6191C113.951 49.2318 114.154 48.6895 114.154 47.9922V47.3154L113.019 47.3633C112.117 47.3952 111.465 47.5365 111.064 47.7871C110.668 48.0332 110.47 48.4183 110.47 48.9424C110.47 49.3525 110.593 49.6647 110.839 49.8789C111.089 50.0931 111.438 50.2002 111.885 50.2002ZM122.961 51V46.1533C122.961 45.5426 122.822 45.0869 122.544 44.7861C122.266 44.4854 121.83 44.335 121.238 44.335C120.454 44.335 119.88 44.5469 119.515 44.9707C119.151 45.3945 118.968 46.0941 118.968 47.0693V51H117.834V43.5078H118.756L118.941 44.5332H118.996C119.228 44.1641 119.554 43.8792 119.973 43.6787C120.393 43.4736 120.86 43.3711 121.375 43.3711C122.277 43.3711 122.956 43.5898 123.412 44.0273C123.867 44.4603 124.095 45.1553 124.095 46.1123V51H122.961ZM132.89 50.2002C133.09 50.2002 133.284 50.1865 133.471 50.1592C133.658 50.1273 133.806 50.0954 133.915 50.0635V50.9316C133.792 50.9909 133.61 51.0387 133.368 51.0752C133.131 51.1162 132.917 51.1367 132.726 51.1367C131.277 51.1367 130.552 50.3734 130.552 48.8467V44.3896H129.479V43.8428L130.552 43.3711L131.03 41.7715H131.687V43.5078H133.861V44.3896H131.687V48.7988C131.687 49.25 131.794 49.5964 132.008 49.8379C132.222 50.0794 132.516 50.2002 132.89 50.2002ZM140.746 51V46.1533C140.746 45.5426 140.607 45.0869 140.329 44.7861C140.051 44.4854 139.616 44.335 139.023 44.335C138.235 44.335 137.659 44.5492 137.294 44.9775C136.934 45.4059 136.754 46.1077 136.754 47.083V51H135.619V40.3633H136.754V43.583C136.754 43.9704 136.736 44.2917 136.699 44.5469H136.768C136.991 44.1868 137.308 43.9043 137.718 43.6992C138.132 43.4896 138.604 43.3848 139.133 43.3848C140.049 43.3848 140.735 43.6035 141.19 44.041C141.651 44.474 141.881 45.1644 141.881 46.1123V51H140.746ZM147.584 51.1367C146.476 51.1367 145.601 50.7995 144.959 50.125C144.321 49.4505 144.002 48.514 144.002 47.3154C144.002 46.1077 144.298 45.1484 144.89 44.4375C145.487 43.7266 146.287 43.3711 147.29 43.3711C148.229 43.3711 148.971 43.681 149.518 44.3008C150.065 44.916 150.339 45.7295 150.339 46.7412V47.459H145.178C145.2 48.3385 145.421 49.0062 145.841 49.4619C146.264 49.9176 146.859 50.1455 147.625 50.1455C148.431 50.1455 149.229 49.9769 150.017 49.6396V50.6514C149.616 50.8245 149.236 50.9476 148.876 51.0205C148.52 51.098 148.09 51.1367 147.584 51.1367ZM147.276 44.3213C146.675 44.3213 146.194 44.5173 145.834 44.9092C145.478 45.3011 145.269 45.8434 145.205 46.5361H149.122C149.122 45.8206 148.962 45.2738 148.643 44.8955C148.324 44.5127 147.869 44.3213 147.276 44.3213ZM153.615 51H152.48V43.5078H153.615V51ZM152.384 41.4775C152.384 41.2178 152.448 41.0286 152.576 40.9102C152.703 40.7871 152.863 40.7256 153.054 40.7256C153.237 40.7256 153.394 40.7871 153.526 40.9102C153.658 41.0332 153.724 41.2223 153.724 41.4775C153.724 41.7327 153.658 41.9242 153.526 42.0518C153.394 42.1748 153.237 42.2363 153.054 42.2363C152.863 42.2363 152.703 42.1748 152.576 42.0518C152.448 41.9242 152.384 41.7327 152.384 41.4775ZM159.639 43.3711C159.972 43.3711 160.27 43.3984 160.535 43.4531L160.377 44.5059C160.067 44.4375 159.794 44.4033 159.557 44.4033C158.951 44.4033 158.431 44.6494 157.998 45.1416C157.57 45.6338 157.356 46.2467 157.356 46.9805V51H156.221V43.5078H157.158L157.288 44.8955H157.342C157.62 44.4079 157.955 44.0319 158.347 43.7676C158.739 43.5033 159.17 43.3711 159.639 43.3711ZM170.806 48.9561C170.806 49.6533 170.546 50.1911 170.026 50.5693C169.507 50.9476 168.778 51.1367 167.839 51.1367C166.845 51.1367 166.071 50.9795 165.515 50.665V49.6123C165.875 49.7946 166.26 49.9382 166.67 50.043C167.085 50.1478 167.483 50.2002 167.866 50.2002C168.459 50.2002 168.914 50.1068 169.233 49.9199C169.552 49.7285 169.712 49.4391 169.712 49.0518C169.712 48.7601 169.584 48.5117 169.329 48.3066C169.078 48.097 168.586 47.8509 167.853 47.5684C167.155 47.3086 166.659 47.083 166.362 46.8916C166.071 46.6956 165.852 46.4746 165.706 46.2285C165.565 45.9824 165.494 45.6885 165.494 45.3467C165.494 44.736 165.743 44.2552 166.239 43.9043C166.736 43.5488 167.417 43.3711 168.283 43.3711C169.09 43.3711 169.878 43.5352 170.648 43.8633L170.245 44.7861C169.493 44.4762 168.812 44.3213 168.201 44.3213C167.663 44.3213 167.258 44.4056 166.984 44.5742C166.711 44.7428 166.574 44.9753 166.574 45.2715C166.574 45.472 166.624 45.6429 166.725 45.7842C166.829 45.9255 166.996 46.0599 167.224 46.1875C167.451 46.3151 167.889 46.4997 168.536 46.7412C169.425 47.0648 170.024 47.3906 170.334 47.7188C170.648 48.0469 170.806 48.4593 170.806 48.9561ZM175.852 51.1367C174.768 51.1367 173.927 50.804 173.33 50.1387C172.737 49.4688 172.441 48.5231 172.441 47.3018C172.441 46.0485 172.742 45.0801 173.344 44.3965C173.95 43.7129 174.811 43.3711 175.928 43.3711C176.288 43.3711 176.648 43.4098 177.008 43.4873C177.368 43.5648 177.65 43.6559 177.855 43.7607L177.507 44.7246C177.256 44.6243 176.983 44.5423 176.686 44.4785C176.39 44.4102 176.128 44.376 175.9 44.376C174.378 44.376 173.617 45.3467 173.617 47.2881C173.617 48.2087 173.802 48.915 174.171 49.4072C174.544 49.8994 175.096 50.1455 175.825 50.1455C176.449 50.1455 177.09 50.0111 177.746 49.7422V50.7471C177.245 51.0068 176.613 51.1367 175.852 51.1367ZM184.857 51V46.1533C184.857 45.5426 184.718 45.0869 184.44 44.7861C184.162 44.4854 183.727 44.335 183.134 44.335C182.346 44.335 181.769 44.5492 181.405 44.9775C181.045 45.4059 180.865 46.1077 180.865 47.083V51H179.73V40.3633H180.865V43.583C180.865 43.9704 180.847 44.2917 180.81 44.5469H180.879C181.102 44.1868 181.419 43.9043 181.829 43.6992C182.243 43.4896 182.715 43.3848 183.244 43.3848C184.16 43.3848 184.846 43.6035 185.301 44.041C185.762 44.474 185.992 45.1644 185.992 46.1123V51H184.857ZM191.695 51.1367C190.587 51.1367 189.712 50.7995 189.07 50.125C188.432 49.4505 188.113 48.514 188.113 47.3154C188.113 46.1077 188.409 45.1484 189.001 44.4375C189.598 43.7266 190.398 43.3711 191.401 43.3711C192.34 43.3711 193.082 43.681 193.629 44.3008C194.176 44.916 194.45 45.7295 194.45 46.7412V47.459H189.288C189.311 48.3385 189.532 49.0062 189.952 49.4619C190.375 49.9176 190.97 50.1455 191.736 50.1455C192.542 50.1455 193.34 49.9769 194.128 49.6396V50.6514C193.727 50.8245 193.347 50.9476 192.987 51.0205C192.631 51.098 192.201 51.1367 191.695 51.1367ZM191.387 44.3213C190.786 44.3213 190.305 44.5173 189.945 44.9092C189.589 45.3011 189.38 45.8434 189.316 46.5361H193.233C193.233 45.8206 193.073 45.2738 192.754 44.8955C192.435 44.5127 191.98 44.3213 191.387 44.3213ZM201.691 49.9951H201.629C201.105 50.7562 200.321 51.1367 199.278 51.1367C198.298 51.1367 197.534 50.8018 196.988 50.1318C196.445 49.4619 196.174 48.5094 196.174 47.2744C196.174 46.0394 196.447 45.0801 196.994 44.3965C197.541 43.7129 198.302 43.3711 199.278 43.3711C200.294 43.3711 201.073 43.7402 201.615 44.4785H201.704L201.656 43.9385L201.629 43.4121V40.3633H202.764V51H201.841L201.691 49.9951ZM199.421 50.1865C200.196 50.1865 200.756 49.9769 201.103 49.5576C201.454 49.1338 201.629 48.4525 201.629 47.5137V47.2744C201.629 46.2126 201.451 45.4561 201.096 45.0049C200.745 44.5492 200.182 44.3213 199.407 44.3213C198.742 44.3213 198.232 44.5811 197.876 45.1006C197.525 45.6156 197.35 46.3447 197.35 47.2881C197.35 48.2451 197.525 48.9674 197.876 49.4551C198.227 49.9427 198.742 50.1865 199.421 50.1865ZM206.443 43.5078V48.3682C206.443 48.9788 206.582 49.4346 206.86 49.7354C207.138 50.0361 207.574 50.1865 208.166 50.1865C208.95 50.1865 209.522 49.9723 209.882 49.5439C210.246 49.1156 210.429 48.416 210.429 47.4453V43.5078H211.563V51H210.627L210.463 49.9951H210.401C210.169 50.3643 209.845 50.6468 209.431 50.8428C209.021 51.0387 208.551 51.1367 208.022 51.1367C207.111 51.1367 206.427 50.9202 205.972 50.4873C205.521 50.0544 205.295 49.3617 205.295 48.4092V43.5078H206.443ZM215.311 51H214.177V40.3633H215.311V51ZM221.083 51.1367C219.975 51.1367 219.1 50.7995 218.458 50.125C217.82 49.4505 217.501 48.514 217.501 47.3154C217.501 46.1077 217.797 45.1484 218.389 44.4375C218.986 43.7266 219.786 43.3711 220.789 43.3711C221.727 43.3711 222.47 43.681 223.017 44.3008C223.564 44.916 223.837 45.7295 223.837 46.7412V47.459H218.676C218.699 48.3385 218.92 49.0062 219.339 49.4619C219.763 49.9176 220.358 50.1455 221.124 50.1455C221.93 50.1455 222.728 49.9769 223.516 49.6396V50.6514C223.115 50.8245 222.735 50.9476 222.375 51.0205C222.019 51.098 221.588 51.1367 221.083 51.1367ZM220.775 44.3213C220.173 44.3213 219.693 44.5173 219.333 44.9092C218.977 45.3011 218.768 45.8434 218.704 46.5361H222.621C222.621 45.8206 222.461 45.2738 222.142 44.8955C221.823 44.5127 221.367 44.3213 220.775 44.3213ZM225.815 50.2754C225.815 49.9701 225.883 49.7399 226.02 49.585C226.161 49.4255 226.362 49.3457 226.621 49.3457C226.886 49.3457 227.091 49.4255 227.237 49.585C227.387 49.7399 227.462 49.9701 227.462 50.2754C227.462 50.5716 227.387 50.7995 227.237 50.959C227.086 51.1185 226.881 51.1982 226.621 51.1982C226.389 51.1982 226.195 51.1276 226.04 50.9863C225.89 50.8405 225.815 50.6035 225.815 50.2754Z" fill="#737373"/>
</svg>
